<svg width="56" height="56" viewBox="0 0 56 56" fill="none" xmlns="http://www.w3.org/2000/svg">
<path d="M51.0941 0C48.6006 0 45.7133 0.624331 41.8232 3.20914C38.881 5.16403 35.3273 8.26561 31.8817 11.5824L31.8784 11.5791L27.6796 10.0072L27.9409 9.74525C29.2556 8.38386 29.2634 6.22943 27.9636 4.86119L25.5969 2.48967C24.9099 1.81746 24.0174 1.48109 23.1247 1.48109C22.2322 1.48109 21.3395 1.81736 20.6521 2.49079L17.0968 6.04608L7.25295 2.3579C7.02646 2.2386 6.77671 2.17889 6.52695 2.17889C6.12854 2.17889 5.73008 2.33069 5.42587 2.63442L0.457342 7.5948C-0.1518 8.20287 -0.152509 9.18966 0.455589 9.79871C0.550795 9.89386 0.656268 9.97512 0.766928 10.0406L20.9701 23.0894L20.9734 23.0926C18.2592 26.2619 16.3358 28.8743 14.7666 31.4437L14.7633 31.4405L7.23618 28.6231L7.23116 28.6294L7.2279 28.626C7.04375 28.5531 6.84849 28.5166 6.65322 28.5166C6.25593 28.5166 5.85855 28.6676 5.55449 28.9698L2.37453 32.1308C1.76424 32.7376 1.76124 33.7244 2.36788 34.3348L2.37139 34.3381C2.48896 34.4558 2.62064 34.5507 2.76028 34.6236L10.6331 39.7031L10.6364 39.7065C9.80004 41.7054 9.03956 43.7091 8.2889 45.685L8.28026 45.7084C8.06655 46.2962 8.22852 46.929 8.64334 47.3438C8.64709 47.3475 8.65076 47.3512 8.6545 47.3549L8.65629 47.3566C8.94708 47.6474 9.34494 47.814 9.75932 47.814C9.93613 47.814 10.1159 47.7836 10.2917 47.7197L10.3151 47.7111C12.291 46.9605 14.2947 46.2001 16.2936 45.3635L16.297 45.3669L21.3763 53.2398C21.4493 53.3794 21.5442 53.5112 21.6618 53.6287L21.6651 53.6322C21.9692 53.9343 22.3665 54.0852 22.7638 54.0852C23.1642 54.0852 23.5645 53.9318 23.8691 53.6255L27.0301 50.4456C27.4809 49.9922 27.5952 49.3312 27.3739 48.7722L27.3705 48.7689L27.3768 48.7639L24.5597 41.2369L24.5563 41.2335C27.1257 39.6643 29.7381 37.7407 32.9073 35.0266L32.9107 35.03L45.9595 55.2331C46.0249 55.3437 46.1052 55.4484 46.2004 55.5435C46.5046 55.8472 46.904 56 47.3024 56C47.7017 56 48.1009 55.8475 48.4053 55.5426L53.3656 50.5741C53.8597 50.0792 53.9519 49.335 53.6422 48.7471L49.9542 38.9033L53.5095 35.348C54.8564 33.973 54.8547 31.777 53.5105 30.4031L51.1397 28.0356C50.4596 27.3895 49.5844 27.0674 48.7098 27.0674C47.8248 27.0674 46.9395 27.3981 46.2548 28.0593L45.9929 28.3206L44.4211 24.1219L44.4177 24.1185C47.7345 20.6728 50.8354 17.1199 52.7902 14.1778C56.573 8.48467 56.1566 4.93836 55.7297 1.63174C55.6839 1.27652 55.5229 0.963843 55.2878 0.728713C55.2851 0.725894 55.2823 0.723248 55.2795 0.720507C55.2768 0.717688 55.274 0.714936 55.2713 0.712142C55.0362 0.475772 54.7244 0.315118 54.3692 0.269433C53.3219 0.134234 52.2499 0 51.0941 0Z" fill="#374151"/>
<path d="M46.6289 0.644554C48.4432 4.42143 51.6265 7.3666 55.5327 8.88242L55.9932 7.69574C52.3883 6.29685 49.4506 3.57889 47.7763 0.0933838L46.6289 0.644554Z" fill="#F1F5FF"/>
<path d="M16.0638 45.7456C14.746 43.2704 12.8191 41.172 10.4651 39.6483L9.77344 40.7169C11.9459 42.123 13.7241 44.0596 14.9403 46.3438L16.0638 45.7456Z" fill="#F1F5FF"/>
<path d="M30.789 10.3707C26.7819 14.1888 23.0333 18.1954 19.5617 22.3713L20.9135 23.1726C24.3489 19.0404 28.033 15.2782 31.9983 11.5L30.789 10.3707Z" fill="#F1F5FF"/>
<path d="M33.5 36.5C38 32.5 41.9014 28.864 45.7293 25.012L44.4538 24.0941C40.6658 27.9058 37.2847 31.5878 33.0004 34.9999L33.5 36.5Z" fill="#F1F5FF"/>
</svg>
