<svg width="80" height="80" viewBox="0 0 80 80" fill="none" xmlns="http://www.w3.org/2000/svg">
  <path
    d="M63.0939 12C60.6004 12 57.7131 12.6243 53.823 15.2091C50.8808 17.164 47.3272 20.2656 43.8816 23.5824L43.8783 23.5791L39.6795 22.0072L39.9408 21.7453C41.2555 20.3839 41.2633 18.2294 39.9635 16.8612L37.5968 14.4897C36.9098 13.8175 36.0173 13.4811 35.1246 13.4811C34.2321 13.4811 33.3394 13.8174 32.652 14.4908L29.0967 18.0461L19.2529 14.3579C19.0264 14.2386 18.7767 14.1789 18.5269 14.1789C18.1285 14.1789 17.7301 14.3307 17.4258 14.6344L12.4573 19.5948C11.8482 20.2029 11.8475 21.1897 12.4556 21.7987C12.5508 21.8939 12.6563 21.9751 12.7669 22.0406L32.97 35.0894L32.9734 35.0926C30.2592 38.2619 28.3357 40.8743 26.7665 43.4437L26.7632 43.4405L19.2362 40.6231L19.2311 40.6294L19.2279 40.626C19.0437 40.5531 18.8485 40.5166 18.6532 40.5166C18.2559 40.5166 17.8585 40.6676 17.5545 40.9698L14.3745 44.1308C13.7642 44.7376 13.7612 45.7244 14.3679 46.3348L14.3714 46.3381C14.489 46.4558 14.6206 46.5507 14.7603 46.6236L22.6331 51.7031L22.6364 51.7064C21.8 53.7054 21.0395 55.7091 20.2889 57.685L20.2802 57.7084C20.0665 58.2962 20.2285 58.929 20.6433 59.3438C20.6471 59.3475 20.6507 59.3512 20.6545 59.3549L20.6563 59.3566C20.947 59.6474 21.3449 59.814 21.7593 59.814C21.9361 59.814 22.1159 59.7836 22.2917 59.7197L22.3151 59.7111C24.291 58.9605 26.2947 58.2001 28.2936 57.3635L28.2969 57.3669L33.3763 65.2398C33.4492 65.3794 33.5441 65.5111 33.6618 65.6287L33.6651 65.6322C33.9691 65.9343 34.3664 66.0852 34.7637 66.0852C35.1641 66.0852 35.5644 65.9318 35.869 65.6255L39.03 62.4456C39.4808 61.9922 39.5951 61.3312 39.3738 60.7722L39.3704 60.7689L39.3767 60.7639L36.5596 53.2369L36.5562 53.2335C39.1256 51.6643 41.7379 49.7407 44.9072 47.0266L44.9106 47.03L57.9594 67.2331C58.0247 67.3437 58.105 67.4484 58.2002 67.5435C58.5044 67.8472 58.9039 68 59.3023 68C59.7015 68 60.1007 67.8475 60.4051 67.5426L65.3654 62.574C65.8595 62.0792 65.9517 61.335 65.642 60.7471L61.954 50.9032L65.5093 47.348C66.8562 45.973 66.8545 43.777 65.5103 42.4031L63.1395 40.0356C62.4594 39.3895 61.5842 39.0674 60.7096 39.0674C59.8246 39.0674 58.9393 39.3981 58.2546 40.0593L57.9927 40.3206L56.4209 36.1219L56.4176 36.1185C59.7343 32.6728 62.8352 29.1199 64.79 26.1778C68.5728 20.4847 68.1564 16.9384 67.7295 13.6317C67.6837 13.2765 67.5227 12.9638 67.2876 12.7287C67.2849 12.7259 67.282 12.7232 67.2793 12.7205C67.2765 12.7177 67.2738 12.7149 67.2711 12.7121C67.036 12.4758 66.7242 12.3151 66.3689 12.2694C65.3217 12.1342 64.2497 12 63.0939 12Z"
    fill="#374151" />
</svg>
