<svg width="646" height="96" viewBox="0 0 111 96" fill="none" xmlns="http://www.w3.org/2000/svg">
  <g clip-path="url(#clip0_1438_6283)">
    <mask id="mask0_1438_6283" style="mask-type:luminance" maskUnits="userSpaceOnUse" x="0" y="0" width="646"
      height="96">
      <path d="M646 0H0V96H646V0Z" fill="white" />
    </mask>
    <g mask="url(#mask0_1438_6283)">
      <path
        d="M108.53 75.6899L90.8098 94.6899C90.4265 95.1026 89.9624 95.432 89.4462 95.6573C88.9301 95.8827 88.373 95.9994 87.8098 95.9999H3.80981C3.40918 95.9997 3.0173 95.8827 2.68216 95.6631C2.34703 95.4436 2.08319 95.1311 1.92294 94.7639C1.76269 94.3967 1.71299 93.9908 1.77993 93.5958C1.84687 93.2008 2.02753 92.8338 2.29981 92.5399L19.9998 73.5399C20.3831 73.1273 20.8472 72.7979 21.3634 72.5725C21.8795 72.3472 22.4366 72.2305 22.9998 72.2299H107C107.404 72.2216 107.802 72.333 108.143 72.5502C108.484 72.7674 108.754 73.0806 108.917 73.4504C109.081 73.8203 109.131 74.2303 109.062 74.6288C108.993 75.0273 108.808 75.3965 108.53 75.6899ZM90.8098 37.4199C90.4251 37.0091 89.9606 36.6811 89.4448 36.4558C88.929 36.2306 88.3726 36.1129 87.8098 36.11H3.80981C3.40918 36.1102 3.0173 36.2272 2.68216 36.4468C2.34703 36.6663 2.08319 36.9788 1.92294 37.346C1.76269 37.7132 1.71299 38.1191 1.77993 38.5141C1.84687 38.9091 2.02753 39.2761 2.29981 39.57L19.9998 58.58C20.3845 58.9908 20.849 59.3188 21.3648 59.5441C21.8806 59.7693 22.437 59.887 22.9998 59.8899H107C107.4 59.8878 107.79 59.7693 108.124 59.5491C108.458 59.3288 108.72 59.0162 108.879 58.6494C109.038 58.2826 109.087 57.8774 109.019 57.4833C108.952 57.0892 108.772 56.7232 108.5 56.43L90.8098 37.4199ZM3.80981 23.7699H87.8098C88.373 23.7694 88.9301 23.6527 89.4462 23.4273C89.9624 23.202 90.4265 22.8726 90.8098 22.4599L108.53 3.45995C108.808 3.16647 108.993 2.79726 109.062 2.39877C109.131 2.00028 109.081 1.59031 108.917 1.22045C108.754 0.850591 108.484 0.537368 108.143 0.320195C107.802 0.103021 107.404 -0.0084012 107 -5.10788e-05H22.9998C22.4366 0.000541761 21.8795 0.117167 21.3634 0.342553C20.8472 0.567938 20.3831 0.897249 19.9998 1.30995L2.29981 20.3099C2.02753 20.6038 1.84687 20.9708 1.77993 21.3658C1.71299 21.7608 1.76269 22.1667 1.92294 22.5339C2.08319 22.9011 2.34703 23.2136 2.68216 23.4331C3.0173 23.6527 3.40918 23.7697 3.80981 23.7699Z"
        fill="url(#paint0_linear_1438_6283)" />
    </g>
  </g>
  <defs>
    <linearGradient id="paint0_linear_1438_6283" x1="10.8098" y1="98.29" x2="98.8898" y2="-1.01005"
      gradientUnits="userSpaceOnUse">
      <stop offset="0.08" stop-color="#9945FF" />
      <stop offset="0.3" stop-color="#8752F3" />
      <stop offset="0.5" stop-color="#5497D5" />
      <stop offset="0.6" stop-color="#43B4CA" />
      <stop offset="0.72" stop-color="#28E0B9" />
      <stop offset="0.97" stop-color="#19FB9B" />
    </linearGradient>
  </defs>
</svg>
