<svg width="32" height="32" viewBox="0 0 32 32" fill="none" xmlns="http://www.w3.org/2000/svg">
<rect width="32" height="32" rx="16" fill="#0000FE"/>
<path d="M20.5181 11.5307C15.8461 6.85865 10.436 4.69379 7.58491 7.54491C4.7338 10.396 6.89866 15.8061 11.5707 20.4781C16.2428 25.1502 21.6144 27.3533 24.5039 24.4639C27.3933 21.5744 25.1902 16.2028 20.5181 11.5307Z" fill="white"/>
<path d="M22.4557 15.1071C22.9908 15.8592 23.4482 16.6072 23.8191 17.3404C24.0973 17.8909 24.3259 18.4315 24.5011 18.9651C24.7371 19.6912 24.8787 20.4015 24.8688 21.1173C23.772 21.3768 22.7231 21.3751 21.7446 21.1988C21.7551 21.1095 21.7586 20.9851 21.7436 20.8278C21.7157 20.5208 21.6155 20.099 21.4298 19.6139C21.1531 18.8848 20.6876 18.0144 20.0579 17.1047C19.4292 16.1941 18.6372 15.2412 17.7151 14.3192C16.8593 13.4633 15.9775 12.72 15.1271 12.1148C14.4898 11.6605 13.8692 11.2841 13.2974 10.9951C12.8685 10.7785 12.467 10.6114 12.1112 10.4939C11.5776 10.3168 11.1443 10.2642 10.9015 10.2821C10.8763 10.284 10.8549 10.2858 10.8345 10.2887C10.6592 9.31025 10.6565 8.2613 10.917 7.16447C10.9315 7.16451 10.9461 7.1626 10.9597 7.16263C11.6755 7.16152 12.3868 7.30706 13.1129 7.54781C14.2006 7.91184 15.3297 8.49839 16.4806 9.26955C17.6286 10.0416 18.7936 11.0003 19.9143 12.12C20.8889 13.0947 21.7423 14.1049 22.4557 15.1071Z" fill="#F79342"/>
<path fill-rule="evenodd" clip-rule="evenodd" d="M9.65851 13.277L10.9111 11.6744C11.3226 11.1479 11.7768 10.6335 12.2721 10.1383C14.2656 8.1447 16.5871 6.79879 18.7644 6.26126C20.9223 5.72854 23.0887 5.96594 24.5404 7.38775C24.5534 7.40023 24.5663 7.41285 24.5791 7.42561C24.5967 7.44318 24.6139 7.46097 24.6309 7.47899C26.0425 8.9331 26.2752 11.0963 25.741 13.2505C25.2019 15.425 23.857 17.7424 21.8664 19.733C21.3713 20.2282 20.8568 20.6825 20.3304 21.0939L18.7278 22.3465L18.9655 20.4712C18.5917 20.8267 18.2093 21.1725 17.8205 21.5064C16.0677 23.0113 14.2433 24.2219 12.5685 24.97L10.5689 25.8632L11.5268 23.7188C10.672 24.2316 9.91895 24.618 9.29737 24.9046C8.71481 25.1732 8.24795 25.3541 7.92135 25.4693C7.75805 25.5268 7.62981 25.568 7.53969 25.5954C7.49463 25.6091 7.4591 25.6194 7.43348 25.6266C7.42067 25.6303 7.41033 25.6331 7.40253 25.6352C7.39862 25.6363 7.39535 25.6372 7.39271 25.6378L7.38924 25.6388L7.38726 25.6393C7.38699 25.6393 7.38672 25.6394 7.17595 24.8288C7.17595 24.8288 7.53573 24.7352 8.17629 24.4773C9.04648 24.1269 10.4348 23.4731 12.1434 22.3384C12.5709 22.0545 13.0184 21.7406 13.4828 21.3937L12.2269 24.2052C12.6119 24.0332 13.0074 23.8344 13.4098 23.6108C14.6615 22.9155 15.9819 21.981 17.2748 20.8709C17.9163 20.3201 18.5401 19.7354 19.1358 19.1282C19.471 18.7866 19.7972 18.4379 20.1125 18.0841L19.8146 20.434C20.1348 20.1837 20.4508 19.9163 20.7605 19.6325C20.9338 19.4737 21.1051 19.3097 21.2742 19.1407C25.0758 15.3391 26.2991 10.3919 24.0254 8.05781C24.0128 8.04429 23.9999 8.031 23.9868 8.0179C23.9773 8.00834 23.9676 7.9989 23.9578 7.98958C21.6281 5.70195 16.6717 6.92325 12.8644 10.7305C12.6953 10.8996 12.5314 11.071 12.3725 11.2442C12.0887 11.554 11.8214 11.8699 11.5711 12.1901L13.9205 11.8923C13.5667 12.2076 13.218 12.5338 12.8764 12.869C12.2692 13.4646 11.6846 14.0885 11.1338 14.7299C10.0237 16.0228 9.08923 17.3432 8.39392 18.5949C8.17034 18.9973 7.97149 19.3928 7.79948 19.7778L10.6153 18.52C10.2691 18.984 9.95554 19.4313 9.67189 19.8588C8.53847 21.5668 7.88217 22.958 7.52967 23.8295C7.27103 24.469 7.17595 24.8288 7.17595 24.8288C6.36613 24.6147 6.3662 24.6145 6.36627 24.6142L6.36679 24.6122L6.36772 24.6088C6.36842 24.6062 6.3693 24.6029 6.37037 24.5991C6.37251 24.5913 6.37538 24.581 6.37904 24.5682C6.38636 24.5426 6.39679 24.507 6.41068 24.462C6.43846 24.3718 6.48007 24.2433 6.53819 24.0798C6.65441 23.7527 6.83666 23.2851 7.10633 22.7021C7.39375 22.0807 7.78038 21.3283 8.29206 20.4752L6.14147 21.4358L7.0347 19.4362C7.7828 17.7614 8.99342 15.937 10.4983 14.1842C10.8321 13.7955 11.1779 13.4131 11.5334 13.0393L9.65851 13.277ZM7.17595 24.8288L7.38672 25.6394L6 26L6.36614 24.6147L7.17595 24.8288Z" fill="white"/>
<path d="M7.17578 24.8288C7.17578 24.8288 7.53556 24.7352 8.17613 24.4773C9.04632 24.1269 10.4347 23.4731 12.1432 22.3384C12.5707 22.0545 13.0182 21.7405 13.4826 21.3937L12.2267 24.2052C12.6118 24.0332 13.0072 23.8344 13.4097 23.6108C14.6613 22.9155 15.9818 21.981 17.2747 20.8708C17.9161 20.3201 18.54 19.7354 19.1357 19.1282C19.4708 18.7866 19.797 18.4379 20.1124 18.0841L19.8144 20.434C20.1347 20.1836 20.4506 19.9163 20.7604 19.6325C20.9336 19.4737 21.1049 19.3097 21.274 19.1407C25.0756 15.3391 26.2989 10.3919 24.0253 8.0578C24.0126 8.04429 23.9997 8.03099 23.9866 8.01789C23.9771 8.00833 23.9674 7.9989 23.9576 7.98957C21.6279 5.70194 16.6715 6.92324 12.8642 10.7305C12.6951 10.8996 12.5312 11.071 12.3724 11.2442C12.0885 11.554 11.8212 11.8699 11.5709 12.1901L13.9204 11.8922C13.5665 12.2076 13.2178 12.5338 12.8762 12.869C12.2691 13.4646 11.6844 14.0885 11.1337 14.7299C10.0236 16.0228 9.08906 17.3432 8.39376 18.5949C8.17018 18.9973 7.97133 19.3927 7.79932 19.7778L10.6151 18.52C10.2689 18.984 9.95537 19.4313 9.67172 19.8588C8.5383 21.5668 7.882 22.958 7.5295 23.8295C7.27087 24.469 7.17578 24.8288 7.17578 24.8288Z" fill="white"/>
<path fill-rule="evenodd" clip-rule="evenodd" d="M11.5709 12.1901C11.9612 11.6907 12.3929 11.2018 12.8642 10.7304C16.6715 6.92314 21.628 5.70185 23.9576 7.98948C23.9674 7.99881 23.9771 8.00824 23.9866 8.0178C23.9998 8.03089 24.0126 8.0442 24.0252 8.05771C26.2989 10.3918 25.0756 15.339 21.274 19.1406C20.8027 19.6119 20.3138 20.0436 19.8144 20.4339L20.1124 18.0839C19.2364 19.0667 18.277 20.0102 17.2746 20.8708C15.566 22.3378 13.8093 23.4982 12.2267 24.2051L13.4826 21.3936C9.79533 24.1475 7.17578 24.8287 7.17578 24.8287C7.17578 24.8287 7.87104 22.1981 10.6151 18.5199L7.79932 19.7777C8.50626 18.1951 9.66661 16.4384 11.1337 14.7298C11.9943 13.7275 12.9377 12.7681 13.9203 11.8922L11.5709 12.1901Z" fill="#0000FF"/>
<path d="M10.3505 11.0271C10.3882 11.3321 10.4873 11.7306 10.6613 12.1856C10.8285 12.6259 11.0648 13.118 11.3623 13.6384C12.1234 15.033 13.079 16.1387 13.7363 16.8378C13.9651 17.0879 14.2027 17.3381 14.45 17.5854C14.6847 17.8201 14.9213 18.045 15.1588 18.2622C15.8588 18.9225 16.9869 19.9053 18.4176 20.683C18.6004 20.7873 18.7803 20.8859 18.9554 20.9747C19.392 21.1963 19.8023 21.3663 20.1649 21.4857C20.4876 21.5934 20.7733 21.6543 21.0055 21.684C22.1989 21.957 23.5042 21.9904 24.8786 21.6093C24.8533 22.0103 24.7757 22.4161 24.6203 22.811C24.465 23.2059 24.2251 23.588 23.9073 23.9038C23.5314 24.2806 23.0659 24.5456 22.5933 24.6959C22.1779 24.8289 21.7566 24.8822 21.3399 24.8841C20.6095 24.8861 19.8846 24.7367 19.1439 24.4911C18.0338 24.1202 16.8824 23.5219 15.7101 22.7352C14.5387 21.9475 13.3504 20.9703 12.2083 19.8282C11.2142 18.8341 10.3443 17.8043 9.61618 16.7817C9.07035 16.014 8.60418 15.2514 8.22547 14.5036C7.9424 13.9425 7.70791 13.3902 7.52978 12.8469C7.26452 12.0303 7.11489 11.2336 7.16045 10.4276C7.18469 10.0256 7.26233 9.61784 7.41965 9.22196C7.57502 8.82704 7.81492 8.44597 8.13269 8.12918C8.50858 7.75232 8.9741 7.48738 9.44671 7.33706C9.77179 7.23298 10.0999 7.17844 10.4272 7.15887C10.046 8.53123 10.0794 9.83471 10.3515 11.0271H10.3505Z" fill="#FBB042"/>
</svg>
