<svg width="32" height="32" viewBox="0 0 32 32" fill="none" xmlns="http://www.w3.org/2000/svg">
<rect width="32" height="32" rx="16" fill="black"/>
<path d="M9.66406 14.3938C9.66406 11.7902 11.472 10.0501 14.2592 10H24.3978C23.7932 11.3341 23.3063 12.0105 22.9374 12.0292H14.1692C12.6512 12.0333 11.7374 12.9159 11.7374 14.3938C11.7374 15.8557 12.6484 16.8009 14.118 16.8068L18.0008 16.8009C18.5648 16.8067 19.048 17.2927 19.048 17.8778C19.048 18.4629 18.608 18.8013 18.0547 18.8294L14.2308 18.8337C11.5066 18.8337 9.70593 17.0343 9.66479 14.483L9.66406 14.3938Z" fill="white"/>
<path d="M22.7338 17.8562C22.7338 20.4599 20.9259 22.1999 18.1386 22.25H8C8.60473 20.9159 9.09154 20.2395 9.46043 20.2207H18.2287C19.7466 20.2166 20.6605 19.3341 20.6605 17.8562C20.6605 16.3943 19.7495 15.4491 18.2799 15.4432L14.397 15.4491C13.8331 15.4432 13.3498 14.9573 13.3498 14.3722C13.3498 13.7871 13.7898 13.4487 14.3431 13.4206L18.167 13.4162C20.8913 13.4162 22.6919 15.2157 22.733 17.767L22.7338 17.8562Z" fill="white"/>
</svg>
