<svg width="549" height="478" viewBox="0 0 549 478" fill="none" xmlns="http://www.w3.org/2000/svg">
  <g clip-path="url(#clip0_31_1180)">
    <path
      d="M275 477.321C406.621 477.321 513.321 370.621 513.321 239C513.321 107.379 406.621 0.678955 275 0.678955C143.379 0.678955 36.679 107.379 36.679 239C36.679 370.621 143.379 477.321 275 477.321Z"
      fill="#AFB9C8" fill-opacity="0.07" stroke="#E2E8FF" stroke-width="1.35795" />
    <g filter="url(#filter0_d_31_1180)">
      <path
        d="M377 329C377 321.458 377 317.686 379.343 315.343C381.686 313 385.458 313 393 313H517C524.542 313 528.314 313 530.657 315.343C533 317.686 533 321.458 533 329V399C533 406.542 533 410.314 530.657 412.657C528.314 415 524.542 415 517 415H393C385.458 415 381.686 415 379.343 412.657C377 410.314 377 406.542 377 399V329Z"
        fill="white" fill-opacity="0.6" />
    </g>
    <g filter="url(#filter1_d_31_1180)">
      <g filter="url(#filter2_d_31_1180)">
        <path
          d="M164 65H24C19.5817 65 16 68.5817 16 73V161C16 165.418 19.5817 169 24 169H164C168.418 169 172 165.418 172 161V73C172 68.5817 168.418 65 164 65Z"
          fill="white" fill-opacity="0.6" />
      </g>
      <path
        d="M138.487 106.763L138.613 106.73L138.707 106.639L151.962 93.7552L163.5 89.7053V160.5H25.5927L46.2084 146.14H72.2052H72.4398L72.5898 145.96L86.8343 128.817L106.658 125.011L106.822 124.98L106.934 124.857L118.629 112.006L138.487 106.763Z"
        fill="#5D6BFF" stroke="#E2E8FF" />
      <path
        d="M24 161L41.9295 148.511C43.9742 147.087 44.9966 146.375 46.1666 146.007C47.3366 145.64 48.5826 145.64 51.0745 145.64H64.6974C68.3891 145.64 70.2349 145.64 71.8496 144.882C73.4643 144.125 74.644 142.705 77.0033 139.866L82.9021 132.767C84.7147 130.586 85.621 129.495 86.8171 128.788C88.0133 128.082 89.4059 127.814 92.1911 127.28L101.333 125.524C103.926 125.027 105.222 124.778 106.353 124.143C107.484 123.509 108.372 122.533 110.149 120.581L115.179 115.055C116.758 113.319 117.547 112.452 118.536 111.852C119.525 111.252 120.659 110.953 122.928 110.354L134.301 107.351C136.319 106.819 137.328 106.552 138.226 106.044C139.124 105.536 139.872 104.809 141.369 103.355L149.165 95.7766C150.424 94.5531 151.053 93.9414 151.793 93.4831C152.534 93.0247 153.362 92.7341 155.018 92.1527L164 89"
        stroke="#E2E8FF" />
    </g>
    <path d="M493 342H485V407H493V342Z" fill="#5D6BFF" />
    <path d="M513 349H505V407H513V349Z" fill="#5D6BFF" />
    <path d="M523 359H515V407H523V359Z" fill="#5D6BFF" />
    <path d="M503 372H495V407H503V372Z" fill="#5D6BFF" />
    <path d="M393 356H385V407H393V356Z" fill="#5D6BFF" />
    <path d="M403 346H395V407H403V346Z" fill="#5D6BFF" />
    <path d="M413 369H405V407H413V369Z" fill="#5D6BFF" />
    <path d="M423 337H415V407H423V337Z" fill="#5D6BFF" />
    <path d="M433 351H425V407H433V351Z" fill="#5D6BFF" />
    <path d="M443 364H435V407H443V364Z" fill="#5D6BFF" />
    <path d="M453 344H445V407H453V344Z" fill="#5D6BFF" />
    <path d="M463 377H455V407H463V377Z" fill="#5D6BFF" />
    <path d="M473 351H465V407H473V351Z" fill="#5D6BFF" />
    <path d="M483 359H475V407H483V359Z" fill="#5D6BFF" />
  </g>
  <defs>
    <filter id="filter0_d_31_1180" x="361" y="305" width="188" height="134" filterUnits="userSpaceOnUse"
      color-interpolation-filters="sRGB">
      <feFlood flood-opacity="0" result="BackgroundImageFix" />
      <feColorMatrix in="SourceAlpha" type="matrix" values="0 0 0 0 0 0 0 0 0 0 0 0 0 0 0 0 0 0 127 0"
        result="hardAlpha" />
      <feOffset dy="8" />
      <feGaussianBlur stdDeviation="8" />
      <feComposite in2="hardAlpha" operator="out" />
      <feColorMatrix type="matrix" values="0 0 0 0 0.4533 0 0 0 0 0.583972 0 0 0 0 0.77998 0 0 0 0.16 0" />
      <feBlend mode="normal" in2="BackgroundImageFix" result="effect1_dropShadow_31_1180" />
      <feBlend mode="normal" in="SourceGraphic" in2="effect1_dropShadow_31_1180" result="shape" />
    </filter>
    <filter id="filter1_d_31_1180" x="0" y="57" width="188" height="136" filterUnits="userSpaceOnUse"
      color-interpolation-filters="sRGB">
      <feFlood flood-opacity="0" result="BackgroundImageFix" />
      <feColorMatrix in="SourceAlpha" type="matrix" values="0 0 0 0 0 0 0 0 0 0 0 0 0 0 0 0 0 0 127 0"
        result="hardAlpha" />
      <feOffset dy="8" />
      <feGaussianBlur stdDeviation="8" />
      <feComposite in2="hardAlpha" operator="out" />
      <feColorMatrix type="matrix" values="0 0 0 0 0.4533 0 0 0 0 0.583972 0 0 0 0 0.77998 0 0 0 0.16 0" />
      <feBlend mode="normal" in2="BackgroundImageFix" result="effect1_dropShadow_31_1180" />
      <feBlend mode="normal" in="SourceGraphic" in2="effect1_dropShadow_31_1180" result="shape" />
    </filter>
    <filter id="filter2_d_31_1180" x="12" y="65" width="164" height="112" filterUnits="userSpaceOnUse"
      color-interpolation-filters="sRGB">
      <feFlood flood-opacity="0" result="BackgroundImageFix" />
      <feColorMatrix in="SourceAlpha" type="matrix" values="0 0 0 0 0 0 0 0 0 0 0 0 0 0 0 0 0 0 127 0"
        result="hardAlpha" />
      <feOffset dy="4" />
      <feGaussianBlur stdDeviation="2" />
      <feComposite in2="hardAlpha" operator="out" />
      <feColorMatrix type="matrix" values="0 0 0 0 0 0 0 0 0 0.333333 0 0 0 0 1 0 0 0 0.09 0" />
      <feBlend mode="normal" in2="BackgroundImageFix" result="effect1_dropShadow_31_1180" />
      <feBlend mode="normal" in="SourceGraphic" in2="effect1_dropShadow_31_1180" result="shape" />
    </filter>
    <clipPath id="clip0_31_1180">
      <rect width="549" height="478" fill="white" />
    </clipPath>
  </defs>
</svg>
