<svg width="320" height="64" viewBox="0 0 320 64" fill="none" xmlns="http://www.w3.org/2000/svg">
<rect width="320" height="64" rx="8" fill="white"/>
<g clip-path="url(#clip0_2268_7278)">
<path fill-rule="evenodd" clip-rule="evenodd" d="M49.9805 36.73C50.1405 36.99 50.1205 37.32 49.9505 37.57L46.1805 43C45.8605 43.47 45.1505 43.44 44.8705 42.95L32.1105 21.17C31.8005 20.65 32.1805 20 32.7805 20H39.6005C39.8805 20 40.1305 20.14 40.2705 20.38L49.9805 36.73ZM68.2305 42.83C68.5305 43.35 68.1605 44 67.5605 44H60.7805C60.5005 44 60.2505 43.85 60.1105 43.61L46.9605 21.17C46.6605 20.65 47.0305 20 47.6305 20H54.4405C54.7205 20 54.9705 20.15 55.1105 20.39L68.2205 42.83H68.2305ZM37.4905 43.79C38.0905 43.79 38.4705 43.13 38.1605 42.61L33.4805 34.73C33.0805 34.05 32.0305 34.33 32.0305 35.13V43.01C32.0305 43.44 32.3805 43.79 32.8105 43.79H37.4805H37.4905Z" fill="#7C8EBE"/>
<path d="M76.2812 44H80.2413V28.13L89.4513 44H92.8213L102.031 28.13V44H105.991V20H102.101L91.1513 38.93L80.1712 20H76.2812V44Z" fill="#7C8EBE"/>
<path d="M115.211 44H130.541V40.09H119.171V33.95H130.541V30.04H119.171V23.91H130.541V20H115.211V44Z" fill="#7C8EBE"/>
<path d="M145.702 44H149.662V23.91H158.842V20H136.492V23.91H145.702V44Z" fill="#7C8EBE"/>
<path d="M182.52 44H186.87L175.57 20H171.71L160.41 44H164.75L166.7 39.82H180.53L182.51 44H182.52ZM168.55 35.91L173.62 25.11L178.69 35.91H168.54H168.55Z" fill="#7C8EBE"/>
<path d="M193.73 44H197.69V36.46H202.8C207.67 36.46 211.18 33 211.18 28.23C211.18 23.46 207.67 20 202.8 20H193.73V44ZM197.69 32.55V23.91H202.8C205.37 23.91 207.21 25.73 207.21 28.23C207.21 30.73 205.37 32.55 202.8 32.55H197.69Z" fill="#7C8EBE"/>
<path d="M218.672 44H234.212V40.09H222.632V20H218.672V44Z" fill="#7C8EBE"/>
<path d="M241.172 44H256.502V40.09H245.132V33.95H256.502V30.04H245.132V23.91H256.502V20H241.172V44Z" fill="#7C8EBE"/>
<path d="M262.703 44H267.813L275.113 35.12L282.373 44H287.483L277.643 32L287.483 20H282.413L275.113 28.88L267.813 20H262.703L272.543 32L262.703 44Z" fill="#7C8EBE"/>
</g>
<defs>
<clipPath id="clip0_2268_7278">
<rect width="255.48" height="24" fill="white" transform="translate(32 20)"/>
</clipPath>
</defs>
</svg>
