<svg width="40" height="40" viewBox="0 0 40 40" fill="none" xmlns="http://www.w3.org/2000/svg">
<rect width="40" height="40" rx="20" fill="#C3D1F3"/>
<g clip-path="url(#clip0_2262_2064)">
<path fill-rule="evenodd" clip-rule="evenodd" d="M19.4657 8C13.1255 8 8 13.2708 8 19.7916C8 25.0039 11.2841 29.4161 15.8399 30.9777C16.4095 31.0951 16.6182 30.724 16.6182 30.4118C16.6182 30.1385 16.5994 29.2014 16.5994 28.2251C13.4099 28.9281 12.7457 26.8195 12.7457 26.8195C12.2332 25.4529 11.4737 25.1017 11.4737 25.1017C10.4298 24.3794 11.5497 24.3794 11.5497 24.3794C12.7077 24.4575 13.3153 25.5897 13.3153 25.5897C14.3403 27.3856 15.9918 26.8782 16.6562 26.5658C16.751 25.8044 17.055 25.2773 17.3777 24.9845C14.8338 24.7112 12.1574 23.6961 12.1574 19.1667C12.1574 17.8783 12.6127 16.8241 13.3341 16.0042C13.2203 15.7115 12.8216 14.5009 13.4482 12.8806C13.4482 12.8806 14.4163 12.5681 16.5992 14.0909C17.5338 13.8328 18.4976 13.7015 19.4657 13.7004C20.4338 13.7004 21.4207 13.8372 22.332 14.0909C24.5152 12.5681 25.4833 12.8806 25.4833 12.8806C26.1099 14.5009 25.7109 15.7115 25.5971 16.0042C26.3376 16.8241 26.7741 17.8783 26.7741 19.1667C26.7741 23.6961 24.0977 24.6915 21.5348 24.9845C21.9525 25.3554 22.313 26.0581 22.313 27.171C22.313 28.7522 22.2943 30.0213 22.2943 30.4116C22.2943 30.724 22.5031 31.0951 23.0725 30.978C27.6284 29.4159 30.9125 25.0039 30.9125 19.7916C30.9312 13.2708 25.787 8 19.4657 8Z" fill="#24292F"/>
</g>
<defs>
<clipPath id="clip0_2262_2064">
<rect width="23" height="23" fill="white" transform="translate(8 8)"/>
</clipPath>
</defs>
</svg>
