<svg width="123" height="64" viewBox="0 0 123 64" fill="none" xmlns="http://www.w3.org/2000/svg">
<rect width="123" height="64" rx="8" fill="white"/>
<g clip-path="url(#clip0_2268_7276)">
<path d="M66.2459 47.7966L66.1797 47.6489H66.0178H55.7367H55.5749L55.5086 47.7966L53.3764 52.5507H48.108L58.5053 29.8125H63.2277L73.625 52.5507H68.3782L66.2459 47.7966ZM61.0947 36.2986L60.8673 35.7908L60.6386 36.2981L57.4918 43.2776L57.3327 43.6303H57.7197H63.9918H64.3777L64.22 43.2782L61.0947 36.2986Z" fill="#7C8EBE" stroke="white" stroke-width="0.5"/>
<path d="M89.0401 42.736L97.4593 52.5708H91.4351L83.2117 43.0555L83.1369 42.9689H83.0225H82.1388H81.8888V43.2189V52.5708H76.8711V29.8125H86.4065C88.6374 29.8125 90.4261 30.4804 91.7951 31.7811C93.1679 33.0853 93.8512 34.6738 93.8512 36.5824C93.8512 37.9959 93.4618 39.1684 92.692 40.1162C91.9197 41.0671 90.7484 41.8115 89.152 42.3359L88.7973 42.4524L89.0401 42.736ZM81.932 38.7811V39.0311H82.182H85.7599C86.6394 39.0311 87.3912 38.8198 87.9659 38.3492C88.5387 37.8801 88.8334 37.2857 88.8334 36.542C88.8334 35.7657 88.544 35.1427 87.9563 34.7072L87.9563 34.7072L87.9524 34.7044C87.3598 34.2829 86.6148 34.0933 85.7599 34.0933H82.182H81.932V34.3433V38.7811Z" fill="#7C8EBE" stroke="white" stroke-width="0.5"/>
<path d="M100.02 52.5507V29.8125H105.08V52.5507H100.02Z" fill="#7C8EBE" stroke="white" stroke-width="0.5"/>
</g>
<path d="M45.5862 34.9721V49.2025C44.2778 50.6662 42.5604 51.7234 40.3524 52.4552C38.2262 53.2684 35.8546 53.5936 33.2377 53.5936C28.5763 53.5936 24.7327 52.13 21.6251 49.1212C19.2535 46.9257 17.7815 44.2422 17.209 41.1522H15.3281V38.7127H16.9637C16.9637 38.5501 16.9637 38.3061 16.9637 38.1435C16.9637 37.8995 16.9637 37.6556 16.9637 37.3303H15.3281V34.8908H17.2908C17.7815 32.0448 19.1717 29.4426 21.3797 27.2471C22.6064 26.0273 23.9149 25.0515 25.3869 24.401C25.0598 23.7505 24.7327 23.0999 24.5691 22.3681C24.4873 21.9615 24.4056 21.5549 24.3238 21.1483C24.3238 20.8231 24.3238 20.5791 24.3238 20.2538C24.3238 19.9286 24.3238 19.6846 24.4056 19.4407C24.4056 19.278 24.5691 19.1154 24.7327 19.0341C24.8962 18.9528 25.0598 19.0341 25.1416 19.1154C25.4687 19.3594 25.714 19.6033 25.9594 19.8473C26.0411 19.9286 26.2047 20.0099 26.2865 20.0912C26.45 20.1725 26.6954 20.1725 26.7771 20.0099C26.8589 19.9286 26.8589 19.8473 26.8589 19.7659C26.8589 19.522 26.8589 19.278 26.8589 19.0341V18.8715C26.8589 18.4649 26.8589 18.1396 26.9407 17.733C27.0225 16.7572 27.186 15.7814 27.5132 14.8056C27.7585 13.9112 28.1674 13.098 28.6581 12.2848C29.0669 11.7156 29.5576 11.0651 30.2118 10.6585C30.7025 10.1706 31.4385 9.84532 32.1745 9.52006C32.3381 9.52006 32.5017 9.43874 32.6652 9.35742C32.747 9.35742 32.9105 9.35742 32.9923 9.43874C33.0741 9.52005 33.0741 9.60137 33.0741 9.68269C32.9923 9.92664 32.9923 10.0893 32.9105 10.3332C32.8288 10.5772 32.8288 10.9024 32.747 11.1464C32.747 11.3903 32.6652 11.6343 32.6652 11.9596C32.6652 12.2035 32.6652 12.4475 32.6652 12.6914C32.6652 13.2606 32.747 13.9112 32.9923 14.3991C33.0741 14.8056 33.3194 15.1309 33.483 15.4562C33.7283 15.7001 33.8919 15.8628 34.219 16.1067C34.4643 16.2693 34.7915 16.3507 35.1186 16.2693C35.4457 16.2693 35.691 16.188 35.9364 16.0254C36.2635 15.8627 36.5088 15.6188 36.6724 15.2935C36.7541 15.2122 36.8359 15.0496 36.9177 14.9683C36.9177 14.9683 36.9177 14.887 36.9995 14.887C37.0813 14.7243 37.4084 14.7243 37.4902 14.887C37.5719 15.0496 37.7355 15.2935 37.8173 15.4562C38.0626 15.9441 38.3079 16.5133 38.3897 17.0825C38.3897 17.2451 38.4715 17.4891 38.4715 17.733C38.4715 17.977 38.4715 18.1396 38.4715 18.3022C38.4715 18.9528 38.3897 19.6033 38.1444 20.1725C38.1444 20.2538 38.0626 20.3352 38.1444 20.4978C38.2262 20.7417 38.4715 20.9044 38.7986 20.8231C38.8804 20.8231 38.8804 20.7417 38.9622 20.7417C39.1257 20.6604 39.3711 20.4978 39.5346 20.3352C39.5346 20.3352 39.6164 20.2538 39.6982 20.2538C39.78 20.2538 39.8617 20.3352 39.8617 20.4165V20.8231C39.8617 20.9857 39.8617 21.1483 39.8617 21.2296C39.8617 21.5549 39.78 21.7989 39.78 22.0428C39.5346 22.612 39.2893 23.1812 39.0439 23.7505C41.4155 24.5636 43.3782 25.946 45.0956 27.8163L40.3524 32.4513C38.3897 30.3371 35.8546 29.1987 32.8288 29.1987C30.2119 29.1987 28.0038 30.0932 26.2865 31.8008C25.3051 32.7766 24.6509 33.8337 24.242 34.9721H26.7771V37.4116H23.7513C23.7513 37.6556 23.7513 37.8995 23.7513 38.2248C23.7513 38.3874 23.7513 38.6314 23.7513 38.794H26.7771V41.2335H24.1602C24.5691 42.5346 25.3051 43.673 26.2865 44.6488C28.0038 46.3565 30.2936 47.1696 33.1559 47.1696C35.7728 47.1696 37.7355 46.6817 38.9622 45.7059V41.2335H33.1559V34.9721H45.5862Z" fill="#7C8EBE"/>
<path d="M33.2367 54C28.4935 54 24.4863 52.455 21.3787 49.4463C19.0072 47.2507 17.5351 44.5673 16.8809 41.5586H15V38.3872H16.6356C16.6356 38.3059 16.6356 38.2246 16.6356 38.1433C16.6356 37.9806 16.6356 37.8993 16.6356 37.7367H15V34.6466H16.9627C17.5351 31.7192 19.0072 29.1984 21.1334 27.0029C22.2783 25.8644 23.505 24.8886 24.8952 24.1568C24.6499 23.6689 24.4046 23.0997 24.241 22.4491C24.1592 22.0426 24.0774 21.636 23.9957 21.2294C23.9957 20.9041 23.9957 20.5789 23.9957 20.2536C23.9957 19.9283 23.9957 19.6844 24.0774 19.3591C24.1592 19.0338 24.3228 18.7899 24.6499 18.7086C24.977 18.6273 25.3041 18.7086 25.5495 18.9525C25.713 19.1152 25.9583 19.3591 26.2037 19.5217C26.2855 19.6031 26.449 19.6844 26.5308 19.7657C26.5308 19.6031 26.5308 19.5217 26.5308 19.4404C26.5308 19.2778 26.5308 19.1965 26.5308 19.0338V18.8712C26.5308 18.6273 26.5308 18.4646 26.5308 18.302C26.5308 18.1394 26.5308 17.8954 26.5308 17.7328C26.6126 16.6757 26.7761 15.6185 27.1032 14.7241C27.3486 13.8296 27.7575 12.9351 28.2482 12.1219C28.7388 11.3901 29.2295 10.8209 29.8837 10.333C30.4562 9.84507 31.1922 9.43848 32.01 9.11322C32.2553 9.11322 32.4189 9.11322 32.5006 9.0319C32.8278 8.95058 33.0731 9.0319 33.2367 9.19453C33.4002 9.35717 33.482 9.60112 33.4002 9.84507C33.3184 10.0077 33.3184 10.1703 33.3184 10.333C33.2367 10.5769 33.2367 10.9022 33.1549 11.1461C33.1549 11.3901 33.0731 11.634 33.0731 11.878C33.0731 12.2032 33.0731 12.4472 33.0731 12.6098C33.0731 13.179 33.1549 13.7483 33.3184 14.2362C33.4002 14.5614 33.5638 14.8867 33.8091 15.212C33.9727 15.4559 34.1362 15.6185 34.3816 15.7812C34.6269 15.8625 34.8722 15.9438 35.0358 15.9438C35.2811 15.9438 35.5265 15.8625 35.7718 15.6999C36.0171 15.5372 36.2625 15.3746 36.426 15.1306C36.426 15.0493 36.5078 15.0493 36.5078 14.968C36.5078 14.8867 36.5896 14.8054 36.6714 14.7241L36.8349 14.5614C37.0802 14.3175 37.6527 14.3175 37.8163 14.6427L38.1434 15.2933C38.4705 15.8625 38.634 16.513 38.7976 17.0822V17.3262C38.7976 17.4888 38.8794 17.6515 38.8794 17.8141C38.8794 17.8954 38.8794 17.9767 38.8794 18.058C38.8794 18.1394 38.8794 18.2207 38.8794 18.302C38.8794 19.1152 38.7158 19.7657 38.4705 20.2536V20.3349L38.5523 20.4162H38.634L38.7976 20.3349C38.9612 20.3349 39.0429 20.2536 39.2065 20.091C39.3701 19.9283 39.5336 19.9283 39.6154 19.9283C39.9425 19.9283 40.1061 20.1723 40.1061 20.4162V20.8228C40.1061 20.9041 40.1061 20.9854 40.1061 21.0668C40.1061 21.1481 40.1061 21.1481 40.1061 21.2294C40.1061 21.5547 40.0243 21.8799 39.9425 22.1239C39.8607 22.6118 39.6972 23.0997 39.5336 23.5876C41.7416 24.4007 43.7043 25.7831 45.3399 27.6534L45.5852 27.816L40.2696 32.939L40.0243 32.695C38.1434 30.5808 35.69 29.5237 32.746 29.5237C30.2108 29.5237 28.1664 30.3369 26.5308 32.0445C25.7948 32.7764 25.2223 33.6708 24.8134 34.5653H27.185V37.7367H24.0774C24.0774 37.8993 24.0774 37.9806 24.0774 38.1433C24.0774 38.2246 24.0774 38.3059 24.0774 38.3872H27.1032V41.5586H24.6499C25.0588 42.5344 25.713 43.5102 26.5308 44.3233C28.1664 45.9497 30.4562 46.7628 33.1549 46.7628C35.6082 46.7628 37.4891 46.3562 38.634 45.4618V41.6399H32.746V34.6466H45.9124V49.365L45.8306 49.4463C44.4403 50.91 42.6412 52.0484 40.515 52.7803C38.3069 53.5934 35.8536 54 33.2367 54ZM15.736 40.8267H17.5351V41.0707C18.1076 44.0794 19.5796 46.6815 21.8694 48.8771C24.8952 51.8045 28.7388 53.2682 33.2367 53.2682C35.7718 53.2682 38.1434 52.8616 40.2696 52.1297C42.3141 51.4792 43.9497 50.4221 45.1763 49.0397V35.3785H33.482V40.908H39.3701V45.8683L39.2065 45.9497C37.898 47.0068 35.8536 47.4947 33.1549 47.4947C30.2108 47.4947 27.8393 46.6002 26.0401 44.8112C24.977 43.8354 24.241 42.6157 23.8321 41.2333L23.6685 40.8267H26.449V39.1191H23.4232L23.3414 38.7938C23.3414 38.5498 23.3414 38.3872 23.3414 38.1433C23.3414 37.8993 23.3414 37.574 23.3414 37.3301V37.0048H26.3672V35.2972H23.7503L23.9139 34.8093C24.3228 33.6708 25.0588 32.5324 25.9583 31.5566C27.7575 29.7676 30.0473 28.8732 32.746 28.8732C35.7718 28.8732 38.3069 29.9303 40.3514 31.9632L44.6039 27.8974C42.9683 26.1897 41.1692 24.97 38.9612 24.1568L38.5523 23.9942L38.7158 23.6689C38.9612 23.181 39.1247 22.6118 39.2883 21.9612C39.3701 21.7173 39.3701 21.4733 39.3701 21.2294C39.3701 21.2294 39.3701 21.1481 39.3701 21.0668C39.3701 20.9854 39.3701 20.9854 39.3701 20.9041C39.3701 20.9041 39.2065 20.9854 39.1247 21.0668L38.9612 21.1481C38.634 21.2294 38.3887 21.2294 38.2252 21.1481C37.9798 20.9854 37.8163 20.8228 37.8163 20.5789C37.7345 20.4162 37.8163 20.2536 37.8163 20.1723V20.091C38.0616 19.5217 38.1434 19.0338 38.1434 18.302C38.1434 18.2207 38.1434 18.1394 38.1434 18.058C38.1434 17.9767 38.1434 17.8141 38.1434 17.7328C38.1434 17.6515 38.1434 17.4888 38.0616 17.3262V17.0822C37.9798 16.6757 37.7345 16.1878 37.4891 15.6999L37.2438 15.212C37.2438 15.212 37.2438 15.2933 37.162 15.2933C37.162 15.3746 37.0802 15.4559 36.9985 15.4559C36.7531 15.8625 36.5078 16.1064 36.0989 16.3504C35.8536 16.513 35.5265 16.6757 35.1176 16.6757C34.7904 16.6757 34.3816 16.5943 34.0544 16.4317C33.7273 16.1878 33.482 15.9438 33.2367 15.7812C32.9913 15.2933 32.746 14.968 32.6642 14.5614C32.5006 13.9922 32.3371 13.3417 32.3371 12.6911C32.3371 12.4472 32.3371 12.1219 32.3371 11.878C32.3371 11.634 32.3371 11.3901 32.4189 11.0648C32.4189 10.7396 32.5006 10.4956 32.5824 10.1703C32.5824 10.0077 32.6642 9.84507 32.6642 9.68243C32.5824 9.76375 32.4189 9.84507 32.2553 9.84507C31.5193 10.1703 30.8651 10.4956 30.2926 10.9835C29.8019 11.3901 29.3113 11.878 28.9024 12.5285C28.4117 13.2604 28.0846 14.0735 27.8393 14.968C27.5121 15.7812 27.3486 16.757 27.2668 17.8141C27.2668 17.9767 27.2668 18.1394 27.2668 18.3833C27.2668 18.5459 27.2668 18.7899 27.2668 18.9525V19.0338C27.2668 19.1965 27.2668 19.2778 27.2668 19.3591C27.2668 19.5217 27.2668 19.6031 27.2668 19.7657C27.2668 19.847 27.2668 20.0096 27.1032 20.1723C27.0215 20.3349 26.9397 20.4162 26.7761 20.4975C26.5308 20.5789 26.3672 20.4975 26.1219 20.4162C25.9583 20.3349 25.7948 20.1723 25.713 20.091C25.4677 19.9283 25.2223 19.6844 24.977 19.4404L24.8952 19.3591C24.7317 19.3591 24.7317 19.3591 24.7317 19.4404C24.7317 19.6844 24.6499 19.9283 24.6499 20.2536C24.6499 20.5789 24.6499 20.9041 24.6499 21.1481C24.7317 21.5547 24.8134 21.8799 24.8952 22.2865C25.1406 23.0184 25.3859 23.6689 25.713 24.1568L25.9583 24.4821L25.5495 24.6447C24.1592 25.2952 22.769 26.271 21.6241 27.4095C19.4978 29.605 18.1894 32.1258 17.6169 35.0532L17.5351 35.2972H15.736V37.0048H17.3716L17.2898 37.4114C17.2898 37.6554 17.2898 37.8993 17.2898 38.1433C17.2898 38.3059 17.2898 38.4685 17.2898 38.6312L17.3716 39.0377H15.736V40.8267ZM26.5308 19.7657C26.5308 19.847 26.5308 19.847 26.5308 19.7657V19.7657Z" fill="#7C8EBE"/>
<defs>
<clipPath id="clip0_2268_7276">
<rect width="87.896" height="38.0444" fill="white" transform="translate(18.1016 15.168)"/>
</clipPath>
</defs>
</svg>
