<svg width="85" height="32" viewBox="0 0 85 32" fill="none" xmlns="http://www.w3.org/2000/svg">
  <path d="M44.2892 4.86369V12.1993H46.2621V4.86369H48.9512V3.19995H41.6001V4.86369H44.2892Z" fill="#E3E3E3" />
  <path
    d="M50.2329 8.94742C50.2329 8.68693 50.258 8.43065 50.3083 8.17857C50.3586 7.92649 50.4423 7.70381 50.5596 7.51055C50.6853 7.31729 50.8486 7.16184 51.0497 7.0442C51.2507 6.91816 51.5021 6.85514 51.8036 6.85514C52.1052 6.85514 52.3565 6.91816 52.5576 7.0442C52.767 7.16184 52.9304 7.31729 53.0477 7.51055C53.1733 7.70381 53.2613 7.92649 53.3115 8.17857C53.3618 8.43065 53.3869 8.68693 53.3869 8.94742C53.3869 9.2079 53.3618 9.46419 53.3115 9.71627C53.2613 9.95995 53.1733 10.1826 53.0477 10.3843C52.9304 10.5775 52.767 10.733 52.5576 10.8506C52.3565 10.9683 52.1052 11.0271 51.8036 11.0271C51.5021 11.0271 51.2507 10.9683 51.0497 10.8506C50.8486 10.733 50.6853 10.5775 50.5596 10.3843C50.4423 10.1826 50.3586 9.95995 50.3083 9.71627C50.258 9.46419 50.2329 9.2079 50.2329 8.94742ZM48.4485 8.94742C48.4485 9.46839 48.5281 9.93894 48.6873 10.3591C48.8465 10.7792 49.0726 11.1405 49.3658 11.443C49.659 11.7371 50.0109 11.964 50.4214 12.1237C50.8319 12.2833 51.2926 12.3631 51.8036 12.3631C52.3146 12.3631 52.7754 12.2833 53.1859 12.1237C53.6047 11.964 53.9608 11.7371 54.254 11.443C54.5472 11.1405 54.7734 10.7792 54.9326 10.3591C55.0917 9.93894 55.1713 9.46839 55.1713 8.94742C55.1713 8.42645 55.0917 7.9559 54.9326 7.53576C54.7734 7.10722 54.5472 6.7459 54.254 6.45181C53.9608 6.14931 53.6047 5.91823 53.1859 5.75858C52.7754 5.59053 52.3146 5.5065 51.8036 5.5065C51.2926 5.5065 50.8319 5.59053 50.4214 5.75858C50.0109 5.91823 49.659 6.14931 49.3658 6.45181C49.0726 6.7459 48.8465 7.10722 48.6873 7.53576C48.5281 7.9559 48.4485 8.42645 48.4485 8.94742Z"
    fill="#E3E3E3" />
  <path
    d="M59.8625 11.0271C59.5777 11.0271 59.3347 10.9683 59.1337 10.8506C58.9326 10.733 58.7693 10.5817 58.6436 10.3969C58.5263 10.2036 58.4384 9.98095 58.3797 9.72887C58.3295 9.47679 58.3043 9.22051 58.3043 8.96002C58.3043 8.69114 58.3295 8.43065 58.3797 8.17857C58.43 7.92649 58.5138 7.70381 58.6311 7.51055C58.7567 7.31729 58.9159 7.16184 59.1086 7.0442C59.3096 6.91816 59.5567 6.85514 59.85 6.85514C60.1348 6.85514 60.3735 6.91816 60.5662 7.0442C60.7673 7.16184 60.9306 7.32149 61.0563 7.52316C61.1819 7.71642 61.2699 7.93909 61.3202 8.19117C61.3788 8.44325 61.4081 8.69954 61.4081 8.96002C61.4081 9.22051 61.383 9.47679 61.3327 9.72887C61.2825 9.98095 61.1945 10.2036 61.0688 10.3969C60.9516 10.5817 60.7924 10.733 60.5913 10.8506C60.3987 10.9683 60.1557 11.0271 59.8625 11.0271ZM56.5828 5.68296V14.4806H58.3672V11.3926H58.3923C58.6101 11.7119 58.8866 11.9556 59.2217 12.1237C59.5651 12.2833 59.9379 12.3631 60.34 12.3631C60.8175 12.3631 61.2322 12.2707 61.5841 12.0858C61.9443 11.901 62.2417 11.6531 62.4762 11.3422C62.7192 11.0313 62.8993 10.6742 63.0166 10.2708C63.1338 9.86752 63.1925 9.44738 63.1925 9.01044C63.1925 8.54829 63.1338 8.10715 63.0166 7.68701C62.8993 7.25847 62.7192 6.88455 62.4762 6.56524C62.2333 6.24594 61.9275 5.98966 61.5589 5.7964C61.1903 5.60313 60.7505 5.5065 60.2395 5.5065C59.8374 5.5065 59.4688 5.58633 59.1337 5.74598C58.7986 5.90563 58.5222 6.16191 58.3043 6.51483H58.2792V5.68296H56.5828Z"
    fill="#E3E3E3" />
  <path d="M41.6001 19.8006V28.7999H48.0001V27.1362H43.5729V19.8006H41.6001Z" fill="#E3E3E3" />
  <path
    d="M53.4846 24.8423H50.5819C50.5903 24.7162 50.6154 24.5734 50.6573 24.4137C50.7076 24.2541 50.7871 24.1028 50.896 23.96C51.0133 23.8171 51.1641 23.6995 51.3484 23.6071C51.5411 23.5062 51.7798 23.4558 52.0647 23.4558C52.5003 23.4558 52.8228 23.5735 53.0322 23.8087C53.2501 24.044 53.4008 24.3885 53.4846 24.8423ZM50.5819 25.9766H55.269C55.3025 25.4725 55.2606 24.9893 55.1433 24.5272C55.026 24.065 54.8334 23.6533 54.5653 23.292C54.3056 22.9306 53.9705 22.645 53.56 22.4349C53.1495 22.2164 52.6678 22.1072 52.1149 22.1072C51.6207 22.1072 51.1683 22.1954 50.7578 22.3719C50.3557 22.5483 50.008 22.792 49.7148 23.1029C49.4216 23.4054 49.1955 23.7667 49.0363 24.1868C48.8771 24.607 48.7975 25.0607 48.7975 25.5481C48.7975 26.0523 48.8729 26.5144 49.0237 26.9345C49.1829 27.3547 49.4049 27.716 49.6897 28.0185C49.9745 28.321 50.3222 28.5563 50.7327 28.7243C51.1432 28.884 51.6039 28.9638 52.1149 28.9638C52.8521 28.9638 53.4804 28.7957 53.9998 28.4596C54.5192 28.1235 54.9046 27.5647 55.1559 26.7833H53.5851C53.5265 26.985 53.3673 27.1782 53.1076 27.3631C52.8479 27.5395 52.538 27.6278 52.1778 27.6278C51.6751 27.6278 51.2898 27.4975 51.0217 27.237C50.7536 26.9766 50.607 26.5564 50.5819 25.9766Z"
    fill="#E3E3E3" />
  <path
    d="M61.1903 25.5229C61.1903 25.7918 61.1652 26.0523 61.1149 26.3043C61.0646 26.5564 60.9809 26.7833 60.8636 26.985C60.7463 27.1782 60.5871 27.3337 60.3861 27.4513C60.1934 27.5689 59.9504 27.6278 59.6572 27.6278C59.3808 27.6278 59.142 27.5689 58.941 27.4513C58.7483 27.3253 58.5849 27.1656 58.4509 26.9724C58.3253 26.7707 58.2331 26.5438 58.1745 26.2917C58.1158 26.0396 58.0865 25.7876 58.0865 25.5355C58.0865 25.2666 58.1116 25.0103 58.1619 24.7666C58.2205 24.5146 58.3085 24.2919 58.4258 24.0986C58.5514 23.9054 58.7148 23.7499 58.9159 23.6323C59.1169 23.5146 59.364 23.4558 59.6572 23.4558C59.9504 23.4558 60.1934 23.5146 60.3861 23.6323C60.5787 23.7499 60.7337 23.9054 60.851 24.0986C60.9767 24.2835 61.0646 24.502 61.1149 24.754C61.1652 24.9977 61.1903 25.254 61.1903 25.5229ZM61.2154 27.9681V28.7999H62.9118V19.8006H61.1275V23.0777H61.1023C60.9013 22.7584 60.6248 22.5189 60.273 22.3593C59.9295 22.1912 59.5651 22.1072 59.1797 22.1072C58.7022 22.1072 58.2834 22.2038 57.9231 22.3971C57.5629 22.5819 57.2613 22.8298 57.0184 23.1407C56.7838 23.4516 56.6037 23.8129 56.4781 24.2247C56.3608 24.628 56.3021 25.0481 56.3021 25.4851C56.3021 25.9388 56.3608 26.3758 56.4781 26.7959C56.6037 27.216 56.7838 27.59 57.0184 27.9177C57.2613 28.237 57.5671 28.4932 57.9357 28.6865C58.3043 28.8714 58.7316 28.9638 59.2174 28.9638C59.6447 28.9638 60.0258 28.8882 60.3609 28.7369C60.7044 28.5773 60.9809 28.321 61.1903 27.9681H61.2154Z"
    fill="#E3E3E3" />
  <path
    d="M67.5402 27.2622C67.2638 27.2622 67.0334 27.2034 66.8491 27.0858C66.6648 26.9682 66.514 26.8169 66.3967 26.632C66.2878 26.4472 66.2082 26.2413 66.1579 26.0144C66.1161 25.7792 66.0951 25.5439 66.0951 25.3086C66.0951 25.0649 66.1203 24.8339 66.1705 24.6154C66.2292 24.3885 66.3171 24.1911 66.4344 24.023C66.5601 23.8465 66.7109 23.7079 66.8868 23.6071C67.0711 23.5062 67.2889 23.4558 67.5402 23.4558C67.8334 23.4558 68.0763 23.5104 68.269 23.6197C68.4617 23.7289 68.6167 23.8759 68.734 24.0608C68.8512 24.2457 68.935 24.4599 68.9853 24.7036C69.0355 24.9389 69.0607 25.191 69.0607 25.4599C69.0607 25.6951 69.0272 25.922 68.9601 26.1405C68.9015 26.3506 68.8094 26.5396 68.6837 26.7077C68.558 26.8757 68.3989 27.0102 68.2062 27.111C68.0135 27.2118 67.7915 27.2622 67.5402 27.2622ZM70.7571 28.384V22.2836H69.0607V23.1533H69.0355C68.8177 22.7752 68.5455 22.5063 68.2188 22.3467C67.9004 22.187 67.5276 22.1072 67.1004 22.1072C66.648 22.1072 66.2459 22.1954 65.8941 22.3719C65.5506 22.5483 65.2616 22.7878 65.027 23.0903C64.7925 23.3844 64.6123 23.7289 64.4867 24.1238C64.3694 24.5104 64.3108 24.9137 64.3108 25.3338C64.3108 25.7792 64.361 26.2035 64.4615 26.6068C64.5705 27.0018 64.738 27.3505 64.9642 27.653C65.1904 27.9471 65.4794 28.1823 65.8312 28.3588C66.1831 28.5269 66.6019 28.6109 67.0878 28.6109C67.4816 28.6109 67.8543 28.5311 68.2062 28.3714C68.5664 28.2034 68.8429 27.9471 69.0355 27.6026H69.0607V28.4596C69.0691 28.9218 68.956 29.3041 68.7214 29.6066C68.4952 29.9091 68.1308 30.0604 67.6282 30.0604C67.3098 30.0604 67.0292 29.9931 66.7862 29.8587C66.5433 29.7327 66.3799 29.5016 66.2962 29.1655H64.5244C64.5495 29.5352 64.65 29.8503 64.826 30.1108C65.0103 30.3797 65.2364 30.5981 65.5045 30.7662C65.781 30.9342 66.0826 31.0561 66.4093 31.1317C66.7444 31.2157 67.0711 31.2577 67.3894 31.2577C68.135 31.2577 68.7298 31.1569 69.1738 30.9552C69.6178 30.7536 69.9571 30.5057 70.1916 30.2116C70.4262 29.9259 70.577 29.615 70.644 29.2789C70.7194 28.9428 70.7571 28.6445 70.7571 28.384Z"
    fill="#E3E3E3" />
  <path
    d="M76.818 24.8423H73.9152C73.9236 24.7162 73.9488 24.5734 73.9906 24.4137C74.0409 24.2541 74.1205 24.1028 74.2294 23.96C74.3467 23.8171 74.4975 23.6995 74.6818 23.6071C74.8745 23.5062 75.1132 23.4558 75.398 23.4558C75.8337 23.4558 76.1562 23.5735 76.3656 23.8087C76.5834 24.044 76.7342 24.3885 76.818 24.8423ZM73.9152 25.9766H78.6023C78.6359 25.4725 78.594 24.9893 78.4767 24.5272C78.3594 24.065 78.1667 23.6533 77.8987 23.292C77.639 22.9306 77.3039 22.645 76.8934 22.4349C76.4829 22.2164 76.0012 22.1072 75.4483 22.1072C74.954 22.1072 74.5017 22.1954 74.0912 22.3719C73.6891 22.5483 73.3414 22.792 73.0482 23.1029C72.755 23.4054 72.5288 23.7667 72.3696 24.1868C72.2105 24.607 72.1309 25.0607 72.1309 25.5481C72.1309 26.0523 72.2063 26.5144 72.3571 26.9345C72.5162 27.3547 72.7382 27.716 73.0231 28.0185C73.3079 28.321 73.6556 28.5563 74.066 28.7243C74.4765 28.884 74.9373 28.9638 75.4483 28.9638C76.1855 28.9638 76.8138 28.7957 77.3332 28.4596C77.8526 28.1235 78.2379 27.5647 78.4893 26.7833H76.9185C76.8599 26.985 76.7007 27.1782 76.441 27.3631C76.1813 27.5395 75.8713 27.6278 75.5111 27.6278C75.0085 27.6278 74.6231 27.4975 74.3551 27.237C74.087 26.9766 73.9404 26.5564 73.9152 25.9766Z"
    fill="#E3E3E3" />
  <path
    d="M79.9119 22.2836V28.7999H81.6963V25.8632C81.6963 25.5691 81.7256 25.296 81.7843 25.0439C81.8429 24.7918 81.9393 24.5734 82.0733 24.3885C82.2157 24.1953 82.4 24.044 82.6262 23.9348C82.8524 23.8255 83.1288 23.7709 83.4555 23.7709C83.5644 23.7709 83.6775 23.7793 83.7948 23.7961C83.9121 23.8045 84.0126 23.8171 84.0964 23.8339V22.1702C83.954 22.1282 83.8241 22.1072 83.7069 22.1072C83.4807 22.1072 83.2629 22.1408 83.0534 22.208C82.844 22.2752 82.6471 22.3719 82.4628 22.4979C82.2785 22.6155 82.1152 22.7626 81.9728 22.939C81.8303 23.1071 81.7173 23.292 81.6335 23.4936H81.6083V22.2836H79.9119Z"
    fill="#E3E3E3" />
  <line x1="33.9201" x2="33.9201" y2="32" stroke="#E3E3E3" stroke-width="0.64" />
  <rect x="0.32" y="3.51995" width="24.96" height="24.96" stroke="#E3E3E3" stroke-width="0.64" />
  <path d="M18.4 10.3999H7.2V21.5999H18.4V10.3999Z" fill="#E3E3E3" />
  <path fill-rule="evenodd" clip-rule="evenodd"
    d="M0 3.19995H25.6V28.7999H0V3.19995ZM2.4 5.59995H23.2V26.3999H2.4V5.59995Z" fill="#E3E3E3" />
</svg>