<svg id="Wht" xmlns="http://www.w3.org/2000/svg" width="735" height="209" viewBox="0 0 735 209">
  <metadata><?xpacket begin="﻿" id="W5M0MpCehiHzreSzNTczkc9d"?>
<x:xmpmeta xmlns:x="adobe:ns:meta/" x:xmptk="Adobe XMP Core 5.6-c142 79.160924, 2017/07/13-01:06:39        ">
   <rdf:RDF xmlns:rdf="http://www.w3.org/1999/02/22-rdf-syntax-ns#">
      <rdf:Description rdf:about=""/>
   </rdf:RDF>
</x:xmpmeta>
                                                                                                    
                                                                                                    
                                                                                                    
                                                                                                    
                                                                                                    
                                                                                                    
                                                                                                    
                                                                                                    
                                                                                                    
                                                                                                    
                                                                                                    
                                                                                                    
                                                                                                    
                                                                                                    
                                                                                                    
                                                                                                    
                                                                                                    
                                                                                                    
                                                                                                    
                                                                                                    
                           
<?xpacket end="w"?></metadata>
<defs>
    <style>
      .cls-1, .cls-2 {
        fill: none;
        stroke: #fff;
        stroke-linejoin: round;
        stroke-width: 8px;
      }

      .cls-1 {
        stroke-linecap: round;
      }

      .cls-1, .cls-2, .cls-3 {
        fill-rule: evenodd;
      }

      .cls-3 {
        fill: #fff;
      }
    </style>
  </defs>
  <g id="logo_00" data-name="logo 00">
    <g>
      <path class="cls-1" d="M106,182V19L95,6,72,7,39,23l2,17L24,43,7,92l9,9L6,111l11,23,40-3"/>
      <path class="cls-1" d="M106,182L94,202l-9-2-11,2-17-8,49-74"/>
      <path class="cls-1" d="M59,131L28,153l22,25,44,24"/>
      <path class="cls-1" d="M18,135l19,10"/>
      <path class="cls-1" d="M15,101l73,44,18,23"/>
      <path class="cls-1" d="M105,182l-40,2"/>
      <path class="cls-1" d="M41,39L58,70l4,31-1,81"/>
      <path class="cls-1" d="M15,101L57,69l47-22"/>
      <path class="cls-1" d="M16,99L41,41,82,8"/>
      <path class="cls-1" d="M41,40L87,55l19,12"/>
      <path class="cls-1" d="M17,100H61L88,56l9-44"/>
      <path class="cls-1" d="M105,90L62,101l27,43,3,38"/>
    </g>
    <path class="cls-2" d="M107.609,183h9.782"/>
    <path id="Shape_13_copy" data-name="Shape 13 copy" class="cls-2" d="M107.609,167h9.782"/>
    <path id="Shape_13_copy_2" data-name="Shape 13 copy 2" class="cls-2" d="M107.609,122h9.782"/>
    <path id="Shape_13_copy_3" data-name="Shape 13 copy 3" class="cls-2" d="M107.609,90h9.782"/>
    <path id="Shape_13_copy_4" data-name="Shape 13 copy 4" class="cls-2" d="M107.609,67h9.782"/>
    <path id="Shape_13_copy_5" data-name="Shape 13 copy 5" class="cls-2" d="M107.609,47h9.782"/>
    <g id="Group_1_copy_2" data-name="Group 1 copy 2">
      <path class="cls-1" d="M118.006,182.424V19.125L129.021,6.1l23.034,1L185.1,23.132l-2,17.031,17.024,3.005,17.025,49.09-9.013,9.016,10.014,10.019-11.016,23.042-40.057-3.006"/>
      <path class="cls-1" d="M118.006,182.424l12.017,20.036,9.013-2,11.016,2,17.024-8.014-49.07-74.136"/>
      <path class="cls-1" d="M165.073,131.33l31.045,22.041-22.032,25.045L130.023,202.46"/>
      <path class="cls-1" d="M206.132,135.338l-19.027,10.018"/>
      <path class="cls-1" d="M209.136,101.275l-73.1,44.081L118.006,168.4"/>
      <path class="cls-1" d="M119.007,182.424l40.058,2"/>
      <path class="cls-1" d="M183.1,39.162L166.075,70.219l-4.006,31.057,1,81.149"/>
      <path class="cls-1" d="M209.136,101.275l-42.06-32.058-47.067-22.04"/>
      <path class="cls-1" d="M208.135,99.272L183.1,41.165,142.04,8.1"/>
      <path class="cls-1" d="M183.1,40.164L137.033,55.191,118.006,67.213"/>
      <path class="cls-1" d="M207.133,100.274H163.07L136.032,56.193l-9.013-44.081"/>
      <path class="cls-1" d="M119.007,90.255l43.062,11.02L135.03,144.354l-3,38.07"/>
    </g>
  </g>
  <path id="holdings" class="cls-3" d="M303.635,175.652v-65.53h-16.43v25.612H261.3V110.122H244.871v65.53H261.3v-26.29h25.9v26.29h16.43Zm77.611-32.765c0-16.818-11.4-34.312-35.084-34.312s-35.085,17.494-35.085,34.312S322.482,177.2,346.162,177.2,381.246,159.7,381.246,142.887Zm-16.817,0c0,11.018-5.993,20.78-18.267,20.78s-18.268-9.762-18.268-20.78,5.993-20.877,18.268-20.877S364.429,131.868,364.429,142.887Zm72.1,32.765V161.927H405.119v-51.8H388.688v65.53H436.53ZM503.316,142.6c0-10.052-3.576-18.847-10.439-24.84-8.312-7.249-19.427-7.635-30.445-7.635h-21.36v65.53h21.36c8.216,0,20.684,0,30.445-8.506C499.643,161.251,503.316,152.552,503.316,142.6Zm-16.818,0c0,5.9-1.643,11.405-5.315,14.981-4.543,4.542-10.246,4.736-16.238,4.736H457.5V123.363h7.442c6.089,0,12.082,0,16.238,4.156C485.145,131.482,486.5,137.088,486.5,142.6Zm40.69,33.055v-65.53H510.757v65.53h16.431Zm69.105,0v-65.53H580.925v40.11l-27.062-40.11H537.529v65.53H552.9V135.541l27.063,40.111h16.334Zm72.875,0V137.957H638.722v12.565h17.011c0,8.8-8.022,13.145-16.334,13.145-11.791,0-18.944-9.182-18.944-20.877,0-10.922,6.476-20.683,19.331-20.683a22.493,22.493,0,0,1,16.43,7.055l9.569-9.568c-1.256-1.547-9.375-11.019-26.579-11.019-23.1,0-35.472,15.851-35.472,34.408,0,18.654,11.792,34.215,32.765,34.215,12.469,0,19.717-6.959,20.2-7.635l0.193,6.089h12.275Zm63.017-19.427c0-28.513-40.5-16.721-40.5-28.319,0-3.673,3.867-6.186,10.826-6.186,12.468,0,19.33,6.476,19.91,6.959l9.085-10.439c-1.16-1.159-9.182-9.665-28.9-9.665-16.334,0-27.159,8.216-27.159,20.1,0,27.062,40.3,16.431,40.3,28.416,0,4.639-5.123,6.669-12.758,6.669a31.754,31.754,0,0,1-20.587-7.153l-8.7,11.115c1.16,1.16,10.342,9.472,29.286,9.472C719.523,177.2,732.185,169.756,732.185,156.225Z"/>
  <path id="Big" class="cls-3" d="M299.1,76.1c0-7.019-3.663-13.428-12.819-15.768,2.035-.916,10.173-4.781,10.173-16.277a16.574,16.574,0,0,0-4.374-11.5c-5.29-5.493-13.632-5.493-22.482-5.493H244.976V96.034h23.906c10.275,0,20.143-.305,25.84-7.325A20.038,20.038,0,0,0,299.1,76.1ZM287.906,45.779c0,10.784-9.156,11.6-17.4,11.6H253.419V34.284H269.9C277.936,34.284,287.906,34.284,287.906,45.779Zm2.34,30.418c0,13.225-12.615,12.513-22.279,12.513H253.419V64.5h16.888C280.378,64.5,290.246,65.108,290.246,76.2Zm30.213,19.838V27.061h-8.545V96.034h8.545Zm76.3,0V59.716H366.746v7.528h22.279v2.035c0,6.918-4.171,20.651-22.076,20.651-17.8,0-24.72-13.327-24.72-28.383,0-14.751,8.037-28.383,25.331-28.383,14.039,0,20.448,8.545,21.363,9.563l5.8-4.883c-0.916-1.424-8.545-12.411-27.162-12.411-21.872,0-34.283,15.87-34.283,36.013,0,20.957,11.292,36.216,32.35,36.216,17.193,0,22.788-9.461,23.7-10.885l0.2,9.258h7.223Z"/>
  <path id="brain" class="cls-3" d="M502.914,76.1c0-7.019-3.663-13.428-12.819-15.768,2.035-.916,10.174-4.781,10.174-16.277a16.575,16.575,0,0,0-4.375-11.5c-5.29-5.493-13.632-5.493-22.482-5.493H448.793V96.034H472.7c10.275,0,20.143-.305,25.84-7.325A20.038,20.038,0,0,0,502.914,76.1ZM491.723,45.779c0,10.784-9.156,11.6-17.4,11.6H457.236V34.284h16.481C481.753,34.284,491.723,34.284,491.723,45.779Zm2.34,30.418c0,13.225-12.615,12.513-22.279,12.513H457.236V64.5h16.888C484.2,64.5,494.063,65.108,494.063,76.2ZM572.09,96.034l-21.465-29.6c1.22-.305,17.6-3.052,17.6-19.736a18.944,18.944,0,0,0-5.6-13.734c-5.494-5.493-13.429-5.9-22.177-5.9H515.731V96.034h8.545V67.244h16.989l20.652,28.79H572.09ZM559.679,47.1c0,12.31-11.394,13.022-21.669,13.022H524.276V34.182h14.446c6.511,0,13.632.1,17.9,4.374C558.661,40.591,559.679,43.236,559.679,47.1Zm82.4,48.933L613.393,27.061H603.22L574.532,96.034h9.054l7.426-18.312h34.283l7.427,18.312h9.359ZM622.345,70.4H594.064L608.2,35.606Zm37.436,25.636V27.061h-8.545V96.034h8.545Zm72.432,0V27.061h-7.935V82.3L684.4,27.061H675.65V96.034h7.935V40.286l40.286,55.749h8.342Z"/>
</svg>
