<svg width="106" height="40" viewBox="0 0 106 40" fill="none" xmlns="http://www.w3.org/2000/svg">
<path d="M55.3614 6.07968V15.2492H57.8274V6.07968H61.1888V4H52V6.07968H55.3614Z" fill="black"/>
<path d="M62.791 11.1843C62.791 10.8587 62.8224 10.5384 62.8852 10.2233C62.9481 9.90817 63.0528 9.62983 63.1994 9.38825C63.3565 9.14667 63.5607 8.95236 63.812 8.80531C64.0633 8.64776 64.3774 8.56898 64.7544 8.56898C65.1314 8.56898 65.4455 8.64776 65.6969 8.80531C65.9587 8.95236 66.1629 9.14667 66.3095 9.38825C66.4665 9.62983 66.5765 9.90817 66.6393 10.2233C66.7021 10.5384 66.7336 10.8587 66.7336 11.1843C66.7336 11.5099 66.7021 11.8303 66.6393 12.1454C66.5765 12.45 66.4665 12.7283 66.3095 12.9804C66.1629 13.222 65.9587 13.4163 65.6969 13.5634C65.4455 13.7104 65.1314 13.7839 64.7544 13.7839C64.3774 13.7839 64.0633 13.7104 63.812 13.5634C63.5607 13.4163 63.3565 13.222 63.1994 12.9804C63.0528 12.7283 62.9481 12.45 62.8852 12.1454C62.8224 11.8303 62.791 11.5099 62.791 11.1843ZM60.5605 11.1843C60.5605 11.8355 60.66 12.4237 60.859 12.9489C61.0579 13.4741 61.3407 13.9257 61.7072 14.3038C62.0737 14.6715 62.5135 14.9551 63.0266 15.1546C63.5397 15.3542 64.1157 15.454 64.7544 15.454C65.3932 15.454 65.9691 15.3542 66.4822 15.1546C67.0058 14.9551 67.4509 14.6715 67.8174 14.3038C68.1839 13.9257 68.4666 13.4741 68.6656 12.9489C68.8645 12.4237 68.964 11.8355 68.964 11.1843C68.964 10.5331 68.8645 9.94493 68.6656 9.41976C68.4666 8.88409 68.1839 8.43244 67.8174 8.06482C67.4509 7.6867 67.0058 7.39785 66.4822 7.19829C65.9691 6.98822 65.3932 6.88319 64.7544 6.88319C64.1157 6.88319 63.5397 6.98822 63.0266 7.19829C62.5135 7.39785 62.0737 7.6867 61.7072 8.06482C61.3407 8.43244 61.0579 8.88409 60.859 9.41976C60.66 9.94493 60.5605 10.5331 60.5605 11.1843Z" fill="black"/>
<path d="M74.828 13.7839C74.472 13.7839 74.1683 13.7104 73.917 13.5634C73.6657 13.4163 73.4615 13.2272 73.3044 12.9962C73.1578 12.7546 73.0479 12.4763 72.9746 12.1612C72.9117 11.846 72.8803 11.5257 72.8803 11.2001C72.8803 10.864 72.9117 10.5384 72.9746 10.2233C73.0374 9.90817 73.1421 9.62983 73.2887 9.38825C73.4458 9.14667 73.6447 8.95236 73.8856 8.80531C74.1369 8.64776 74.4458 8.56898 74.8123 8.56898C75.1684 8.56898 75.4668 8.64776 75.7076 8.80531C75.959 8.95236 76.1632 9.15192 76.3202 9.40401C76.4773 9.64559 76.5873 9.92392 76.6501 10.239C76.7234 10.5541 76.76 10.8745 76.76 11.2001C76.76 11.5257 76.7286 11.846 76.6658 12.1612C76.603 12.4763 76.493 12.7546 76.3359 12.9962C76.1893 13.2272 75.9904 13.4163 75.7391 13.5634C75.4982 13.7104 75.1945 13.7839 74.828 13.7839ZM70.7284 7.10376V18.1008H72.9588V14.2408H72.9903C73.2625 14.64 73.6081 14.9446 74.0269 15.1546C74.4563 15.3542 74.9223 15.454 75.4249 15.454C76.0218 15.454 76.5401 15.3384 76.9799 15.1074C77.4302 14.8763 77.802 14.5664 78.0952 14.1778C78.3988 13.7892 78.624 13.3428 78.7706 12.8386C78.9172 12.3345 78.9905 11.8093 78.9905 11.2631C78.9905 10.6854 78.9172 10.134 78.7706 9.60882C78.624 9.07315 78.3988 8.60575 78.0952 8.20662C77.7915 7.80749 77.4093 7.48713 76.9485 7.24556C76.4878 7.00398 75.938 6.88319 75.2992 6.88319C74.7966 6.88319 74.3359 6.98297 73.917 7.18253C73.4981 7.3821 73.1526 7.70245 72.8803 8.1436H72.8489V7.10376H70.7284Z" fill="black"/>
<path d="M52 24.7508V36H60V33.9203H54.4661V24.7508H52Z" fill="black"/>
<path d="M66.8557 31.0529H63.2272C63.2377 30.8953 63.2691 30.7168 63.3215 30.5172C63.3843 30.3177 63.4838 30.1286 63.6199 29.95C63.7665 29.7715 63.955 29.6244 64.1854 29.5089C64.4262 29.3829 64.7247 29.3198 65.0807 29.3198C65.6252 29.3198 66.0284 29.4669 66.2902 29.761C66.5624 30.0551 66.7509 30.4857 66.8557 31.0529ZM63.2272 32.4709H69.0861C69.128 31.8406 69.0756 31.2367 68.929 30.659C68.7824 30.0813 68.5416 29.5667 68.2065 29.115C67.8819 28.6634 67.463 28.3063 66.9499 28.0437C66.4368 27.7706 65.8347 27.634 65.1435 27.634C64.5257 27.634 63.9603 27.7443 63.4471 27.9649C62.9445 28.1855 62.5099 28.4901 62.1434 28.8787C61.7769 29.2568 61.4942 29.7085 61.2952 30.2336C61.0963 30.7588 60.9968 31.326 60.9968 31.9352C60.9968 32.5654 61.091 33.1431 61.2795 33.6682C61.4785 34.1934 61.756 34.6451 62.112 35.0232C62.4681 35.4013 62.9026 35.6954 63.4157 35.9055C63.9288 36.105 64.5048 36.2048 65.1435 36.2048C66.065 36.2048 66.8504 35.9947 67.4997 35.5746C68.1489 35.1545 68.6306 34.456 68.9447 33.4792H66.9813C66.908 33.7313 66.7091 33.9728 66.3844 34.2039C66.0598 34.4245 65.6724 34.5348 65.2221 34.5348C64.5938 34.5348 64.1121 34.372 63.777 34.0464C63.4419 33.7208 63.2587 33.1956 63.2272 32.4709Z" fill="black"/>
<path d="M76.4877 31.9037C76.4877 32.2398 76.4563 32.5654 76.3935 32.8805C76.3307 33.1956 76.2259 33.4792 76.0793 33.7313C75.9327 33.9728 75.7338 34.1672 75.4825 34.3142C75.2416 34.4612 74.9379 34.5348 74.5714 34.5348C74.2259 34.5348 73.9274 34.4612 73.6761 34.3142C73.4353 34.1567 73.2311 33.9571 73.0635 33.7155C72.9064 33.4634 72.7913 33.1798 72.718 32.8647C72.6447 32.5496 72.608 32.2345 72.608 31.9194C72.608 31.5833 72.6394 31.263 72.7022 30.9584C72.7755 30.6433 72.8855 30.3649 73.0321 30.1233C73.1892 29.8818 73.3934 29.6874 73.6447 29.5404C73.896 29.3934 74.2049 29.3198 74.5714 29.3198C74.9379 29.3198 75.2416 29.3934 75.4825 29.5404C75.7233 29.6874 75.917 29.8818 76.0636 30.1233C76.2207 30.3544 76.3307 30.6275 76.3935 30.9426C76.4563 31.2472 76.4877 31.5676 76.4877 31.9037ZM76.5191 34.9602V36H78.6396V24.7508H76.4092V28.8472H76.3778C76.1265 28.448 75.7809 28.1487 75.3411 27.9491C74.9118 27.7391 74.4562 27.634 73.9745 27.634C73.3777 27.634 72.8541 27.7548 72.4038 27.9964C71.9535 28.2275 71.5765 28.5373 71.2729 28.926C70.9797 29.3146 70.7545 29.7662 70.5975 30.2809C70.4508 30.7851 70.3776 31.3102 70.3776 31.8564C70.3776 32.4236 70.4508 32.9698 70.5975 33.4949C70.7545 34.0201 70.9797 34.4875 71.2729 34.8971C71.5765 35.2963 71.9588 35.6166 72.4195 35.8582C72.8803 36.0893 73.4143 36.2048 74.0217 36.2048C74.5557 36.2048 75.0322 36.1103 75.451 35.9212C75.8804 35.7217 76.2259 35.4013 76.4877 34.9602H76.5191Z" fill="black"/>
<path d="M84.4251 34.0779C84.0796 34.0779 83.7916 34.0044 83.5612 33.8573C83.3308 33.7103 83.1424 33.5212 82.9958 33.2901C82.8596 33.059 82.7601 32.8017 82.6973 32.5181C82.645 32.224 82.6188 31.9299 82.6188 31.6358C82.6188 31.3312 82.6502 31.0424 82.713 30.7693C82.7863 30.4857 82.8963 30.2389 83.0429 30.0288C83.2 29.8082 83.3884 29.6349 83.6083 29.5089C83.8387 29.3829 84.111 29.3198 84.4251 29.3198C84.7916 29.3198 85.0953 29.3881 85.3362 29.5246C85.577 29.6612 85.7707 29.845 85.9173 30.0761C86.0639 30.3072 86.1687 30.575 86.2315 30.8796C86.2943 31.1737 86.3257 31.4888 86.3257 31.8249C86.3257 32.119 86.2838 32.4026 86.2001 32.6757C86.1268 32.9383 86.0116 33.1746 85.8545 33.3847C85.6974 33.5947 85.4985 33.7628 85.2576 33.8888C85.0168 34.0149 84.7393 34.0779 84.4251 34.0779ZM88.4462 35.4801V27.8546H86.3257V28.9417H86.2943C86.022 28.4691 85.6817 28.1329 85.2733 27.9334C84.8754 27.7338 84.4094 27.634 83.8754 27.634C83.3099 27.634 82.8073 27.7443 82.3675 27.9649C81.9381 28.1855 81.5769 28.4848 81.2836 28.8629C80.9904 29.2305 80.7653 29.6612 80.6082 30.1549C80.4616 30.638 80.3883 31.1422 80.3883 31.6673C80.3883 32.224 80.4512 32.7544 80.5768 33.2586C80.7129 33.7523 80.9224 34.1882 81.2051 34.5663C81.4878 34.9339 81.8491 35.228 82.2889 35.4486C82.7287 35.6586 83.2523 35.7637 83.8597 35.7637C84.3518 35.7637 84.8178 35.6639 85.2576 35.4643C85.7079 35.2543 86.0535 34.9339 86.2943 34.5033H86.3257V35.5746C86.3362 36.1523 86.1948 36.6302 85.9016 37.0083C85.6189 37.3865 85.1634 37.5755 84.5351 37.5755C84.1372 37.5755 83.7864 37.4915 83.4827 37.3234C83.179 37.1659 82.9748 36.877 82.8701 36.4569H80.6554C80.6868 36.919 80.8124 37.3129 81.0323 37.6385C81.2627 37.9746 81.5454 38.2477 81.8805 38.4578C82.2261 38.6679 82.6031 38.8202 83.0115 38.9147C83.4303 39.0197 83.8387 39.0723 84.2366 39.0723C85.1686 39.0723 85.9121 38.9462 86.4671 38.6941C87.0221 38.442 87.4462 38.1322 87.7394 37.7646C88.0326 37.4075 88.2211 37.0188 88.3049 36.5987C88.3991 36.1786 88.4462 35.8057 88.4462 35.4801Z" fill="black"/>
<path d="M96.0224 31.0529H92.3939C92.4044 30.8953 92.4358 30.7168 92.4882 30.5172C92.551 30.3177 92.6505 30.1286 92.7866 29.95C92.9332 29.7715 93.1217 29.6244 93.3521 29.5089C93.5929 29.3829 93.8914 29.3198 94.2474 29.3198C94.7919 29.3198 95.1951 29.4669 95.4569 29.761C95.7291 30.0551 95.9176 30.4857 96.0224 31.0529ZM92.3939 32.4709H98.2528C98.2947 31.8406 98.2423 31.2367 98.0957 30.659C97.9491 30.0813 97.7083 29.5667 97.3732 29.115C97.0486 28.6634 96.6297 28.3063 96.1166 28.0437C95.6035 27.7706 95.0014 27.634 94.3102 27.634C93.6924 27.634 93.127 27.7443 92.6138 27.9649C92.1112 28.1855 91.6766 28.4901 91.3101 28.8787C90.9436 29.2568 90.6609 29.7085 90.4619 30.2336C90.263 30.7588 90.1635 31.326 90.1635 31.9352C90.1635 32.5654 90.2577 33.1431 90.4462 33.6682C90.6452 34.1934 90.9227 34.6451 91.2787 35.0232C91.6347 35.4013 92.0693 35.6954 92.5824 35.9055C93.0955 36.105 93.6715 36.2048 94.3102 36.2048C95.2317 36.2048 96.0171 35.9947 96.6664 35.5746C97.3156 35.1545 97.7973 34.456 98.1114 33.4792H96.148C96.0747 33.7313 95.8758 33.9728 95.5511 34.2039C95.2265 34.4245 94.8391 34.5348 94.3888 34.5348C93.7605 34.5348 93.2788 34.372 92.9437 34.0464C92.6086 33.7208 92.4254 33.1956 92.3939 32.4709Z" fill="black"/>
<path d="M99.8898 27.8546V36H102.12V32.3291C102.12 31.9614 102.157 31.6201 102.23 31.305C102.304 30.9899 102.424 30.7168 102.591 30.4857C102.77 30.2441 103 30.0551 103.283 29.9185C103.565 29.782 103.911 29.7137 104.319 29.7137C104.455 29.7137 104.597 29.7242 104.743 29.7452C104.89 29.7557 105.016 29.7715 105.12 29.7925V27.7128C104.942 27.6603 104.78 27.634 104.633 27.634C104.351 27.634 104.078 27.676 103.817 27.7601C103.555 27.8441 103.309 27.9649 103.078 28.1224C102.848 28.2695 102.644 28.4533 102.466 28.6739C102.288 28.8839 102.146 29.115 102.042 29.3671H102.01V27.8546H99.8898Z" fill="black"/>
<line x1="42.5" x2="42.5" y2="40" stroke="#666666" stroke-opacity="0.88"/>
<path d="M23 13H9V27H23V13Z" fill="url(#paint0_linear_3_2221)"/>
<path fill-rule="evenodd" clip-rule="evenodd" d="M0 4H32V36H0V4ZM3 7H29V33H3V7Z" fill="url(#paint1_linear_3_2221)"/>
<defs>
<linearGradient id="paint0_linear_3_2221" x1="0" y1="20" x2="32" y2="20" gradientUnits="userSpaceOnUse">
<stop stop-color="#24C6DC"/>
<stop offset="1" stop-color="#514A9D"/>
</linearGradient>
<linearGradient id="paint1_linear_3_2221" x1="0" y1="20" x2="32" y2="20" gradientUnits="userSpaceOnUse">
<stop stop-color="#24C6DC"/>
<stop offset="1" stop-color="#514A9D"/>
</linearGradient>
</defs>
</svg>
