<svg width="227" height="64" viewBox="0 0 227 64" fill="none" xmlns="http://www.w3.org/2000/svg">
<rect width="227" height="64" rx="8" fill="white"/>
<path d="M75.7987 22.408H80.5347V45H75.7987V22.408ZM95.056 28.712C96.9333 28.712 98.3733 29.256 99.376 30.344C100.4 31.4107 100.912 32.968 100.912 35.016V45H96.496V35.944C96.496 34.7067 96.24 33.8107 95.728 33.256C95.2373 32.68 94.48 32.392 93.456 32.392C92.3893 32.392 91.568 32.712 90.992 33.352C90.4373 33.9707 90.16 34.888 90.16 36.104V45H85.744V29.16H90.16V31.08C91.2693 29.5013 92.9013 28.712 95.056 28.712ZM103.565 29.16H108.365L112.142 39.976L115.885 29.16H120.654L114.606 45H109.646L103.565 29.16ZM137.385 31.976C137.812 32.9573 138.025 34.2373 138.025 35.816V45H133.577V43.208C132.446 44.68 130.665 45.416 128.233 45.416C126.91 45.416 125.78 45.192 124.841 44.744C123.902 44.2747 123.241 43.6027 122.857 42.728C122.58 42.152 122.441 41.4267 122.441 40.552C122.441 39.7413 122.569 39.0373 122.825 38.44C123.358 37.2667 124.286 36.4667 125.609 36.04C126.932 35.592 128.638 35.368 130.729 35.368H133.577V35.048C133.577 34.6 133.556 34.2587 133.513 34.024C133.47 33.768 133.396 33.512 133.289 33.256C132.884 32.3813 131.966 31.944 130.537 31.944C129.812 31.944 129.214 32.0507 128.745 32.264C128.297 32.456 127.966 32.776 127.753 33.224C127.689 33.3947 127.636 33.5653 127.593 33.736C127.572 33.8853 127.55 34.0453 127.529 34.216H123.049C123.049 33.4053 123.198 32.648 123.497 31.944C123.988 30.856 124.841 30.0453 126.057 29.512C127.273 28.9787 128.756 28.712 130.505 28.712C132.34 28.712 133.812 28.9787 134.921 29.512C136.052 30.0453 136.873 30.8667 137.385 31.976ZM129.801 42.088C130.676 42.088 131.401 41.9387 131.977 41.64C132.553 41.32 132.98 40.872 133.257 40.296C133.47 39.8053 133.577 39.1547 133.577 38.344V38.12H131.049C130.025 38.12 129.182 38.2053 128.521 38.376C127.881 38.5467 127.454 38.856 127.241 39.304C127.134 39.56 127.081 39.8267 127.081 40.104C127.081 40.4027 127.134 40.6907 127.241 40.968C127.412 41.352 127.721 41.64 128.169 41.832C128.638 42.0027 129.182 42.088 129.801 42.088ZM142.817 29.16H147.201V30.408C147.563 29.832 147.947 29.416 148.353 29.16C148.779 28.904 149.27 28.776 149.825 28.776C150.657 28.776 151.318 29.0213 151.809 29.512C152.299 30.0027 152.545 30.6533 152.545 31.464C152.545 32.2533 152.299 32.904 151.809 33.416C151.318 33.9067 150.678 34.152 149.889 34.152C149.419 34.152 148.982 34.0453 148.577 33.832C148.193 33.5973 147.905 33.2987 147.713 32.936C147.521 33.0213 147.393 33.16 147.329 33.352C147.265 33.5227 147.233 33.8533 147.233 34.344V45H142.817V29.16ZM158.508 27.176C157.782 27.176 157.185 26.9627 156.716 26.536C156.246 26.088 156.012 25.5227 156.012 24.84C156.012 24.1573 156.246 23.6027 156.716 23.176C157.185 22.728 157.782 22.504 158.508 22.504C159.212 22.504 159.788 22.728 160.236 23.176C160.705 23.6027 160.94 24.1573 160.94 24.84C160.94 25.5227 160.705 26.088 160.236 26.536C159.788 26.9627 159.212 27.176 158.508 27.176ZM156.268 29.16H160.684V45H156.268V29.16ZM179.801 31.976C180.228 32.9573 180.441 34.2373 180.441 35.816V45H175.993V43.208C174.863 44.68 173.081 45.416 170.649 45.416C169.327 45.416 168.196 45.192 167.257 44.744C166.319 44.2747 165.657 43.6027 165.273 42.728C164.996 42.152 164.857 41.4267 164.857 40.552C164.857 39.7413 164.985 39.0373 165.241 38.44C165.775 37.2667 166.703 36.4667 168.025 36.04C169.348 35.592 171.055 35.368 173.145 35.368H175.993V35.048C175.993 34.6 175.972 34.2587 175.929 34.024C175.887 33.768 175.812 33.512 175.705 33.256C175.3 32.3813 174.383 31.944 172.953 31.944C172.228 31.944 171.631 32.0507 171.161 32.264C170.713 32.456 170.383 32.776 170.169 33.224C170.105 33.3947 170.052 33.5653 170.009 33.736C169.988 33.8853 169.967 34.0453 169.945 34.216H165.465C165.465 33.4053 165.615 32.648 165.913 31.944C166.404 30.856 167.257 30.0453 168.473 29.512C169.689 28.9787 171.172 28.712 172.921 28.712C174.756 28.712 176.228 28.9787 177.337 29.512C178.468 30.0453 179.289 30.8667 179.801 31.976ZM172.217 42.088C173.092 42.088 173.817 41.9387 174.393 41.64C174.969 41.32 175.396 40.872 175.673 40.296C175.887 39.8053 175.993 39.1547 175.993 38.344V38.12H173.465C172.441 38.12 171.599 38.2053 170.937 38.376C170.297 38.5467 169.871 38.856 169.657 39.304C169.551 39.56 169.497 39.8267 169.497 40.104C169.497 40.4027 169.551 40.6907 169.657 40.968C169.828 41.352 170.137 41.64 170.585 41.832C171.055 42.0027 171.599 42.088 172.217 42.088ZM194.545 28.712C196.422 28.712 197.862 29.256 198.865 30.344C199.889 31.4107 200.401 32.968 200.401 35.016V45H195.985V35.944C195.985 34.7067 195.729 33.8107 195.217 33.256C194.726 32.68 193.969 32.392 192.945 32.392C191.878 32.392 191.057 32.712 190.481 33.352C189.926 33.9707 189.649 34.888 189.649 36.104V45H185.233V29.16H189.649V31.08C190.758 29.5013 192.39 28.712 194.545 28.712ZM211.115 45.288C209.899 45.288 208.907 45.1067 208.139 44.744C207.393 44.3813 206.838 43.816 206.475 43.048C206.113 42.28 205.931 41.256 205.931 39.976V32.712H203.659V29.16H205.931V25.384H210.347V29.16H214.443V32.712H210.347V39.208C210.347 40.0613 210.529 40.68 210.891 41.064C211.254 41.448 211.809 41.64 212.555 41.64C213.153 41.64 213.75 41.5653 214.347 41.416V44.936C213.089 45.1707 212.011 45.288 211.115 45.288Z" fill="#7C8EBE"/>
<path d="M34.4237 11L14 11.0859L25.5323 28L46 27.9571L34.4237 11Z" fill="#7C8EBE"/>
<path d="M44.4483 11L41 16.1476L48.8879 28H54.75L66 11H44.4483Z" fill="#7C8EBE"/>
<path d="M54 30H27L40.5 51L54 30Z" fill="#7C8EBE"/>
</svg>
