<svg width="198" height="64" viewBox="0 0 198 64" fill="none" xmlns="http://www.w3.org/2000/svg">
<rect width="198" height="64" rx="8" fill="white"/>
<path d="M44 12H26L15 23V41L26 52H44L55 41V23L44 12Z" fill="#7C8EBE"/>
<rect x="20" y="17" width="30" height="30" fill="white"/>
<path d="M73.1699 41.576C70.9725 41.576 69.1485 41.2027 67.6979 40.456C66.2472 39.7093 65.2125 38.664 64.5939 37.32C64.1885 36.4027 63.9645 35.2613 63.9219 33.896H69.1379C69.1379 34.7493 69.2552 35.4427 69.4899 35.976C70.0872 37.256 71.3672 37.896 73.3299 37.896C74.2472 37.896 75.0259 37.7573 75.6659 37.48C76.3272 37.1813 76.7752 36.7653 77.0099 36.232C77.2019 35.784 77.2979 35.368 77.2979 34.984C77.2979 34.5787 77.2125 34.184 77.0419 33.8C76.8499 33.352 76.5192 32.9787 76.0499 32.68C75.6019 32.3813 75.1005 32.1467 74.5459 31.976C73.9912 31.784 73.2125 31.5493 72.2099 31.272L70.7699 30.888C69.2979 30.504 68.0605 30.0133 67.0579 29.416C66.0765 28.7973 65.3725 28.008 64.9459 27.048C64.6045 26.216 64.4339 25.3733 64.4339 24.52C64.4339 23.6027 64.6365 22.7067 65.0419 21.832C65.5965 20.5733 66.5779 19.592 67.9859 18.888C69.3939 18.184 71.0792 17.832 73.0419 17.832C74.9619 17.832 76.5939 18.184 77.9379 18.888C79.3032 19.5707 80.2845 20.5627 80.8819 21.864C81.2872 22.824 81.4899 23.9227 81.4899 25.16H76.5939C76.5939 24.3493 76.4765 23.6773 76.2419 23.144C75.6872 21.9707 74.5565 21.384 72.8499 21.384C72.0392 21.384 71.3352 21.5333 70.7379 21.832C70.1619 22.1093 69.7565 22.4933 69.5219 22.984C69.4365 23.1547 69.3832 23.3253 69.3619 23.496C69.3405 23.6453 69.3299 23.816 69.3299 24.008C69.3299 24.392 69.3832 24.7333 69.4899 25.032C69.6605 25.416 69.9592 25.7467 70.3859 26.024C70.8339 26.28 71.3352 26.4933 71.8899 26.664C72.4445 26.8347 73.2125 27.048 74.1939 27.304C74.8125 27.4533 75.2179 27.56 75.4099 27.624C76.5405 27.9227 77.5112 28.2427 78.3219 28.584C79.1539 28.9253 79.8792 29.352 80.4979 29.864C81.1379 30.3547 81.6285 30.9627 81.9699 31.688C82.3112 32.4987 82.4819 33.416 82.4819 34.44C82.4819 35.4853 82.2792 36.4667 81.8739 37.384C81.2765 38.728 80.2099 39.7627 78.6739 40.488C77.1592 41.2133 75.3245 41.576 73.1699 41.576ZM102.542 25.16V47.464H98.0941V39.208C96.9635 40.68 95.3101 41.416 93.1341 41.416C91.6408 41.416 90.3501 41.0853 89.2621 40.424C88.1955 39.7413 87.3848 38.7813 86.8301 37.544C86.2541 36.2213 85.9661 34.7387 85.9661 33.096C85.9661 31.3893 86.2541 29.896 86.8301 28.616C87.3848 27.3787 88.1955 26.4187 89.2621 25.736C90.3501 25.0533 91.6408 24.712 93.1341 24.712C95.3528 24.712 97.0381 25.4907 98.1901 27.048V25.16H102.542ZM94.4461 37.736C95.6195 37.736 96.5261 37.3733 97.1661 36.648C97.8061 35.9013 98.1261 34.8453 98.1261 33.48V32.648C98.1261 31.2827 97.8061 30.2373 97.1661 29.512C96.5261 28.7867 95.6195 28.424 94.4461 28.424C93.6568 28.424 92.9741 28.584 92.3981 28.904C91.8435 29.224 91.4275 29.704 91.1501 30.344C90.8515 30.9627 90.7021 31.88 90.7021 33.096C90.7021 34.248 90.8515 35.1547 91.1501 35.816C91.4488 36.4347 91.8755 36.9147 92.4301 37.256C92.9848 37.576 93.6568 37.736 94.4461 37.736ZM122.506 25.16V41H118.058V39.112C116.949 40.6693 115.317 41.448 113.162 41.448C111.306 41.448 109.866 40.9147 108.842 39.848C107.818 38.76 107.306 37.2027 107.306 35.176V25.16H111.754V34.248C111.754 35.464 111.999 36.36 112.49 36.936C112.981 37.4907 113.738 37.768 114.762 37.768C115.829 37.768 116.639 37.4587 117.194 36.84C117.77 36.2 118.058 35.272 118.058 34.056V25.16H122.506ZM141.593 27.976C142.02 28.9573 142.233 30.2373 142.233 31.816V41H137.785V39.208C136.654 40.68 134.873 41.416 132.441 41.416C131.118 41.416 129.988 41.192 129.049 40.744C128.11 40.2747 127.449 39.6027 127.065 38.728C126.788 38.152 126.649 37.4267 126.649 36.552C126.649 35.7413 126.777 35.0373 127.033 34.44C127.566 33.2667 128.494 32.4667 129.817 32.04C131.14 31.592 132.846 31.368 134.937 31.368H137.785V31.048C137.785 30.6 137.764 30.2587 137.721 30.024C137.678 29.768 137.604 29.512 137.497 29.256C137.092 28.3813 136.174 27.944 134.745 27.944C134.02 27.944 133.422 28.0507 132.953 28.264C132.505 28.456 132.174 28.776 131.961 29.224C131.897 29.3947 131.844 29.5653 131.801 29.736C131.78 29.8853 131.758 30.0453 131.737 30.216H127.257C127.257 29.4053 127.406 28.648 127.705 27.944C128.196 26.856 129.049 26.0453 130.265 25.512C131.481 24.9787 132.964 24.712 134.713 24.712C136.548 24.712 138.02 24.9787 139.129 25.512C140.26 26.0453 141.081 26.8667 141.593 27.976ZM134.009 38.088C134.884 38.088 135.609 37.9387 136.185 37.64C136.761 37.32 137.188 36.872 137.465 36.296C137.678 35.8053 137.785 35.1547 137.785 34.344V34.12H135.257C134.233 34.12 133.39 34.2053 132.729 34.376C132.089 34.5467 131.662 34.856 131.449 35.304C131.342 35.56 131.289 35.8267 131.289 36.104C131.289 36.4027 131.342 36.6907 131.449 36.968C131.62 37.352 131.929 37.64 132.377 37.832C132.846 38.0027 133.39 38.088 134.009 38.088ZM162.865 18.408V41H158.513V39.112C157.361 40.648 155.675 41.416 153.457 41.416C151.963 41.416 150.673 41.0853 149.585 40.424C148.518 39.7413 147.707 38.7813 147.153 37.544C146.577 36.2213 146.289 34.7387 146.289 33.096C146.289 31.3893 146.577 29.896 147.153 28.616C147.707 27.3787 148.518 26.4187 149.585 25.736C150.673 25.0533 151.963 24.712 153.457 24.712C155.59 24.712 157.243 25.448 158.417 26.92V18.408H162.865ZM158.449 32.648C158.449 31.2827 158.129 30.2373 157.489 29.512C156.849 28.7653 155.942 28.392 154.769 28.392C153.979 28.392 153.297 28.5627 152.721 28.904C152.166 29.224 151.75 29.704 151.473 30.344C151.174 30.9627 151.025 31.88 151.025 33.096C151.025 34.2693 151.174 35.1867 151.473 35.848C151.771 36.4667 152.198 36.9467 152.753 37.288C153.307 37.608 153.979 37.768 154.769 37.768C155.942 37.768 156.849 37.4053 157.489 36.68C158.129 35.9333 158.449 34.8773 158.449 33.512V32.648ZM174.028 41.512C172.364 41.512 170.978 41.256 169.868 40.744C168.759 40.2107 167.97 39.4213 167.5 38.376C167.18 37.608 167.02 36.7333 167.02 35.752H171.372C171.372 36.3493 171.458 36.8187 171.628 37.16C172.012 38.0133 172.834 38.44 174.092 38.44C175.287 38.44 176.044 38.0987 176.364 37.416C176.471 37.2027 176.524 36.9787 176.524 36.744C176.524 36.4667 176.471 36.2213 176.364 36.008C176.236 35.7093 176.012 35.4747 175.692 35.304C175.394 35.112 174.967 34.9413 174.412 34.792C173.879 34.6427 173.303 34.504 172.684 34.376C171.511 34.0987 170.508 33.736 169.676 33.288C168.866 32.8187 168.279 32.1787 167.916 31.368C167.81 31.0907 167.724 30.8133 167.66 30.536C167.618 30.2587 167.596 29.9387 167.596 29.576C167.596 28.8507 167.724 28.1893 167.98 27.592C168.407 26.6747 169.154 25.9707 170.22 25.48C171.287 24.968 172.556 24.712 174.028 24.712C175.5 24.712 176.759 24.9573 177.804 25.448C178.871 25.9173 179.628 26.632 180.076 27.592C180.375 28.2533 180.524 29.0107 180.524 29.864H176.3C176.3 29.4373 176.226 29.0427 176.076 28.68C175.906 28.3173 175.639 28.0507 175.276 27.88C174.914 27.688 174.476 27.592 173.964 27.592C173.452 27.592 173.026 27.6667 172.684 27.816C172.364 27.9653 172.14 28.1787 172.012 28.456C171.927 28.6053 171.884 28.808 171.884 29.064C171.884 29.3413 171.927 29.5333 172.012 29.64C172.162 29.9387 172.407 30.1947 172.748 30.408C173.111 30.6 173.559 30.7707 174.092 30.92C174.647 31.0693 175.191 31.208 175.724 31.336C177.047 31.6773 178.124 32.0827 178.956 32.552C179.788 33 180.396 33.64 180.78 34.472C181.015 34.9627 181.132 35.5707 181.132 36.296C181.132 37.1067 180.994 37.8213 180.716 38.44C180.247 39.464 179.415 40.232 178.22 40.744C177.047 41.256 175.65 41.512 174.028 41.512Z" fill="#7C8EBE"/>
</svg>
