<svg width="118" height="18" viewBox="9 0 100 18" fill="none" xmlns="http://www.w3.org/2000/svg">
  <path fill-rule="evenodd" clip-rule="evenodd" d="M18.0054 6.17879L20.7055 3.30101V11.6515L18.0054 14.1687V6.17879Z"
    fill="#2471B9" />
  <path fill-rule="evenodd" clip-rule="evenodd"
    d="M14.035 7.6495L15.34 8.73838L16.7352 7.4798V11.6515L14.035 14.1687V7.6495Z" fill="#458CCA" />
  <path fill-rule="evenodd" clip-rule="evenodd" d="M12.7718 6.17879L10.0647 3.30101V14.204L12.7718 11.8566V6.17879Z"
    fill="#75B5E3" />
  <path
    d="M42.9104 9.65758H46.6031V7.79091H42.9104V6.48283H47.1168V4.60202H40.8975V12.903H47.1723V11.0222H42.9104V9.65758Z"
    fill="#1D1D1B" />
  <path
    d="M29.9651 7.84748L27.9799 4.60202H25.8837V12.903H27.8827V8.08081L29.8332 11.0929H30.0414L32.0127 8.04545V12.903H34.0326V4.60202H31.9364L29.9651 7.84748Z"
    fill="#1D1D1B" />
  <path
    d="M57.0565 7.81919C55.6613 7.45858 55.4809 7.3101 55.4809 6.92121V6.9C55.4809 6.56768 55.814 6.36263 56.3346 6.36263C56.9246 6.36263 57.5632 6.6101 58.2851 7.11919L58.41 7.21111L59.472 5.64141L59.361 5.5495C58.5072 4.8495 57.5008 4.50303 56.3485 4.50303C54.641 4.50303 53.454 5.54949 53.454 7.06262V7.0697C53.454 8.81616 54.634 9.25454 56.168 9.65757C57.5285 10.0182 57.6326 10.2303 57.6326 10.5273V10.5485C57.6326 10.9303 57.2717 11.1495 56.6539 11.1495C55.8765 11.1495 55.1616 10.8525 54.405 10.2091L54.287 10.1101L53.0792 11.5879L53.1903 11.6869C54.1204 12.5354 55.3351 13.002 56.6192 13.002C58.4656 13.002 59.6525 11.9697 59.6525 10.3717V10.3646C59.6595 8.81616 58.6183 8.22929 57.0565 7.81919Z"
    fill="#1D1D1B" />
  <path
    d="M99.2936 7.41616V7.39495C99.2936 6.60303 99.0506 5.93839 98.5786 5.45758C98.0303 4.89899 97.2043 4.59495 96.1839 4.59495H92.4357V12.896H94.4625V10.3434H95.587L97.2667 12.903H99.6476L97.6763 9.96869C98.7244 9.50909 99.2936 8.61111 99.2936 7.41616ZM97.239 7.48687V7.50808C97.239 8.11616 96.7947 8.48384 96.0728 8.48384H94.4764V6.49697H96.0381C96.5865 6.49697 97.239 6.66666 97.239 7.48687Z"
    fill="#1D1D1B" />
  <path
    d="M69.3979 7.81919C68.0027 7.45858 67.8222 7.3101 67.8222 6.92121V6.9C67.8222 6.56768 68.1554 6.36263 68.676 6.36263C69.266 6.36263 69.9046 6.6101 70.6265 7.11919L70.7514 7.21111L71.8134 5.64141L71.7024 5.5495C70.8486 4.8495 69.8421 4.50303 68.6899 4.50303C66.9824 4.50303 65.7954 5.54949 65.7954 7.06262V7.0697C65.7954 8.81616 66.9754 9.25454 68.5094 9.65757C69.8699 10.0182 69.974 10.2303 69.974 10.5273V10.5485C69.974 10.9303 69.6131 11.1495 68.9953 11.1495C68.2179 11.1495 67.5029 10.8525 66.7464 10.2091L66.6284 10.1101L65.4206 11.5879L65.5317 11.6869C66.4618 12.5354 67.6765 13.002 68.9606 13.002C70.8069 13.002 71.9939 11.9697 71.9939 10.3717V10.3646C71.9939 8.81616 70.9527 8.22929 69.3979 7.81919Z"
    fill="#1D1D1B" />
  <path d="M107.935 4.60202H105.909V12.903H107.935V4.60202Z" fill="#1D1D1B" />
  <path
    d="M81.0521 4.53839L77.5607 12.8889H79.65L80.365 11.1H83.4746L84.1896 12.8889H86.3274L82.836 4.53839C82.843 4.53839 81.0521 4.53839 81.0521 4.53839ZM82.7388 9.24747H81.1077L81.9198 7.21818L82.7388 9.24747Z"
    fill="#1D1D1B" />
</svg>
