<svg width="340" height="200" viewBox="0 0 340 200" fill="none" xmlns="http://www.w3.org/2000/svg">
<path d="M0 64C0 33.8301 0 18.7452 9.37258 9.37258C18.7452 0 33.8301 0 64 0H276C306.17 0 321.255 0 330.627 9.37258C340 18.7452 340 33.8301 340 64V136C340 166.17 340 181.255 330.627 190.627C321.255 200 306.17 200 276 200H64C33.8301 200 18.7452 200 9.37258 190.627C0 181.255 0 166.17 0 136V64Z" fill="#232529"/>
<path d="M29.1339 77.7273H31.9006V87.7053C31.9006 88.799 31.642 89.761 31.125 90.5913C30.6129 91.4215 29.892 92.0703 28.9624 92.5376C28.0327 93 26.9464 93.2312 25.7035 93.2312C24.4556 93.2312 23.3668 93 22.4371 92.5376C21.5075 92.0703 20.7866 91.4215 20.2745 90.5913C19.7624 89.761 19.5064 88.799 19.5064 87.7053V77.7273H22.2731V87.4741C22.2731 88.1104 22.4123 88.6772 22.6907 89.1744C22.9741 89.6715 23.3718 90.0618 23.8839 90.3452C24.396 90.6236 25.0025 90.7628 25.7035 90.7628C26.4045 90.7628 27.011 90.6236 27.5231 90.3452C28.0401 90.0618 28.4379 89.6715 28.7163 89.1744C28.9947 88.6772 29.1339 88.1104 29.1339 87.4741V77.7273ZM37.488 86.2884V93H34.7884V81.5455H37.3687V83.4918H37.5029C37.7664 82.8505 38.1865 82.3409 38.7632 81.9631C39.3449 81.5852 40.0633 81.3963 40.9184 81.3963C41.7089 81.3963 42.3975 81.5653 42.9841 81.9034C43.5757 82.2415 44.0331 82.7312 44.3563 83.3725C44.6844 84.0138 44.846 84.7919 44.841 85.7067V93H42.1414V86.1243C42.1414 85.3587 41.9426 84.7596 41.5448 84.3271C41.1521 83.8945 40.6077 83.6783 39.9117 83.6783C39.4394 83.6783 39.0193 83.7827 38.6514 83.9915C38.2884 84.1953 38.0026 84.4911 37.7938 84.8789C37.5899 85.2667 37.488 85.7365 37.488 86.2884ZM51.836 93.2013C50.9362 93.2013 50.1308 92.9702 49.4198 92.5078C48.7089 92.0455 48.1471 91.3743 47.7345 90.4943C47.3218 89.6143 47.1155 88.5455 47.1155 87.2876C47.1155 86.0149 47.3243 84.9411 47.7419 84.0661C48.1645 83.1861 48.7338 82.5224 49.4497 82.0749C50.1656 81.6225 50.9635 81.3963 51.8435 81.3963C52.5146 81.3963 53.0665 81.5107 53.499 81.7393C53.9316 81.9631 54.2746 82.234 54.5281 82.5522C54.7817 82.8654 54.9781 83.1612 55.1173 83.4396H55.2291V77.7273H57.9362V93H55.2813V91.1953H55.1173C54.9781 91.4737 54.7767 91.7695 54.5132 92.0827C54.2497 92.391 53.9017 92.6545 53.4692 92.8732C53.0367 93.092 52.4923 93.2013 51.836 93.2013ZM52.5892 90.9865C53.161 90.9865 53.6482 90.8324 54.0509 90.5241C54.4536 90.2109 54.7593 89.7759 54.9681 89.2191C55.1769 88.6623 55.2813 88.0135 55.2813 87.2727C55.2813 86.532 55.1769 85.8881 54.9681 85.3413C54.7643 84.7944 54.461 84.3693 54.0583 84.0661C53.6606 83.7628 53.1709 83.6112 52.5892 83.6112C51.9877 83.6112 51.4855 83.7678 51.0828 84.081C50.6801 84.3942 50.3769 84.8267 50.173 85.3786C49.9692 85.9304 49.8673 86.5618 49.8673 87.2727C49.8673 87.9886 49.9692 88.6275 50.173 89.1893C50.3818 89.7461 50.6876 90.1861 51.0903 90.5092C51.498 90.8274 51.9976 90.9865 52.5892 90.9865ZM65.8839 93.2237C64.7354 93.2237 63.7436 92.9851 62.9084 92.5078C62.0781 92.0256 61.4393 91.3445 60.9918 90.4645C60.5444 89.5795 60.3207 88.538 60.3207 87.3398C60.3207 86.1616 60.5444 85.1275 60.9918 84.2376C61.4442 83.3427 62.0756 82.6467 62.886 82.1495C63.6964 81.6474 64.6484 81.3963 65.7422 81.3963C66.4482 81.3963 67.1143 81.5107 67.7408 81.7393C68.3722 81.9631 68.929 82.3111 69.4112 82.7834C69.8984 83.2557 70.2813 83.8572 70.5597 84.5881C70.8381 85.3139 70.9773 86.179 70.9773 87.1832V88.011H61.5884V86.1914H68.3896C68.3846 85.6744 68.2727 85.2145 68.054 84.8118C67.8352 84.4041 67.5295 84.0835 67.1367 83.8498C66.7489 83.6161 66.2965 83.4993 65.7795 83.4993C65.2276 83.4993 64.7429 83.6335 64.3253 83.902C63.9077 84.1655 63.582 84.5135 63.3484 84.946C63.1197 85.3736 63.0028 85.8434 62.9979 86.3555V87.9439C62.9979 88.6101 63.1197 89.1818 63.3633 89.6591C63.6069 90.1314 63.9474 90.4943 64.3849 90.7479C64.8224 90.9964 65.3345 91.1207 65.9212 91.1207C66.3139 91.1207 66.6694 91.0661 66.9876 90.9567C67.3058 90.8423 67.5817 90.6758 67.8153 90.457C68.049 90.2383 68.2255 89.9673 68.3448 89.6442L70.8654 89.9276C70.7063 90.5937 70.4031 91.1754 69.9556 91.6726C69.5131 92.1648 68.9464 92.5476 68.2553 92.821C67.5643 93.0895 66.7738 93.2237 65.8839 93.2237ZM73.2611 93V81.5455H75.8786V83.4545H75.998C76.2068 82.7933 76.5647 82.2837 77.0718 81.9258C77.5839 81.5629 78.1681 81.3814 78.8243 81.3814C78.9735 81.3814 79.14 81.3888 79.324 81.4038C79.5129 81.4137 79.6695 81.4311 79.7938 81.456V83.9393C79.6794 83.8995 79.498 83.8647 79.2494 83.8349C79.0058 83.8001 78.7696 83.7827 78.5409 83.7827C78.0487 83.7827 77.6063 83.8896 77.2135 84.1033C76.8257 84.3121 76.52 84.603 76.2963 84.9759C76.0725 85.3487 75.9607 85.7788 75.9607 86.266V93H73.2611ZM90.6405 84.5732L88.1796 84.8416C88.11 84.593 87.9882 84.3594 87.8142 84.1406C87.6452 83.9219 87.4165 83.7454 87.1281 83.6112C86.8398 83.4769 86.4868 83.4098 86.0692 83.4098C85.5074 83.4098 85.0351 83.5316 84.6523 83.7752C84.2744 84.0188 84.088 84.3345 84.093 84.7223C84.088 85.0554 84.2098 85.3263 84.4584 85.5352C84.7119 85.744 85.1295 85.9155 85.7112 86.0497L87.665 86.4673C88.7488 86.701 89.5542 87.0714 90.0812 87.5785C90.6132 88.0856 90.8817 88.7493 90.8866 89.5696C90.8817 90.2905 90.6704 90.9268 90.2528 91.4787C89.8401 92.0256 89.2659 92.4531 88.5301 92.7614C87.7943 93.0696 86.9491 93.2237 85.9946 93.2237C84.5926 93.2237 83.464 92.9304 82.6089 92.3438C81.7538 91.7521 81.2442 90.9293 81.0802 89.8754L83.7126 89.6218C83.8319 90.1388 84.0855 90.5291 84.4733 90.7926C84.8611 91.0561 85.3657 91.1879 85.9871 91.1879C86.6285 91.1879 87.143 91.0561 87.5308 90.7926C87.9236 90.5291 88.1199 90.2035 88.1199 89.8157C88.1199 89.4876 87.9932 89.2166 87.7396 89.0028C87.491 88.7891 87.1032 88.625 86.5763 88.5107L84.6224 88.1005C83.5237 87.8718 82.7108 87.4865 82.1839 86.9446C81.6569 86.3977 81.3959 85.7067 81.4008 84.8714C81.3959 84.1655 81.5873 83.554 81.9751 83.0369C82.3678 82.5149 82.9122 82.1122 83.6082 81.8288C84.3092 81.5405 85.1171 81.3963 86.0319 81.3963C87.3742 81.3963 88.4307 81.6822 89.2013 82.2539C89.9768 82.8256 90.4566 83.5987 90.6405 84.5732ZM98.8325 81.5455V83.6335H92.2476V81.5455H98.8325ZM93.8733 78.8011H96.5729V89.5547C96.5729 89.9176 96.6276 90.196 96.7369 90.3899C96.8513 90.5788 97.0004 90.7081 97.1844 90.7777C97.3683 90.8473 97.5722 90.8821 97.7959 90.8821C97.9649 90.8821 98.1191 90.8697 98.2583 90.8448C98.4024 90.82 98.5118 90.7976 98.5864 90.7777L99.0413 92.8881C98.8971 92.9379 98.6908 92.9925 98.4223 93.0522C98.1588 93.1119 97.8357 93.1467 97.4529 93.1566C96.7767 93.1765 96.1677 93.0746 95.6258 92.8509C95.0839 92.6222 94.6539 92.2692 94.3357 91.7919C94.0225 91.3146 93.8683 90.718 93.8733 90.0021V78.8011ZM104.386 93.2312C103.661 93.2312 103.007 93.1019 102.425 92.8434C101.848 92.5799 101.391 92.1921 101.053 91.68C100.72 91.168 100.553 90.5366 100.553 89.7859C100.553 89.1396 100.673 88.6051 100.911 88.1825C101.15 87.7599 101.475 87.4219 101.888 87.1683C102.301 86.9148 102.766 86.7234 103.283 86.5941C103.805 86.4599 104.344 86.3629 104.901 86.3033C105.572 86.2337 106.116 86.1715 106.534 86.1168C106.952 86.0572 107.255 85.9677 107.444 85.8484C107.638 85.7241 107.735 85.5327 107.735 85.2741V85.2294C107.735 84.6676 107.568 84.2326 107.235 83.9244C106.902 83.6161 106.422 83.462 105.796 83.462C105.135 83.462 104.61 83.6062 104.222 83.8945C103.839 84.1829 103.581 84.5234 103.447 84.9162L100.926 84.5582C101.125 83.8622 101.453 83.2805 101.911 82.8132C102.368 82.3409 102.927 81.9879 103.588 81.7543C104.25 81.5156 104.98 81.3963 105.781 81.3963C106.333 81.3963 106.882 81.4609 107.429 81.5902C107.976 81.7195 108.475 81.9332 108.928 82.2315C109.38 82.5249 109.743 82.9251 110.017 83.4322C110.295 83.9393 110.434 84.5732 110.434 85.3338V93H107.839V91.4265H107.75C107.586 91.7447 107.354 92.043 107.056 92.3214C106.763 92.5948 106.392 92.8161 105.945 92.9851C105.502 93.1491 104.983 93.2312 104.386 93.2312ZM105.087 91.2475C105.629 91.2475 106.099 91.1406 106.497 90.9268C106.895 90.7081 107.2 90.4197 107.414 90.0618C107.633 89.7038 107.742 89.3136 107.742 88.891V87.5412C107.658 87.6108 107.513 87.6754 107.31 87.7351C107.111 87.7947 106.887 87.8469 106.638 87.8917C106.39 87.9364 106.144 87.9762 105.9 88.011C105.657 88.0458 105.445 88.0756 105.266 88.1005C104.864 88.1552 104.503 88.2447 104.185 88.369C103.867 88.4933 103.616 88.6673 103.432 88.891C103.248 89.1097 103.156 89.3931 103.156 89.7411C103.156 90.2383 103.337 90.6136 103.7 90.8672C104.063 91.1207 104.526 91.2475 105.087 91.2475ZM115.848 86.2884V93H113.149V81.5455H115.729V83.4918H115.863C116.127 82.8505 116.547 82.3409 117.124 81.9631C117.705 81.5852 118.424 81.3963 119.279 81.3963C120.069 81.3963 120.758 81.5653 121.344 81.9034C121.936 82.2415 122.393 82.7312 122.717 83.3725C123.045 84.0138 123.206 84.7919 123.201 85.7067V93H120.502V86.1243C120.502 85.3587 120.303 84.7596 119.905 84.3271C119.512 83.8945 118.968 83.6783 118.272 83.6783C117.8 83.6783 117.38 83.7827 117.012 83.9915C116.649 84.1953 116.363 84.4911 116.154 84.8789C115.95 85.2667 115.848 85.7365 115.848 86.2884ZM130.196 93.2013C129.297 93.2013 128.491 92.9702 127.78 92.5078C127.069 92.0455 126.507 91.3743 126.095 90.4943C125.682 89.6143 125.476 88.5455 125.476 87.2876C125.476 86.0149 125.685 84.9411 126.102 84.0661C126.525 83.1861 127.094 82.5224 127.81 82.0749C128.526 81.6225 129.324 81.3963 130.204 81.3963C130.875 81.3963 131.427 81.5107 131.859 81.7393C132.292 81.9631 132.635 82.234 132.888 82.5522C133.142 82.8654 133.338 83.1612 133.478 83.4396H133.589V77.7273H136.297V93H133.642V91.1953H133.478C133.338 91.4737 133.137 91.7695 132.874 92.0827C132.61 92.391 132.262 92.6545 131.83 92.8732C131.397 93.092 130.853 93.2013 130.196 93.2013ZM130.95 90.9865C131.521 90.9865 132.009 90.8324 132.411 90.5241C132.814 90.2109 133.12 89.7759 133.328 89.2191C133.537 88.6623 133.642 88.0135 133.642 87.2727C133.642 86.532 133.537 85.8881 133.328 85.3413C133.125 84.7944 132.821 84.3693 132.419 84.0661C132.021 83.7628 131.531 83.6112 130.95 83.6112C130.348 83.6112 129.846 83.7678 129.443 84.081C129.04 84.3942 128.737 84.8267 128.533 85.3786C128.33 85.9304 128.228 86.5618 128.228 87.2727C128.228 87.9886 128.33 88.6275 128.533 89.1893C128.742 89.7461 129.048 90.1861 129.451 90.5092C129.858 90.8274 130.358 90.9865 130.95 90.9865ZM139.173 93V81.5455H141.873V93H139.173ZM140.53 79.9197C140.103 79.9197 139.735 79.7781 139.427 79.4947C139.119 79.2063 138.964 78.8608 138.964 78.4581C138.964 78.0504 139.119 77.7049 139.427 77.4215C139.735 77.1332 140.103 76.989 140.53 76.989C140.963 76.989 141.331 77.1332 141.634 77.4215C141.942 77.7049 142.097 78.0504 142.097 78.4581C142.097 78.8608 141.942 79.2063 141.634 79.4947C141.331 79.7781 140.963 79.9197 140.53 79.9197ZM147.348 86.2884V93H144.649V81.5455H147.229V83.4918H147.363C147.627 82.8505 148.047 82.3409 148.624 81.9631C149.205 81.5852 149.924 81.3963 150.779 81.3963C151.569 81.3963 152.258 81.5653 152.844 81.9034C153.436 82.2415 153.893 82.7312 154.217 83.3725C154.545 84.0138 154.706 84.7919 154.701 85.7067V93H152.002V86.1243C152.002 85.3587 151.803 84.7596 151.405 84.3271C151.012 83.8945 150.468 83.6783 149.772 83.6783C149.3 83.6783 148.88 83.7827 148.512 83.9915C148.149 84.1953 147.863 84.4911 147.654 84.8789C147.45 85.2667 147.348 85.7365 147.348 86.2884ZM162.427 97.5341C161.458 97.5341 160.625 97.4023 159.929 97.1388C159.233 96.8803 158.674 96.5323 158.251 96.0948C157.828 95.6573 157.535 95.1726 157.371 94.6406L159.802 94.0515C159.912 94.2752 160.071 94.4964 160.279 94.7152C160.488 94.9389 160.769 95.1229 161.122 95.267C161.48 95.4162 161.93 95.4908 162.472 95.4908C163.238 95.4908 163.871 95.3043 164.374 94.9315C164.876 94.5636 165.127 93.957 165.127 93.1119V90.9418H164.993C164.853 91.2202 164.65 91.506 164.381 91.7994C164.118 92.0927 163.767 92.3388 163.33 92.5376C162.897 92.7365 162.353 92.8359 161.696 92.8359C160.816 92.8359 160.018 92.6296 159.303 92.217C158.592 91.7994 158.025 91.1779 157.602 90.3526C157.185 89.5224 156.976 88.4833 156.976 87.2354C156.976 85.9776 157.185 84.9162 157.602 84.0511C158.025 83.1811 158.594 82.5224 159.31 82.0749C160.026 81.6225 160.824 81.3963 161.704 81.3963C162.375 81.3963 162.927 81.5107 163.359 81.7393C163.797 81.9631 164.145 82.234 164.403 82.5522C164.662 82.8654 164.858 83.1612 164.993 83.4396H165.142V81.5455H167.804V93.1864C167.804 94.1658 167.57 94.9762 167.103 95.6175C166.636 96.2589 165.997 96.7386 165.186 97.0568C164.376 97.375 163.456 97.5341 162.427 97.5341ZM162.45 90.718C163.021 90.718 163.509 90.5788 163.911 90.3004C164.314 90.022 164.62 89.6218 164.828 89.0998C165.037 88.5778 165.142 87.9513 165.142 87.2205C165.142 86.4996 165.037 85.8683 164.828 85.3263C164.625 84.7844 164.321 84.3643 163.919 84.0661C163.521 83.7628 163.031 83.6112 162.45 83.6112C161.848 83.6112 161.346 83.7678 160.943 84.081C160.54 84.3942 160.237 84.8242 160.033 85.3711C159.83 85.913 159.728 86.5295 159.728 87.2205C159.728 87.9215 159.83 88.5355 160.033 89.0625C160.242 89.5845 160.548 89.9922 160.951 90.2855C161.358 90.5739 161.858 90.718 162.45 90.718ZM19.5064 106.727H22.892L27.4261 117.794H27.6051L32.1392 106.727H35.5249V122H32.87V111.507H32.7283L28.5075 121.955H26.5238L22.3029 111.485H22.1612V122H19.5064V106.727ZM43.4893 122.224C42.3409 122.224 41.3491 121.985 40.5138 121.508C39.6836 121.026 39.0447 120.344 38.5973 119.464C38.1499 118.58 37.9261 117.538 37.9261 116.34C37.9261 115.162 38.1499 114.127 38.5973 113.238C39.0497 112.343 39.6811 111.647 40.4915 111.15C41.3018 110.647 42.2539 110.396 43.3477 110.396C44.0536 110.396 44.7198 110.511 45.3462 110.739C45.9776 110.963 46.5344 111.311 47.0167 111.783C47.5039 112.256 47.8867 112.857 48.1651 113.588C48.4435 114.314 48.5827 115.179 48.5827 116.183V117.011H39.1939V115.191H45.995C45.9901 114.674 45.8782 114.214 45.6594 113.812C45.4407 113.404 45.1349 113.083 44.7422 112.85C44.3544 112.616 43.902 112.499 43.3849 112.499C42.8331 112.499 42.3484 112.634 41.9308 112.902C41.5131 113.165 41.1875 113.513 40.9538 113.946C40.7251 114.374 40.6083 114.843 40.6033 115.355V116.944C40.6033 117.61 40.7251 118.182 40.9688 118.659C41.2124 119.131 41.5529 119.494 41.9904 119.748C42.4279 119.996 42.94 120.121 43.5266 120.121C43.9194 120.121 44.2749 120.066 44.593 119.957C44.9112 119.842 45.1871 119.676 45.4208 119.457C45.6545 119.238 45.831 118.967 45.9503 118.644L48.4709 118.928C48.3118 119.594 48.0085 120.175 47.5611 120.673C47.1186 121.165 46.5518 121.548 45.8608 121.821C45.1697 122.089 44.3793 122.224 43.4893 122.224ZM56.5864 110.545V112.634H50.0015V110.545H56.5864ZM51.6272 107.801H54.3268V118.555C54.3268 118.918 54.3815 119.196 54.4909 119.39C54.6052 119.579 54.7544 119.708 54.9383 119.778C55.1222 119.847 55.3261 119.882 55.5498 119.882C55.7188 119.882 55.873 119.87 56.0122 119.845C56.1563 119.82 56.2657 119.798 56.3403 119.778L56.7952 121.888C56.651 121.938 56.4447 121.993 56.1762 122.052C55.9127 122.112 55.5896 122.147 55.2068 122.157C54.5306 122.176 53.9216 122.075 53.3797 121.851C52.8378 121.622 52.4078 121.269 52.0896 120.792C51.7764 120.315 51.6222 119.718 51.6272 119.002V107.801ZM62.1403 122.231C61.4144 122.231 60.7607 122.102 60.179 121.843C59.6023 121.58 59.1449 121.192 58.8068 120.68C58.4737 120.168 58.3072 119.537 58.3072 118.786C58.3072 118.14 58.4265 117.605 58.6651 117.183C58.9038 116.76 59.2294 116.422 59.642 116.168C60.0547 115.915 60.5195 115.723 61.0366 115.594C61.5586 115.46 62.098 115.363 62.6548 115.303C63.326 115.234 63.8704 115.172 64.288 115.117C64.7056 115.057 65.0089 114.968 65.1978 114.848C65.3917 114.724 65.4886 114.533 65.4886 114.274V114.229C65.4886 113.668 65.3221 113.233 64.989 112.924C64.6559 112.616 64.1761 112.462 63.5497 112.462C62.8885 112.462 62.364 112.606 61.9762 112.895C61.5934 113.183 61.3349 113.523 61.2006 113.916L58.68 113.558C58.8789 112.862 59.207 112.281 59.6644 111.813C60.1218 111.341 60.6811 110.988 61.3423 110.754C62.0036 110.516 62.7344 110.396 63.5348 110.396C64.0866 110.396 64.636 110.461 65.1829 110.59C65.7298 110.719 66.2294 110.933 66.6818 111.232C67.1342 111.525 67.4972 111.925 67.7706 112.432C68.049 112.939 68.1882 113.573 68.1882 114.334V122H65.593V120.426H65.5036C65.3395 120.745 65.1083 121.043 64.81 121.321C64.5167 121.595 64.1463 121.816 63.6989 121.985C63.2564 122.149 62.7369 122.231 62.1403 122.231ZM62.8413 120.248C63.3832 120.248 63.853 120.141 64.2507 119.927C64.6484 119.708 64.9542 119.42 65.168 119.062C65.3867 118.704 65.4961 118.314 65.4961 117.891V116.541C65.4116 116.611 65.2674 116.675 65.0636 116.735C64.8647 116.795 64.641 116.847 64.3924 116.892C64.1438 116.936 63.8977 116.976 63.6541 117.011C63.4105 117.046 63.1992 117.076 63.0202 117.1C62.6175 117.155 62.2571 117.245 61.9389 117.369C61.6207 117.493 61.3697 117.667 61.1857 117.891C61.0018 118.11 60.9098 118.393 60.9098 118.741C60.9098 119.238 61.0913 119.614 61.4542 119.867C61.8171 120.121 62.2795 120.248 62.8413 120.248ZM70.9027 126.295V110.545H73.5575V112.44H73.7141C73.8533 112.161 74.0497 111.865 74.3033 111.552C74.5568 111.234 74.8999 110.963 75.3324 110.739C75.7649 110.511 76.3168 110.396 76.9879 110.396C77.8729 110.396 78.6708 110.623 79.3817 111.075C80.0977 111.522 80.6644 112.186 81.082 113.066C81.5046 113.941 81.7159 115.015 81.7159 116.288C81.7159 117.545 81.5096 118.614 81.0969 119.494C80.6843 120.374 80.1225 121.045 79.4116 121.508C78.7006 121.97 77.8952 122.201 76.9954 122.201C76.3391 122.201 75.7947 122.092 75.3622 121.873C74.9297 121.654 74.5817 121.391 74.3182 121.083C74.0597 120.77 73.8583 120.474 73.7141 120.195H73.6023V126.295H70.9027ZM73.5501 116.273C73.5501 117.013 73.6545 117.662 73.8633 118.219C74.0771 118.776 74.3828 119.211 74.7805 119.524C75.1832 119.832 75.6705 119.987 76.2422 119.987C76.8388 119.987 77.3384 119.827 77.7411 119.509C78.1438 119.186 78.4471 118.746 78.6509 118.189C78.8597 117.627 78.9641 116.989 78.9641 116.273C78.9641 115.562 78.8622 114.93 78.6584 114.379C78.4545 113.827 78.1513 113.394 77.7486 113.081C77.3459 112.768 76.8438 112.611 76.2422 112.611C75.6655 112.611 75.1758 112.763 74.7731 113.066C74.3704 113.369 74.0646 113.794 73.8558 114.341C73.652 114.888 73.5501 115.532 73.5501 116.273ZM86.7273 106.727V122H84.0277V106.727H86.7273ZM94.5743 122.224C93.4259 122.224 92.434 121.985 91.5988 121.508C90.7686 121.026 90.1297 120.344 89.6823 119.464C89.2348 118.58 89.0111 117.538 89.0111 116.34C89.0111 115.162 89.2348 114.127 89.6823 113.238C90.1347 112.343 90.7661 111.647 91.5764 111.15C92.3868 110.647 93.3389 110.396 94.4326 110.396C95.1386 110.396 95.8048 110.511 96.4312 110.739C97.0626 110.963 97.6194 111.311 98.1017 111.783C98.5889 112.256 98.9717 112.857 99.2501 113.588C99.5285 114.314 99.6677 115.179 99.6677 116.183V117.011H90.2789V115.191H97.08C97.075 114.674 96.9632 114.214 96.7444 113.812C96.5257 113.404 96.2199 113.083 95.8271 112.85C95.4394 112.616 94.9869 112.499 94.4699 112.499C93.9181 112.499 93.4333 112.634 93.0157 112.902C92.5981 113.165 92.2725 113.513 92.0388 113.946C91.8101 114.374 91.6933 114.843 91.6883 115.355V116.944C91.6883 117.61 91.8101 118.182 92.0537 118.659C92.2973 119.131 92.6379 119.494 93.0754 119.748C93.5129 119.996 94.0249 120.121 94.6116 120.121C95.0044 120.121 95.3598 120.066 95.678 119.957C95.9962 119.842 96.2721 119.676 96.5058 119.457C96.7394 119.238 96.9159 118.967 97.0352 118.644L99.5558 118.928C99.3968 119.594 99.0935 120.175 98.646 120.673C98.2036 121.165 97.6368 121.548 96.9458 121.821C96.2547 122.089 95.4642 122.224 94.5743 122.224ZM103.913 110.545L106.225 114.774L108.574 110.545H111.43L107.977 116.273L111.49 122H108.648L106.225 117.876L103.823 122H100.96L104.45 116.273L101.049 110.545H103.913Z" fill="#E4E4E4"/>
<g clip-path="url(#clip0_673_481)">
<path d="M313.701 130.508C314.544 131.951 313.504 133.764 311.832 133.764H293.026C292.258 133.764 291.547 133.357 291.159 132.694L254.666 70.4135C253.821 68.9705 254.861 67.1546 256.534 67.1546H275.445C276.214 67.1546 276.926 67.563 277.314 68.2272L313.701 130.508Z" fill="white"/>
<path d="M263.059 113.578C263.492 114.308 263.459 115.222 262.975 115.919L252.511 130.982C251.609 132.28 249.665 132.205 248.866 130.842L213.459 70.4135C212.613 68.9705 213.654 67.1546 215.326 67.1546H234.248C235.011 67.1546 235.719 67.5571 236.109 68.2136L263.059 113.578Z" fill="white"/>
<path d="M230.25 129.906C231.105 131.349 230.066 133.175 228.388 133.175H215.413C214.218 133.175 213.249 132.206 213.249 131.01V109.139C213.249 106.937 216.152 106.141 217.275 108.034L230.25 129.906Z" fill="white"/>
</g>
<defs>
<clipPath id="clip0_673_481">
<rect width="101" height="66.8784" fill="white" transform="translate(213 67)"/>
</clipPath>
</defs>
</svg>
