<svg width="66" height="18" viewBox="0 0 66 18" fill="none" xmlns="http://www.w3.org/2000/svg">
<g clip-path="url(#clip0_28_285)">
<path d="M0 9C0 6.61305 0.948211 4.32387 2.63604 2.63604C4.32387 0.948211 6.61305 0 9 0C11.3869 0 13.6761 0.948211 15.364 2.63604C17.0518 4.32387 18 6.61305 18 9C18 11.3869 17.0518 13.6761 15.364 15.364C13.6761 17.0518 11.3869 18 9 18C6.61305 18 4.32387 17.0518 2.63604 15.364C0.948211 13.6761 0 11.3869 0 9ZM10.9634 11.9452V13.9086H12.9267V4.0914H9V6.05475H10.9634V9.98145H7.03665V8.0181H5.0733V13.9086H7.03665V11.9452H10.9634ZM9 8.01855V6.0552H7.03665V8.0181L9 8.01855Z" fill="#6640FE"/>
<path d="M38.9408 10.4517C38.9038 10.0359 38.9561 9.61706 39.0943 9.22286C39.2325 8.82865 39.4534 8.46811 39.7425 8.16511C40.0315 7.86211 40.3821 7.62357 40.771 7.46529C41.1598 7.30701 41.5781 7.23259 41.9981 7.24698C42.3961 7.2229 42.7947 7.28257 43.1679 7.42209C43.5411 7.56161 43.8804 7.77783 44.1636 8.0566C44.4469 8.33537 44.6677 8.67041 44.8115 9.03979C44.9554 9.40918 45.0191 9.80457 44.9985 10.2001C45.0087 10.2744 45.002 10.3499 44.9788 10.4213C44.9556 10.4926 44.9166 10.5578 44.8647 10.6122C44.8127 10.6665 44.7492 10.7086 44.6787 10.7353C44.6081 10.7619 44.5325 10.7725 44.4573 10.7663H39.9513C39.9558 11.0507 40.0185 11.3312 40.1355 11.5908C40.2525 11.8504 40.4214 12.0837 40.632 12.2765C40.8425 12.4693 41.0903 12.6176 41.3602 12.7124C41.6302 12.8072 41.9168 12.8465 42.2025 12.828C42.5433 12.8497 42.8839 12.7819 43.1899 12.6313C43.4959 12.4807 43.7566 12.2526 43.9456 11.9701C43.9933 11.8869 44.0611 11.8167 44.1429 11.7659C44.2247 11.7151 44.3179 11.6853 44.4141 11.6792C44.4701 11.6734 44.5267 11.6803 44.5797 11.6992C44.6326 11.7181 44.6806 11.7485 44.7202 11.7883C44.7597 11.8281 44.7897 11.8763 44.808 11.9291C44.8263 11.982 44.8324 12.0383 44.8258 12.0938C44.8156 12.2734 44.7553 12.4467 44.6516 12.5942C44.3704 12.9751 43.9974 13.2798 43.5669 13.4805C43.1364 13.6812 42.6621 13.7715 42.1874 13.743C41.7481 13.7703 41.3081 13.7033 40.8973 13.5466C40.4864 13.3899 40.1143 13.1471 39.8063 12.8349C39.4983 12.5226 39.2616 12.1482 39.1122 11.7369C38.9629 11.3257 38.9044 10.8874 38.9408 10.4517ZM39.9549 9.88413H44.0039C43.994 9.63208 43.9328 9.38463 43.8239 9.15674C43.7151 8.92884 43.5608 8.72523 43.3705 8.55819C43.1803 8.39116 42.9579 8.26417 42.7168 8.1849C42.4757 8.10562 42.2209 8.07571 41.9679 8.09696C41.7163 8.0772 41.4633 8.10832 41.2242 8.18841C40.9851 8.26851 40.7648 8.39593 40.5766 8.56297C40.3885 8.73002 40.2364 8.93322 40.1295 9.16029C40.0226 9.38737 39.9632 9.63361 39.9549 9.88413ZM34.4557 11.9022V8.31571H33.3214C33.2605 8.31797 33.1998 8.30782 33.143 8.28589C33.0862 8.26395 33.0345 8.23069 32.9912 8.18816C32.9478 8.14563 32.9137 8.09472 32.8909 8.03859C32.8681 7.98245 32.8571 7.92228 32.8586 7.86177C32.8573 7.80159 32.8684 7.74178 32.8914 7.68607C32.9143 7.63036 32.9485 7.57994 32.992 7.53795C33.0354 7.49597 33.087 7.46332 33.1437 7.44203C33.2004 7.42075 33.2609 7.4113 33.3214 7.41426H34.4557V6.25545C34.4527 6.18962 34.4634 6.12387 34.4871 6.06233C34.5109 6.00079 34.5472 5.94479 34.5937 5.89782C34.6402 5.85085 34.6961 5.81392 34.7576 5.78936C34.8192 5.76479 34.8852 5.75311 34.9515 5.75505C35.0173 5.7532 35.0827 5.76504 35.1436 5.78979C35.2045 5.81455 35.2596 5.85168 35.3052 5.8988C35.3508 5.94591 35.386 6.00198 35.4085 6.0634C35.431 6.12482 35.4403 6.19024 35.4359 6.25545V7.41569H37.3791C37.4394 7.41335 37.4996 7.42324 37.5559 7.44476C37.6123 7.46627 37.6637 7.49896 37.7069 7.54083C37.7501 7.5827 37.7843 7.63288 37.8074 7.6883C37.8305 7.74372 37.8419 7.80323 37.8411 7.8632C37.8421 7.92351 37.8308 7.98339 37.8079 8.03924C37.7849 8.09509 37.7509 8.14575 37.7077 8.18817C37.6645 8.23059 37.6131 8.26388 37.5567 8.28605C37.5002 8.30821 37.4398 8.31879 37.3791 8.31714H35.4359V11.785C35.4183 11.9133 35.4291 12.0439 35.4673 12.1677C35.5055 12.2915 35.5704 12.4056 35.6574 12.502C35.7444 12.5985 35.8514 12.675 35.9711 12.7264C36.0908 12.7777 36.2203 12.8026 36.3506 12.7994C36.6801 12.7825 36.9915 12.6447 37.2243 12.4126C37.3332 12.3059 37.4775 12.2421 37.6302 12.2332C37.6827 12.2332 37.7346 12.2438 37.7829 12.2643C37.8311 12.2847 37.8747 12.3146 37.9111 12.3522C37.9474 12.3898 37.9758 12.4342 37.9944 12.4829C38.0131 12.5317 38.0216 12.5836 38.0196 12.6357C38.0077 12.7483 37.9731 12.8573 37.9178 12.9563C37.8626 13.0553 37.7878 13.1422 37.6979 13.2118C37.297 13.5568 36.7839 13.746 36.2535 13.7444C36.0097 13.755 35.7665 13.7141 35.5398 13.6246C35.313 13.535 35.108 13.3987 34.9382 13.2248C34.7683 13.0508 34.6375 12.843 34.5543 12.6152C34.4712 12.3874 34.4375 12.1439 34.4557 11.9022ZM61.6236 13.1053C61.3013 12.8613 61.0869 12.5025 61.0255 12.1045C61.0229 12.0486 61.032 11.9927 61.0523 11.9405C61.0726 11.8882 61.1037 11.8408 61.1435 11.8012C61.1833 11.7615 61.2311 11.7306 61.2836 11.7103C61.3362 11.6901 61.3924 11.6809 61.4487 11.6835C61.6466 11.6835 61.7704 11.7843 62.0086 12.0981C62.2034 12.3558 62.4592 12.5618 62.7534 12.6976C63.0476 12.8334 63.371 12.8949 63.6949 12.8766C64.5355 12.8766 65.0429 12.5349 65.0429 11.9294C65.0429 11.419 64.6989 11.0658 64.0619 10.955L63.0407 10.7706C61.8287 10.5461 61.2134 9.95204 61.2134 9.04488C61.2134 7.92467 62.1216 7.24626 63.5315 7.24626C64.2078 7.21734 64.8751 7.40834 65.4323 7.79028C65.5887 7.89823 65.7204 8.03788 65.8187 8.20003C65.9169 8.36218 65.9795 8.54315 66.0023 8.73105C66.0054 8.7852 65.9974 8.83941 65.9786 8.89035C65.9599 8.9413 65.9308 8.98789 65.8933 9.02727C65.8557 9.06664 65.8105 9.09797 65.7603 9.11932C65.7101 9.14066 65.656 9.15158 65.6014 9.15139C65.3984 9.15139 65.2351 9.00842 65.0098 8.73105C64.8269 8.51637 64.5959 8.34726 64.3353 8.23727C64.0747 8.12728 63.7918 8.07947 63.5092 8.09767C62.7305 8.09767 62.2303 8.42222 62.2303 8.97196C62.2303 9.4595 62.6017 9.76761 63.3293 9.88985L64.3678 10.0807C65.4956 10.283 66.0591 10.8671 66.0591 11.8229C66.0591 13.0381 65.1624 13.7437 63.6791 13.7437C62.9393 13.7795 62.2107 13.5536 61.6229 13.106L61.6236 13.1053ZM25.7933 13.3798L25.0261 11.4983H20.844L20.0768 13.3798C20.0409 13.4822 19.9722 13.5701 19.8812 13.6299C19.7901 13.6897 19.6819 13.7181 19.573 13.7108C19.5062 13.7115 19.4399 13.6991 19.3779 13.6743C19.3159 13.6495 19.2594 13.6128 19.2117 13.5663C19.164 13.5199 19.1259 13.4645 19.0998 13.4035C19.0736 13.3424 19.0598 13.2768 19.0591 13.2104C19.0621 13.0966 19.0865 12.9843 19.1311 12.8794L21.9379 6.1518C22.1639 5.59134 22.4338 5.33971 22.9361 5.33971C23.4385 5.33971 23.7091 5.59134 23.9394 6.1518L26.7369 12.8794C26.7812 12.9844 26.8056 13.0966 26.8088 13.2104C26.8089 13.277 26.7955 13.3429 26.7696 13.4043C26.7436 13.4656 26.7056 13.5212 26.6577 13.5678C26.6099 13.6144 26.5532 13.6511 26.4909 13.6756C26.4286 13.7002 26.362 13.7122 26.295 13.7108C26.1866 13.7169 26.0791 13.688 25.9886 13.6285C25.8981 13.569 25.8294 13.482 25.7926 13.3806L25.7933 13.3798ZM21.2499 10.5003H24.6231L22.9361 6.34839L21.2499 10.5003ZM46.3998 13.1968V7.79528C46.3968 7.72944 46.4075 7.6637 46.4313 7.60216C46.455 7.54062 46.4913 7.48462 46.5378 7.43764C46.5844 7.39067 46.6402 7.35375 46.7018 7.32919C46.7633 7.30462 46.8293 7.29294 46.8957 7.29488C46.9614 7.29303 47.0269 7.30487 47.0878 7.32962C47.1487 7.35438 47.2037 7.39151 47.2493 7.43863C47.2949 7.48574 47.3301 7.54181 47.3526 7.60323C47.3751 7.66465 47.3845 7.73007 47.38 7.79528V8.35074C47.5768 7.99175 47.8735 7.69672 48.2348 7.50096C48.596 7.3052 49.0064 7.21702 49.4168 7.24698C49.8561 7.2162 50.2945 7.31926 50.6733 7.5424C51.0522 7.76555 51.3535 8.09817 51.537 8.49585C51.753 8.08738 52.0852 7.75111 52.4924 7.52901C52.8995 7.30692 53.3635 7.20882 53.8264 7.24698C55.2989 7.24698 56.2338 8.19418 56.2338 9.88556V13.2018C56.2357 13.2666 56.2244 13.3311 56.2005 13.3913C56.1766 13.4516 56.1406 13.5064 56.0947 13.5524C56.0487 13.5984 55.9939 13.6347 55.9334 13.659C55.873 13.6833 55.8081 13.6951 55.7429 13.6937C55.6781 13.6948 55.6137 13.6828 55.5537 13.6583C55.4937 13.6338 55.4394 13.5975 55.3941 13.5514C55.3487 13.5054 55.3133 13.4506 55.29 13.3905C55.2667 13.3304 55.256 13.2662 55.2586 13.2018V10.0929C55.2586 8.76536 54.649 8.16273 53.6565 8.16273C52.505 8.16273 51.8069 9.00913 51.8069 10.2416V13.2054C51.8089 13.2702 51.7975 13.3346 51.7736 13.3949C51.7497 13.4552 51.7137 13.51 51.6678 13.556C51.6219 13.602 51.567 13.6383 51.5065 13.6625C51.4461 13.6868 51.3813 13.6986 51.3161 13.6972C51.2512 13.6984 51.1868 13.6863 51.1269 13.6619C51.0669 13.6374 51.0125 13.601 50.9672 13.555C50.9218 13.509 50.8864 13.4542 50.8631 13.3941C50.8398 13.334 50.8291 13.2698 50.8317 13.2054V10.0964C50.8317 8.76893 50.2178 8.1663 49.2304 8.1663C48.0738 8.1663 47.38 9.01271 47.38 10.2444V13.2026C47.3839 13.2676 47.3742 13.3328 47.3515 13.394C47.3288 13.4552 47.2936 13.511 47.2481 13.558C47.2026 13.605 47.1478 13.6422 47.0871 13.6671C47.0265 13.6921 46.9613 13.7043 46.8957 13.703C46.829 13.7046 46.7626 13.6926 46.7008 13.6676C46.639 13.6426 46.583 13.6053 46.5364 13.5578C46.4898 13.5104 46.4535 13.4539 46.4299 13.3919C46.4063 13.3299 46.3958 13.2638 46.3991 13.1976L46.3998 13.1968ZM58.2173 13.1968V7.796C58.2143 7.73016 58.225 7.66441 58.2487 7.60288C58.2725 7.54134 58.3088 7.48533 58.3553 7.43836C58.4019 7.39139 58.4577 7.35447 58.5192 7.3299C58.5808 7.30533 58.6468 7.29365 58.7131 7.29559C58.7789 7.29376 58.8444 7.30559 58.9053 7.33034C58.9663 7.35509 59.0213 7.3922 59.067 7.43931C59.1127 7.48642 59.1479 7.54247 59.1705 7.6039C59.1931 7.66532 59.2025 7.73075 59.1982 7.796V13.1968C59.2016 13.2619 59.1915 13.3269 59.1685 13.3879C59.1456 13.4488 59.1103 13.5045 59.0648 13.5514C59.0193 13.5983 58.9647 13.6355 58.9042 13.6605C58.8437 13.6856 58.7787 13.6981 58.7131 13.6972C58.6468 13.6986 58.5809 13.6866 58.5195 13.6618C58.458 13.637 58.4023 13.6001 58.3558 13.5531C58.3092 13.5062 58.2728 13.4504 58.2487 13.389C58.2247 13.3276 58.2135 13.262 58.2158 13.1961L58.2173 13.1968ZM28.0849 13.1968V7.796C28.0819 7.73016 28.0926 7.66441 28.1163 7.60288C28.1401 7.54134 28.1764 7.48533 28.2229 7.43836C28.2695 7.39139 28.3253 7.35447 28.3868 7.3299C28.4484 7.30533 28.5144 7.29365 28.5807 7.29559C28.6465 7.29375 28.712 7.30558 28.7729 7.33034C28.8338 7.35509 28.8888 7.39222 28.9344 7.43934C28.98 7.48646 29.0152 7.54253 29.0377 7.60395C29.0602 7.66537 29.0695 7.73078 29.0651 7.796V8.26638C29.2308 7.95169 29.4819 7.6894 29.79 7.50922C30.0981 7.32905 30.4508 7.2382 30.8082 7.24698C31.2353 7.22391 31.655 7.36409 31.9813 7.63873C32.0653 7.70853 32.1339 7.79489 32.1825 7.89235C32.2312 7.9898 32.259 8.09623 32.2642 8.2049C32.2705 8.27064 32.2627 8.33698 32.2413 8.3995C32.2199 8.46203 32.1854 8.51932 32.14 8.56758C32.0946 8.61584 32.0394 8.65397 31.978 8.67944C31.9167 8.70491 31.8506 8.71714 31.7841 8.71532C31.7021 8.70928 31.622 8.68723 31.5485 8.65043C31.475 8.61363 31.4096 8.5628 31.3559 8.50086C31.14 8.29704 30.8527 8.18473 30.5549 8.18775C29.6804 8.18775 29.0651 9.12851 29.0651 10.2995V13.1954C29.069 13.2605 29.0593 13.3257 29.0366 13.3869C29.0139 13.448 28.9786 13.5039 28.9331 13.5509C28.8877 13.5979 28.8329 13.635 28.7722 13.66C28.7116 13.6849 28.6464 13.6971 28.5807 13.6958C28.5144 13.6976 28.4485 13.6859 28.3869 13.6614C28.3254 13.6368 28.2696 13.6 28.223 13.5531C28.1763 13.5063 28.1399 13.4504 28.1159 13.389C28.0919 13.3276 28.0808 13.2619 28.0834 13.1961L28.0849 13.1968ZM57.9589 5.74504C57.9581 5.64646 57.9772 5.54872 58.015 5.45757C58.0528 5.36642 58.1086 5.28371 58.1791 5.2143C58.2496 5.14489 58.3333 5.09019 58.4254 5.05341C58.5175 5.01663 58.6161 4.99852 58.7153 5.00014C58.8143 4.9982 58.9126 5.01612 59.0044 5.05282C59.0962 5.08952 59.1796 5.14426 59.2497 5.21374C59.3197 5.28322 59.3749 5.36603 59.4119 5.4572C59.4489 5.54837 59.4671 5.64603 59.4652 5.74432C59.4673 5.84297 59.4493 5.94101 59.4124 6.03261C59.3755 6.12422 59.3204 6.20752 59.2505 6.27755C59.1805 6.34758 59.0971 6.40292 59.0051 6.44026C58.9132 6.47761 58.8146 6.4962 58.7153 6.49494C58.6156 6.49657 58.5165 6.47831 58.424 6.44124C58.3315 6.40417 58.2474 6.34904 58.1768 6.27911C58.1061 6.20919 58.0503 6.12589 58.0126 6.03416C57.9749 5.94242 57.9562 5.84411 57.9575 5.74504H57.9589Z" fill="#313535"/>
</g>
<defs>
<clipPath id="clip0_28_285">
<rect width="66" height="18" fill="white"/>
</clipPath>
</defs>
</svg>
