<svg width="272" height="173" viewBox="0 0 272 173" fill="none" xmlns="http://www.w3.org/2000/svg">
<g clip-path="url(#clip0_1924_2208)">
<rect width="272" height="173" rx="16" fill="white"/>
<g filter="url(#filter0_f_1924_2208)">
<ellipse cx="134.5" cy="87" rx="75.5" ry="57" fill="white"/>
</g>
<g filter="url(#filter1_f_1924_2208)">
<circle cx="224" cy="46" r="5" fill="#D9D9D9"/>
<circle cx="224" cy="46" r="5" fill="url(#paint0_radial_1924_2208)"/>
<circle cx="224" cy="46" r="5" fill="url(#paint1_radial_1924_2208)"/>
</g>
<g filter="url(#filter2_f_1924_2208)">
<circle cx="253" cy="23" r="3" fill="#D9D9D9"/>
<circle cx="253" cy="23" r="3" fill="url(#paint2_radial_1924_2208)"/>
<circle cx="253" cy="23" r="3" fill="url(#paint3_radial_1924_2208)"/>
</g>
<circle cx="32" cy="113" r="10" fill="url(#paint4_radial_1924_2208)"/>
<circle cx="32" cy="113" r="10" fill="url(#paint5_radial_1924_2208)"/>
<g filter="url(#filter3_f_1924_2208)">
<circle cx="62.5" cy="19.5" r="6.5" fill="url(#paint6_radial_1924_2208)"/>
<circle cx="62.5" cy="19.5" r="6.5" fill="url(#paint7_radial_1924_2208)"/>
</g>
<g filter="url(#filter4_f_1924_2208)">
<circle cx="22.5" cy="9.5" r="3.5" fill="url(#paint8_radial_1924_2208)"/>
<circle cx="22.5" cy="9.5" r="3.5" fill="url(#paint9_radial_1924_2208)"/>
</g>
<circle cx="173.5" cy="50.5" r="8.5" fill="#D9D9D9"/>
<circle cx="173.5" cy="50.5" r="8.5" fill="url(#paint10_radial_1924_2208)"/>
<circle cx="89.5" cy="100.5" r="12.5" fill="#D9D9D9"/>
<circle cx="89.5" cy="100.5" r="12.5" fill="url(#paint11_radial_1924_2208)"/>
<circle cx="181.5" cy="90.5" r="12.5" fill="#D9D9D9"/>
<circle cx="181.5" cy="90.5" r="12.5" fill="url(#paint12_radial_1924_2208)"/>
<g filter="url(#filter5_b_1924_2208)">
<rect x="72" y="40" width="128" height="80" rx="8" fill="white"/>
<rect x="74" y="42" width="124" height="76" rx="6" stroke="#5B6B92" stroke-width="4"/>
</g>
<rect x="126" y="120" width="20" height="12" fill="#C4CDE5"/>
<rect x="112" y="132" width="48" height="2" rx="1" fill="#B7C3E1"/>
<rect x="84.5" y="52.5" width="49" height="55" rx="1.5" fill="#0D0E3B" fill-opacity="0.78" stroke="#232457"/>
<rect x="137" y="52" width="51" height="56" rx="2" fill="#DBE4FB"/>
<circle cx="195.5" cy="120.5" r="16.5" fill="#D9D9D9"/>
<circle cx="195.5" cy="120.5" r="16.5" fill="url(#paint13_radial_1924_2208)"/>
<circle cx="195.5" cy="120.5" r="16.5" fill="url(#paint14_radial_1924_2208)"/>
<circle cx="87.5" cy="55.5" r="0.5" fill="#F6A2A2"/>
<circle cx="89.5" cy="55.5" r="0.5" fill="#F6A2A2"/>
<circle cx="91.5" cy="55.5" r="0.5" fill="#F6A2A2"/>
<rect x="87" y="59" width="1" height="1" rx="0.5" fill="#8283AD"/>
<rect x="90" y="59" width="6" height="1" fill="#8283AD"/>
<rect x="90" y="83" width="6" height="1" fill="#8283AD"/>
<rect x="90" y="62" width="9" height="1" fill="#8283AD"/>
<rect x="90" y="86" width="9" height="1" fill="#8283AD"/>
<rect x="90" y="65" width="3" height="1" fill="#8283AD"/>
<rect x="90" y="89" width="3" height="1" fill="#8283AD"/>
<rect x="90" y="68" width="6" height="1" fill="#8283AD"/>
<rect x="90" y="92" width="6" height="1" fill="#8283AD"/>
<rect x="90" y="71" width="9" height="1" fill="#F6A2A2"/>
<rect x="90" y="95" width="9" height="1" fill="#8283AD"/>
<rect x="90" y="74" width="5" height="1" fill="#8283AD"/>
<rect x="90" y="98" width="5" height="1" fill="#8283AD"/>
<rect x="90" y="77" width="6" height="1" fill="#8283AD"/>
<rect x="90" y="101" width="6" height="1" fill="#8283AD"/>
<rect x="90" y="80" width="13" height="1" fill="#F6A2A2"/>
<rect x="90" y="104" width="13" height="1" fill="#F6A2A2"/>
<rect x="97" y="59" width="12" height="1" fill="#6F70D2"/>
<rect x="97" y="83" width="12" height="1" fill="#8283AD"/>
<rect x="100" y="62" width="14" height="1" fill="#8283AD"/>
<rect x="100" y="86" width="14" height="1" fill="#6F70D2"/>
<rect x="94" y="65" width="8" height="1" fill="#F6A2A2"/>
<rect x="94" y="89" width="8" height="1" fill="#F6A2A2"/>
<rect x="97" y="68" width="12" height="1" fill="#8283AD"/>
<rect x="97" y="92" width="12" height="1" fill="#8283AD"/>
<rect x="101" y="71" width="8" height="1" fill="#8283AD"/>
<rect x="101" y="95" width="8" height="1" fill="#6F70D2"/>
<rect x="96" y="74" width="13" height="1" fill="#F6A2A2"/>
<rect x="96" y="98" width="13" height="1" fill="#8283AD"/>
<rect x="97" y="77" width="15" height="1" fill="#8283AD"/>
<rect x="97" y="101" width="15" height="1" fill="#F6A2A2"/>
<rect x="104" y="80" width="5" height="1" fill="#8283AD"/>
<rect x="104" y="104" width="5" height="1" fill="#8283AD"/>
<rect x="110" y="59" width="12" height="1" fill="#8283AD"/>
<rect x="110" y="83" width="12" height="1" fill="#F6A2A2"/>
<rect x="115" y="62" width="12" height="1" fill="#F6A2A2"/>
<rect x="115" y="86" width="12" height="1" fill="#8283AD"/>
<rect x="103" y="65" width="12" height="1" fill="#8283AD"/>
<rect x="103" y="89" width="12" height="1" fill="#8283AD"/>
<rect x="116" y="65" width="10" height="1" fill="#8283AD"/>
<rect x="116" y="89" width="10" height="1" fill="#8283AD"/>
<rect x="110" y="68" width="15" height="1" fill="#6F70D2"/>
<rect x="110" y="92" width="15" height="1" fill="#F6A2A2"/>
<rect x="110" y="71" width="13" height="1" fill="#8283AD"/>
<rect x="110" y="95" width="13" height="1" fill="#8283AD"/>
<rect x="110" y="74" width="17" height="1" fill="#8283AD"/>
<rect x="110" y="98" width="17" height="1" fill="#6F70D2"/>
<rect x="114" y="77" width="10" height="1" fill="#6F70D2"/>
<rect x="114" y="101" width="10" height="1" fill="#8283AD"/>
<rect x="110" y="80" width="15" height="1" fill="#8283AD"/>
<rect x="110" y="104" width="15" height="1" fill="#8283AD"/>
<rect x="87" y="62" width="1" height="1" rx="0.5" fill="#8283AD"/>
<rect x="87" y="65" width="1" height="1" rx="0.5" fill="#8283AD"/>
<rect x="87" y="68" width="1" height="1" rx="0.5" fill="#8283AD"/>
<rect x="87" y="71" width="1" height="1" rx="0.5" fill="#8283AD"/>
<rect x="87" y="74" width="1" height="1" rx="0.5" fill="#8283AD"/>
<rect x="87" y="77" width="1" height="1" rx="0.5" fill="#8283AD"/>
<rect x="87" y="80" width="1" height="1" rx="0.5" fill="#8283AD"/>
<rect x="87" y="83" width="1" height="1" rx="0.5" fill="#8283AD"/>
<rect x="87" y="86" width="1" height="1" rx="0.5" fill="#8283AD"/>
<rect x="87" y="89" width="1" height="1" rx="0.5" fill="#8283AD"/>
<rect x="87" y="92" width="1" height="1" rx="0.5" fill="#8283AD"/>
<rect x="87" y="95" width="1" height="1" rx="0.5" fill="#8283AD"/>
<rect x="87" y="98" width="1" height="1" rx="0.5" fill="#8283AD"/>
<rect x="87" y="101" width="1" height="1" rx="0.5" fill="#8283AD"/>
<rect x="87" y="104" width="1" height="1" rx="0.5" fill="#8283AD"/>
<rect x="139" y="54" width="47" height="8" rx="1" fill="white"/>
<rect x="139" y="64" width="47" height="5" rx="1" fill="white"/>
<rect x="139" y="71" width="47" height="16" rx="1" fill="white"/>
<rect x="139" y="100" width="47" height="6" rx="1" fill="white"/>
<rect x="139" y="89" width="47" height="9" rx="1" fill="white"/>
<path d="M145 75C145 74.0572 145 73.5858 145.293 73.2929C145.586 73 146.057 73 147 73V73C147.943 73 148.414 73 148.707 73.2929C149 73.5858 149 74.0572 149 75V86H145V75Z" fill="url(#paint15_linear_1924_2208)"/>
<path d="M151 79.3335C151 78.3907 151 77.9193 151.293 77.6264C151.586 77.3335 152.057 77.3335 153 77.3335V77.3335C153.943 77.3335 154.414 77.3335 154.707 77.6264C155 77.9193 155 78.3907 155 79.3335V86.0002H151V79.3335Z" fill="url(#paint16_linear_1924_2208)"/>
<path d="M157 77.1665C157 76.2237 157 75.7523 157.293 75.4594C157.586 75.1665 158.057 75.1665 159 75.1665V75.1665C159.943 75.1665 160.414 75.1665 160.707 75.4594C161 75.7523 161 76.2237 161 77.1665V85.9998H157V77.1665Z" fill="url(#paint17_linear_1924_2208)"/>
<path d="M169 79.3335C169 78.3907 169 77.9193 169.293 77.6264C169.586 77.3335 170.057 77.3335 171 77.3335V77.3335C171.943 77.3335 172.414 77.3335 172.707 77.6264C173 77.9193 173 78.3907 173 79.3335V86.0002H169V79.3335Z" fill="url(#paint18_linear_1924_2208)"/>
<path d="M163 82.2222C163 81.2794 163 80.808 163.293 80.5151C163.586 80.2222 164.057 80.2222 165 80.2222V80.2222C165.943 80.2222 166.414 80.2222 166.707 80.5151C167 80.808 167 81.2794 167 82.2222V85.9999H163V82.2222Z" fill="url(#paint19_linear_1924_2208)"/>
<path d="M175 80.7778C175 79.835 175 79.3636 175.293 79.0707C175.586 78.7778 176.057 78.7778 177 78.7778V78.7778C177.943 78.7778 178.414 78.7778 178.707 79.0707C179 79.3636 179 79.835 179 80.7778V86.0001H175V80.7778Z" fill="url(#paint20_linear_1924_2208)"/>
<g filter="url(#filter6_f_1924_2208)">
<rect x="145.5" y="73.3613" width="3" height="0.541667" fill="#F8AF90"/>
</g>
<g filter="url(#filter7_f_1924_2208)">
<rect x="151.5" y="77.6943" width="3" height="0.541667" fill="#F8AF90"/>
</g>
<g filter="url(#filter8_f_1924_2208)">
<rect x="157.5" y="75.5278" width="3" height="0.541667" fill="#F8AF90"/>
</g>
<g filter="url(#filter9_f_1924_2208)">
<rect x="163.5" y="80.5835" width="3" height="0.541667" fill="#F8AF90"/>
</g>
<g filter="url(#filter10_f_1924_2208)">
<rect x="169.5" y="77.6943" width="3" height="0.541667" fill="#F8AF90"/>
</g>
<g filter="url(#filter11_f_1924_2208)">
<rect x="175.5" y="79.1387" width="3" height="0.541667" fill="#F8AF90"/>
</g>
<g filter="url(#filter12_b_1924_2208)">
<rect x="56" y="46" width="27.8905" height="18.9452" rx="4.02955" fill="#F0F4FF"/>
<rect x="56.6945" y="46.6945" width="26.5014" height="17.5562" rx="3.33501" stroke="#5B6B92" stroke-width="1.38908"/>
<path d="M66.8849 59.0559L62.2954 56.4444V55.5887L66.8849 52.9772V54.0774L63.39 56.0165L66.8849 57.9557V59.0559ZM68.9238 60.7728L71.6297 51.8048H72.4799L69.8017 60.7728H68.9238ZM72.9197 59.0559V57.9557L76.4091 56.0165L72.9197 54.0774V52.9772L77.5092 55.5887V56.4444L72.9197 59.0559Z" fill="#5B6B92"/>
</g>
</g>
<rect x="0.5" y="0.5" width="271" height="172" rx="15.5" stroke="#DBE4FB"/>
<defs>
<filter id="filter0_f_1924_2208" x="-55.1" y="-84.1" width="379.2" height="342.2" filterUnits="userSpaceOnUse" color-interpolation-filters="sRGB">
<feFlood flood-opacity="0" result="BackgroundImageFix"/>
<feBlend mode="normal" in="SourceGraphic" in2="BackgroundImageFix" result="shape"/>
<feGaussianBlur stdDeviation="57.05" result="effect1_foregroundBlur_1924_2208"/>
</filter>
<filter id="filter1_f_1924_2208" x="217" y="39" width="14" height="14" filterUnits="userSpaceOnUse" color-interpolation-filters="sRGB">
<feFlood flood-opacity="0" result="BackgroundImageFix"/>
<feBlend mode="normal" in="SourceGraphic" in2="BackgroundImageFix" result="shape"/>
<feGaussianBlur stdDeviation="1" result="effect1_foregroundBlur_1924_2208"/>
</filter>
<filter id="filter2_f_1924_2208" x="248" y="18" width="10" height="10" filterUnits="userSpaceOnUse" color-interpolation-filters="sRGB">
<feFlood flood-opacity="0" result="BackgroundImageFix"/>
<feBlend mode="normal" in="SourceGraphic" in2="BackgroundImageFix" result="shape"/>
<feGaussianBlur stdDeviation="1" result="effect1_foregroundBlur_1924_2208"/>
</filter>
<filter id="filter3_f_1924_2208" x="54" y="11" width="17" height="17" filterUnits="userSpaceOnUse" color-interpolation-filters="sRGB">
<feFlood flood-opacity="0" result="BackgroundImageFix"/>
<feBlend mode="normal" in="SourceGraphic" in2="BackgroundImageFix" result="shape"/>
<feGaussianBlur stdDeviation="1" result="effect1_foregroundBlur_1924_2208"/>
</filter>
<filter id="filter4_f_1924_2208" x="17" y="4" width="11" height="11" filterUnits="userSpaceOnUse" color-interpolation-filters="sRGB">
<feFlood flood-opacity="0" result="BackgroundImageFix"/>
<feBlend mode="normal" in="SourceGraphic" in2="BackgroundImageFix" result="shape"/>
<feGaussianBlur stdDeviation="1" result="effect1_foregroundBlur_1924_2208"/>
</filter>
<filter id="filter5_b_1924_2208" x="65.7" y="33.7" width="140.6" height="92.6" filterUnits="userSpaceOnUse" color-interpolation-filters="sRGB">
<feFlood flood-opacity="0" result="BackgroundImageFix"/>
<feGaussianBlur in="BackgroundImageFix" stdDeviation="3.15"/>
<feComposite in2="SourceAlpha" operator="in" result="effect1_backgroundBlur_1924_2208"/>
<feBlend mode="normal" in="SourceGraphic" in2="effect1_backgroundBlur_1924_2208" result="shape"/>
</filter>
<filter id="filter6_f_1924_2208" x="144.6" y="72.4613" width="4.8" height="2.34175" filterUnits="userSpaceOnUse" color-interpolation-filters="sRGB">
<feFlood flood-opacity="0" result="BackgroundImageFix"/>
<feBlend mode="normal" in="SourceGraphic" in2="BackgroundImageFix" result="shape"/>
<feGaussianBlur stdDeviation="0.45" result="effect1_foregroundBlur_1924_2208"/>
</filter>
<filter id="filter7_f_1924_2208" x="150.6" y="76.7943" width="4.8" height="2.34175" filterUnits="userSpaceOnUse" color-interpolation-filters="sRGB">
<feFlood flood-opacity="0" result="BackgroundImageFix"/>
<feBlend mode="normal" in="SourceGraphic" in2="BackgroundImageFix" result="shape"/>
<feGaussianBlur stdDeviation="0.45" result="effect1_foregroundBlur_1924_2208"/>
</filter>
<filter id="filter8_f_1924_2208" x="156.6" y="74.6278" width="4.8" height="2.34175" filterUnits="userSpaceOnUse" color-interpolation-filters="sRGB">
<feFlood flood-opacity="0" result="BackgroundImageFix"/>
<feBlend mode="normal" in="SourceGraphic" in2="BackgroundImageFix" result="shape"/>
<feGaussianBlur stdDeviation="0.45" result="effect1_foregroundBlur_1924_2208"/>
</filter>
<filter id="filter9_f_1924_2208" x="162.6" y="79.6835" width="4.8" height="2.34175" filterUnits="userSpaceOnUse" color-interpolation-filters="sRGB">
<feFlood flood-opacity="0" result="BackgroundImageFix"/>
<feBlend mode="normal" in="SourceGraphic" in2="BackgroundImageFix" result="shape"/>
<feGaussianBlur stdDeviation="0.45" result="effect1_foregroundBlur_1924_2208"/>
</filter>
<filter id="filter10_f_1924_2208" x="168.6" y="76.7943" width="4.8" height="2.34175" filterUnits="userSpaceOnUse" color-interpolation-filters="sRGB">
<feFlood flood-opacity="0" result="BackgroundImageFix"/>
<feBlend mode="normal" in="SourceGraphic" in2="BackgroundImageFix" result="shape"/>
<feGaussianBlur stdDeviation="0.45" result="effect1_foregroundBlur_1924_2208"/>
</filter>
<filter id="filter11_f_1924_2208" x="174.6" y="78.2387" width="4.8" height="2.34175" filterUnits="userSpaceOnUse" color-interpolation-filters="sRGB">
<feFlood flood-opacity="0" result="BackgroundImageFix"/>
<feBlend mode="normal" in="SourceGraphic" in2="BackgroundImageFix" result="shape"/>
<feGaussianBlur stdDeviation="0.45" result="effect1_foregroundBlur_1924_2208"/>
</filter>
<filter id="filter12_b_1924_2208" x="42.5658" y="32.5658" width="54.7591" height="45.8138" filterUnits="userSpaceOnUse" color-interpolation-filters="sRGB">
<feFlood flood-opacity="0" result="BackgroundImageFix"/>
<feGaussianBlur in="BackgroundImageFix" stdDeviation="6.71712"/>
<feComposite in2="SourceAlpha" operator="in" result="effect1_backgroundBlur_1924_2208"/>
<feBlend mode="normal" in="SourceGraphic" in2="effect1_backgroundBlur_1924_2208" result="shape"/>
</filter>
<radialGradient id="paint0_radial_1924_2208" cx="0" cy="0" r="1" gradientUnits="userSpaceOnUse" gradientTransform="translate(228.118 49.5294) rotate(-144.782) scale(12.2404)">
<stop stop-color="#9798F6"/>
<stop offset="0.936282" stop-color="white"/>
</radialGradient>
<radialGradient id="paint1_radial_1924_2208" cx="0" cy="0" r="1" gradientUnits="userSpaceOnUse" gradientTransform="translate(228.118 49.5294) rotate(-144.782) scale(12.2404)">
<stop stop-color="#CDD8F2"/>
<stop offset="0.936282" stop-color="white"/>
</radialGradient>
<radialGradient id="paint2_radial_1924_2208" cx="0" cy="0" r="1" gradientUnits="userSpaceOnUse" gradientTransform="translate(255.471 25.1176) rotate(-144.782) scale(7.34423)">
<stop stop-color="#9798F6"/>
<stop offset="0.936282" stop-color="white"/>
</radialGradient>
<radialGradient id="paint3_radial_1924_2208" cx="0" cy="0" r="1" gradientUnits="userSpaceOnUse" gradientTransform="translate(255.471 25.1176) rotate(-144.782) scale(7.34423)">
<stop stop-color="#CDD8F2"/>
<stop offset="0.936282" stop-color="white"/>
</radialGradient>
<radialGradient id="paint4_radial_1924_2208" cx="0" cy="0" r="1" gradientUnits="userSpaceOnUse" gradientTransform="translate(40.2353 120.059) rotate(-144.782) scale(24.4808)">
<stop stop-color="#9798F6"/>
<stop offset="0.936282" stop-color="white"/>
</radialGradient>
<radialGradient id="paint5_radial_1924_2208" cx="0" cy="0" r="1" gradientUnits="userSpaceOnUse" gradientTransform="translate(40.2353 120.059) rotate(-144.782) scale(24.4808)">
<stop stop-color="#CDD8F2"/>
<stop offset="0.936282" stop-color="white"/>
</radialGradient>
<radialGradient id="paint6_radial_1924_2208" cx="0" cy="0" r="1" gradientUnits="userSpaceOnUse" gradientTransform="translate(67.8529 24.0882) rotate(-144.782) scale(15.9125)">
<stop stop-color="#9798F6"/>
<stop offset="0.936282" stop-color="white"/>
</radialGradient>
<radialGradient id="paint7_radial_1924_2208" cx="0" cy="0" r="1" gradientUnits="userSpaceOnUse" gradientTransform="translate(67.8529 24.0882) rotate(-144.782) scale(15.9125)">
<stop stop-color="#CDD8F2"/>
<stop offset="0.936282" stop-color="white"/>
</radialGradient>
<radialGradient id="paint8_radial_1924_2208" cx="0" cy="0" r="1" gradientUnits="userSpaceOnUse" gradientTransform="translate(25.3824 11.9706) rotate(-144.782) scale(8.56827)">
<stop stop-color="#9798F6"/>
<stop offset="0.936282" stop-color="white"/>
</radialGradient>
<radialGradient id="paint9_radial_1924_2208" cx="0" cy="0" r="1" gradientUnits="userSpaceOnUse" gradientTransform="translate(25.3824 11.9706) rotate(-144.782) scale(8.56827)">
<stop stop-color="#CDD8F2"/>
<stop offset="0.936282" stop-color="white"/>
</radialGradient>
<radialGradient id="paint10_radial_1924_2208" cx="0" cy="0" r="1" gradientUnits="userSpaceOnUse" gradientTransform="translate(180.5 56.5) rotate(-144.782) scale(20.8087)">
<stop stop-color="#9798F6"/>
<stop offset="0.936282" stop-color="white"/>
</radialGradient>
<radialGradient id="paint11_radial_1924_2208" cx="0" cy="0" r="1" gradientUnits="userSpaceOnUse" gradientTransform="translate(99.7941 109.324) rotate(-144.782) scale(30.601)">
<stop stop-color="#9798F6"/>
<stop offset="0.936282" stop-color="white"/>
</radialGradient>
<radialGradient id="paint12_radial_1924_2208" cx="0" cy="0" r="1" gradientUnits="userSpaceOnUse" gradientTransform="translate(191.794 99.3235) rotate(-144.782) scale(30.601)">
<stop stop-color="#9798F6"/>
<stop offset="0.936282" stop-color="white"/>
</radialGradient>
<radialGradient id="paint13_radial_1924_2208" cx="0" cy="0" r="1" gradientUnits="userSpaceOnUse" gradientTransform="translate(209.088 132.147) rotate(-144.782) scale(40.3933)">
<stop stop-color="#9798F6"/>
<stop offset="0.936282" stop-color="white"/>
</radialGradient>
<radialGradient id="paint14_radial_1924_2208" cx="0" cy="0" r="1" gradientUnits="userSpaceOnUse" gradientTransform="translate(209.088 132.147) rotate(-144.782) scale(40.3933)">
<stop stop-color="#CDD8F2"/>
<stop offset="0.936282" stop-color="white"/>
</radialGradient>
<linearGradient id="paint15_linear_1924_2208" x1="147" y1="73" x2="147" y2="86" gradientUnits="userSpaceOnUse">
<stop stop-color="#E07344"/>
<stop offset="1" stop-color="#EC734D"/>
</linearGradient>
<linearGradient id="paint16_linear_1924_2208" x1="153" y1="77.3335" x2="153" y2="86.0002" gradientUnits="userSpaceOnUse">
<stop stop-color="#E07344"/>
<stop offset="1" stop-color="#EC734D"/>
</linearGradient>
<linearGradient id="paint17_linear_1924_2208" x1="159" y1="75.1665" x2="159" y2="85.9998" gradientUnits="userSpaceOnUse">
<stop stop-color="#E07344"/>
<stop offset="1" stop-color="#EC734D"/>
</linearGradient>
<linearGradient id="paint18_linear_1924_2208" x1="171" y1="77.3335" x2="171" y2="86.0002" gradientUnits="userSpaceOnUse">
<stop stop-color="#E07344"/>
<stop offset="1" stop-color="#EC734D"/>
</linearGradient>
<linearGradient id="paint19_linear_1924_2208" x1="165" y1="80.2222" x2="165" y2="85.9999" gradientUnits="userSpaceOnUse">
<stop stop-color="#E07344"/>
<stop offset="1" stop-color="#EC734D"/>
</linearGradient>
<linearGradient id="paint20_linear_1924_2208" x1="177" y1="78.7778" x2="177" y2="86.0001" gradientUnits="userSpaceOnUse">
<stop stop-color="#E07344"/>
<stop offset="1" stop-color="#EC734D"/>
</linearGradient>
<clipPath id="clip0_1924_2208">
<rect width="272" height="173" rx="16" fill="white"/>
</clipPath>
</defs>
</svg>
