<svg width="272" height="173" viewBox="0 0 272 173" fill="none" xmlns="http://www.w3.org/2000/svg">
<g clip-path="url(#clip0_1924_2036)">
<rect width="272" height="173" rx="16" fill="white"/>
<g filter="url(#filter0_f_1924_2036)">
<ellipse cx="134.5" cy="87" rx="75.5" ry="57" fill="white"/>
</g>
<g filter="url(#filter1_f_1924_2036)">
<circle cx="224" cy="46" r="5" fill="#D9D9D9"/>
<circle cx="224" cy="46" r="5" fill="url(#paint0_radial_1924_2036)"/>
<circle cx="224" cy="46" r="5" fill="url(#paint1_radial_1924_2036)"/>
</g>
<g filter="url(#filter2_f_1924_2036)">
<circle cx="253" cy="23" r="3" fill="#D9D9D9"/>
<circle cx="253" cy="23" r="3" fill="url(#paint2_radial_1924_2036)"/>
<circle cx="253" cy="23" r="3" fill="url(#paint3_radial_1924_2036)"/>
</g>
<circle cx="32" cy="113" r="10" fill="url(#paint4_radial_1924_2036)"/>
<circle cx="32" cy="113" r="10" fill="url(#paint5_radial_1924_2036)"/>
<g filter="url(#filter3_f_1924_2036)">
<circle cx="62.5" cy="19.5" r="6.5" fill="url(#paint6_radial_1924_2036)"/>
<circle cx="62.5" cy="19.5" r="6.5" fill="url(#paint7_radial_1924_2036)"/>
</g>
<g filter="url(#filter4_f_1924_2036)">
<circle cx="22.5" cy="9.5" r="3.5" fill="url(#paint8_radial_1924_2036)"/>
<circle cx="22.5" cy="9.5" r="3.5" fill="url(#paint9_radial_1924_2036)"/>
</g>
<rect x="74" y="42" width="124" height="76" rx="6" fill="white" stroke="#5B6B92" stroke-width="4"/>
<rect x="126" y="120" width="20" height="12" fill="#C4CDE5"/>
<rect x="112" y="132" width="48" height="2" rx="1" fill="#A1B1D9"/>
<rect x="84.5" y="52.5" width="27" height="55" rx="1.5" fill="#EDF2FF" stroke="#E6EDFF"/>
<rect x="116.5" y="82.5" width="71" height="25" rx="1.5" fill="#F9F2FF" stroke="#F4E7FF"/>
<rect x="0.5" y="-0.5" width="71" height="25" rx="1.5" transform="matrix(1 0 0 -1 116 77)" fill="#0D0E3B" fill-opacity="0.78" stroke="#232457"/>
<rect width="16" height="1" rx="0.5" transform="matrix(1 0 0 -1 87 60)" fill="#879CD2"/>
<rect width="16" height="3" rx="1" transform="matrix(1 0 0 -1 87 58)" fill="#879CD2"/>
<rect width="16" height="1" rx="0.5" transform="matrix(1 0 0 -1 87 66)" fill="#879CD2"/>
<rect width="16" height="1" rx="0.5" transform="matrix(1 0 0 -1 87 72)" fill="#879CD2"/>
<rect width="16" height="1" rx="0.5" transform="matrix(1 0 0 -1 87 78)" fill="#879CD2"/>
<rect width="16" height="1" rx="0.5" transform="matrix(1 0 0 -1 87 84)" fill="#879CD2"/>
<rect width="16" height="1" rx="0.5" transform="matrix(1 0 0 -1 87 90)" fill="#879CD2"/>
<rect width="16" height="1" rx="0.5" transform="matrix(1 0 0 -1 87 96)" fill="#879CD2"/>
<rect width="16" height="1" rx="0.5" transform="matrix(1 0 0 -1 87 102)" fill="#879CD2"/>
<rect width="13.5385" height="1" rx="0.5" transform="matrix(1 0 0 -1 87 62)" fill="#879CD2"/>
<rect width="13.5385" height="1" rx="0.5" transform="matrix(1 0 0 -1 87 68)" fill="#879CD2"/>
<rect width="13.5385" height="1" rx="0.5" transform="matrix(1 0 0 -1 87 74)" fill="#879CD2"/>
<rect width="13.5385" height="1" rx="0.5" transform="matrix(1 0 0 -1 87 80)" fill="#879CD2"/>
<rect width="13.5385" height="1" rx="0.5" transform="matrix(1 0 0 -1 87 86)" fill="#879CD2"/>
<rect width="13.5385" height="1" rx="0.5" transform="matrix(1 0 0 -1 87 92)" fill="#879CD2"/>
<rect width="13.5385" height="1" rx="0.5" transform="matrix(1 0 0 -1 87 98)" fill="#879CD2"/>
<rect width="13.5385" height="1" rx="0.5" transform="matrix(1 0 0 -1 87 104)" fill="#879CD2"/>
<rect width="14.7692" height="1" rx="0.5" transform="matrix(1 0 0 -1 87 64)" fill="#879CD2"/>
<rect width="14.7692" height="1" rx="0.5" transform="matrix(1 0 0 -1 87 70)" fill="#879CD2"/>
<rect width="14.7692" height="1" rx="0.5" transform="matrix(1 0 0 -1 87 76)" fill="#879CD2"/>
<rect width="14.7692" height="1" rx="0.5" transform="matrix(1 0 0 -1 87 82)" fill="#879CD2"/>
<rect width="14.7692" height="1" rx="0.5" transform="matrix(1 0 0 -1 87 88)" fill="#879CD2"/>
<rect width="14.7692" height="1" rx="0.5" transform="matrix(1 0 0 -1 87 94)" fill="#879CD2"/>
<rect width="14.7692" height="1" rx="0.5" transform="matrix(1 0 0 -1 87 100)" fill="#879CD2"/>
<rect width="14.7692" height="1" rx="0.5" transform="matrix(1 0 0 -1 87 106)" fill="#879CD2"/>
<circle cx="195.5" cy="120.5" r="16.5" fill="#D9D9D9"/>
<circle cx="195.5" cy="120.5" r="16.5" fill="url(#paint10_radial_1924_2036)"/>
<path d="M120 89C120 88.0572 120 87.5858 120.293 87.2929C120.586 87 121.057 87 122 87V87C122.943 87 123.414 87 123.707 87.2929C124 87.5858 124 88.0572 124 89V105H120V89Z" fill="url(#paint11_linear_1924_2036)"/>
<path d="M126 95C126 94.0572 126 93.5858 126.293 93.2929C126.586 93 127.057 93 128 93V93C128.943 93 129.414 93 129.707 93.2929C130 93.5858 130 94.0572 130 95V105H126V95Z" fill="url(#paint12_linear_1924_2036)"/>
<path d="M174 95C174 94.0572 174 93.5858 174.293 93.2929C174.586 93 175.057 93 176 93V93C176.943 93 177.414 93 177.707 93.2929C178 93.5858 178 94.0572 178 95V105H174V95Z" fill="url(#paint13_linear_1924_2036)"/>
<path d="M132 92C132 91.0572 132 90.5858 132.293 90.2929C132.586 90 133.057 90 134 90V90C134.943 90 135.414 90 135.707 90.2929C136 90.5858 136 91.0572 136 92V105H132V92Z" fill="url(#paint14_linear_1924_2036)"/>
<path d="M180 92C180 91.0572 180 90.5858 180.293 90.2929C180.586 90 181.057 90 182 90V90C182.943 90 183.414 90 183.707 90.2929C184 90.5858 184 91.0572 184 92V105H180V92Z" fill="url(#paint15_linear_1924_2036)"/>
<path d="M144 95C144 94.0572 144 93.5858 144.293 93.2929C144.586 93 145.057 93 146 93V93C146.943 93 147.414 93 147.707 93.2929C148 93.5858 148 94.0572 148 95V105H144V95Z" fill="url(#paint16_linear_1924_2036)"/>
<path d="M162 95C162 94.0572 162 93.5858 162.293 93.2929C162.586 93 163.057 93 164 93V93C164.943 93 165.414 93 165.707 93.2929C166 93.5858 166 94.0572 166 95V105H162V95Z" fill="url(#paint17_linear_1924_2036)"/>
<path d="M138 99C138 98.0572 138 97.5858 138.293 97.2929C138.586 97 139.057 97 140 97V97C140.943 97 141.414 97 141.707 97.2929C142 97.5858 142 98.0572 142 99V105H138V99Z" fill="url(#paint18_linear_1924_2036)"/>
<path d="M156 99C156 98.0572 156 97.5858 156.293 97.2929C156.586 97 157.057 97 158 97V97C158.943 97 159.414 97 159.707 97.2929C160 97.5858 160 98.0572 160 99V105H156V99Z" fill="url(#paint19_linear_1924_2036)"/>
<path d="M150 97C150 96.0572 150 95.5858 150.293 95.2929C150.586 95 151.057 95 152 95V95C152.943 95 153.414 95 153.707 95.2929C154 95.5858 154 96.0572 154 97V105H150V97Z" fill="url(#paint20_linear_1924_2036)"/>
<path d="M168 97C168 96.0572 168 95.5858 168.293 95.2929C168.586 95 169.057 95 170 95V95C170.943 95 171.414 95 171.707 95.2929C172 95.5858 172 96.0572 172 97V105H168V97Z" fill="url(#paint21_linear_1924_2036)"/>
<g filter="url(#filter5_f_1924_2036)">
<rect x="120.5" y="87.5" width="3" height="0.75" fill="#F8AF90"/>
</g>
<g filter="url(#filter6_f_1924_2036)">
<rect x="126.5" y="93.5" width="3" height="0.75" fill="#F8AF90"/>
</g>
<g filter="url(#filter7_f_1924_2036)">
<rect x="174.5" y="93.5" width="3" height="0.75" fill="#F8AF90"/>
</g>
<g filter="url(#filter8_f_1924_2036)">
<rect x="132.5" y="90.5" width="3" height="0.75" fill="#F8AF90"/>
</g>
<g filter="url(#filter9_f_1924_2036)">
<rect x="180.5" y="90.5" width="3" height="0.75" fill="#F8AF90"/>
</g>
<g filter="url(#filter10_f_1924_2036)">
<rect x="138.5" y="97.5" width="3" height="0.75" fill="#F8AF90"/>
</g>
<g filter="url(#filter11_f_1924_2036)">
<rect x="156.5" y="97.5" width="3" height="0.75" fill="#F8AF90"/>
</g>
<g filter="url(#filter12_f_1924_2036)">
<rect x="144.5" y="93.5" width="3" height="0.75" fill="#F8AF90"/>
</g>
<g filter="url(#filter13_f_1924_2036)">
<rect x="162.5" y="93.5" width="3" height="0.75" fill="#F8AF90"/>
</g>
<g filter="url(#filter14_f_1924_2036)">
<rect x="150.5" y="95.5" width="3" height="0.75" fill="#F8AF90"/>
</g>
<g filter="url(#filter15_f_1924_2036)">
<rect x="168.5" y="95.5" width="3" height="0.75" fill="#F8AF90"/>
</g>
<rect x="119" y="57" width="1" height="1" rx="0.5" fill="#8283AD"/>
<rect x="119" y="66" width="1" height="1" rx="0.5" fill="#8283AD"/>
<rect x="122" y="57" width="6" height="1" fill="#8283AD"/>
<rect x="122" y="66" width="6" height="1" fill="#8283AD"/>
<rect x="122" y="60" width="9" height="1" fill="#8283AD"/>
<rect x="122" y="69" width="9" height="1" fill="#8283AD"/>
<rect x="122" y="63" width="3" height="1" fill="#8283AD"/>
<rect x="122" y="72" width="3" height="1" fill="#8283AD"/>
<rect x="129" y="57" width="12" height="1" fill="#6F70D2"/>
<rect x="160" y="60" width="12" height="1" fill="#6F70D2"/>
<rect x="129" y="66" width="12" height="1" fill="#6F70D2"/>
<rect x="159" y="63" width="10" height="1" fill="#6F70D2"/>
<rect x="159" y="72" width="10" height="1" fill="#6F70D2"/>
<rect x="160" y="69" width="10" height="1" fill="#6F70D2"/>
<rect x="132" y="60" width="14" height="1" fill="#8283AD"/>
<rect x="132" y="69" width="14" height="1" fill="#8283AD"/>
<rect x="126" y="63" width="8" height="1" fill="#F6A2A2"/>
<rect x="156" y="57" width="8" height="1" fill="#F6A2A2"/>
<rect x="126" y="72" width="8" height="1" fill="#F6A2A2"/>
<rect x="155" y="66" width="8" height="1" fill="#F6A2A2"/>
<rect x="142" y="57" width="12" height="1" fill="#8283AD"/>
<rect x="173" y="60" width="12" height="1" fill="#8283AD"/>
<rect x="142" y="66" width="12" height="1" fill="#8283AD"/>
<rect x="170" y="63" width="12" height="1" fill="#8283AD"/>
<rect x="170" y="72" width="12" height="1" fill="#8283AD"/>
<rect x="171" y="69" width="12" height="1" fill="#8283AD"/>
<rect x="147" y="60" width="12" height="1" fill="#F6A2A2"/>
<rect x="147" y="69" width="12" height="1" fill="#F6A2A2"/>
<rect x="135" y="63" width="12" height="1" fill="#8283AD"/>
<rect x="165" y="57" width="12" height="1" fill="#8283AD"/>
<rect x="135" y="72" width="12" height="1" fill="#8283AD"/>
<rect x="164" y="66" width="12" height="1" fill="#8283AD"/>
<rect x="148" y="63" width="10" height="1" fill="#8283AD"/>
<rect x="148" y="72" width="10" height="1" fill="#8283AD"/>
<rect x="119" y="60" width="1" height="1" rx="0.5" fill="#8283AD"/>
<rect x="119" y="69" width="1" height="1" rx="0.5" fill="#8283AD"/>
<rect x="119" y="63" width="1" height="1" rx="0.5" fill="#8283AD"/>
<rect x="119" y="72" width="1" height="1" rx="0.5" fill="#8283AD"/>
</g>
<rect x="0.5" y="0.5" width="271" height="172" rx="15.5" stroke="#DBE4FB"/>
<defs>
<filter id="filter0_f_1924_2036" x="-55.1" y="-84.1" width="379.2" height="342.2" filterUnits="userSpaceOnUse" color-interpolation-filters="sRGB">
<feFlood flood-opacity="0" result="BackgroundImageFix"/>
<feBlend mode="normal" in="SourceGraphic" in2="BackgroundImageFix" result="shape"/>
<feGaussianBlur stdDeviation="57.05" result="effect1_foregroundBlur_1924_2036"/>
</filter>
<filter id="filter1_f_1924_2036" x="217" y="39" width="14" height="14" filterUnits="userSpaceOnUse" color-interpolation-filters="sRGB">
<feFlood flood-opacity="0" result="BackgroundImageFix"/>
<feBlend mode="normal" in="SourceGraphic" in2="BackgroundImageFix" result="shape"/>
<feGaussianBlur stdDeviation="1" result="effect1_foregroundBlur_1924_2036"/>
</filter>
<filter id="filter2_f_1924_2036" x="248" y="18" width="10" height="10" filterUnits="userSpaceOnUse" color-interpolation-filters="sRGB">
<feFlood flood-opacity="0" result="BackgroundImageFix"/>
<feBlend mode="normal" in="SourceGraphic" in2="BackgroundImageFix" result="shape"/>
<feGaussianBlur stdDeviation="1" result="effect1_foregroundBlur_1924_2036"/>
</filter>
<filter id="filter3_f_1924_2036" x="54" y="11" width="17" height="17" filterUnits="userSpaceOnUse" color-interpolation-filters="sRGB">
<feFlood flood-opacity="0" result="BackgroundImageFix"/>
<feBlend mode="normal" in="SourceGraphic" in2="BackgroundImageFix" result="shape"/>
<feGaussianBlur stdDeviation="1" result="effect1_foregroundBlur_1924_2036"/>
</filter>
<filter id="filter4_f_1924_2036" x="17" y="4" width="11" height="11" filterUnits="userSpaceOnUse" color-interpolation-filters="sRGB">
<feFlood flood-opacity="0" result="BackgroundImageFix"/>
<feBlend mode="normal" in="SourceGraphic" in2="BackgroundImageFix" result="shape"/>
<feGaussianBlur stdDeviation="1" result="effect1_foregroundBlur_1924_2036"/>
</filter>
<filter id="filter5_f_1924_2036" x="119.6" y="86.6" width="4.8" height="2.55" filterUnits="userSpaceOnUse" color-interpolation-filters="sRGB">
<feFlood flood-opacity="0" result="BackgroundImageFix"/>
<feBlend mode="normal" in="SourceGraphic" in2="BackgroundImageFix" result="shape"/>
<feGaussianBlur stdDeviation="0.45" result="effect1_foregroundBlur_1924_2036"/>
</filter>
<filter id="filter6_f_1924_2036" x="125.6" y="92.6" width="4.8" height="2.55" filterUnits="userSpaceOnUse" color-interpolation-filters="sRGB">
<feFlood flood-opacity="0" result="BackgroundImageFix"/>
<feBlend mode="normal" in="SourceGraphic" in2="BackgroundImageFix" result="shape"/>
<feGaussianBlur stdDeviation="0.45" result="effect1_foregroundBlur_1924_2036"/>
</filter>
<filter id="filter7_f_1924_2036" x="173.6" y="92.6" width="4.8" height="2.55" filterUnits="userSpaceOnUse" color-interpolation-filters="sRGB">
<feFlood flood-opacity="0" result="BackgroundImageFix"/>
<feBlend mode="normal" in="SourceGraphic" in2="BackgroundImageFix" result="shape"/>
<feGaussianBlur stdDeviation="0.45" result="effect1_foregroundBlur_1924_2036"/>
</filter>
<filter id="filter8_f_1924_2036" x="131.6" y="89.6" width="4.8" height="2.55" filterUnits="userSpaceOnUse" color-interpolation-filters="sRGB">
<feFlood flood-opacity="0" result="BackgroundImageFix"/>
<feBlend mode="normal" in="SourceGraphic" in2="BackgroundImageFix" result="shape"/>
<feGaussianBlur stdDeviation="0.45" result="effect1_foregroundBlur_1924_2036"/>
</filter>
<filter id="filter9_f_1924_2036" x="179.6" y="89.6" width="4.8" height="2.55" filterUnits="userSpaceOnUse" color-interpolation-filters="sRGB">
<feFlood flood-opacity="0" result="BackgroundImageFix"/>
<feBlend mode="normal" in="SourceGraphic" in2="BackgroundImageFix" result="shape"/>
<feGaussianBlur stdDeviation="0.45" result="effect1_foregroundBlur_1924_2036"/>
</filter>
<filter id="filter10_f_1924_2036" x="137.6" y="96.6" width="4.8" height="2.55" filterUnits="userSpaceOnUse" color-interpolation-filters="sRGB">
<feFlood flood-opacity="0" result="BackgroundImageFix"/>
<feBlend mode="normal" in="SourceGraphic" in2="BackgroundImageFix" result="shape"/>
<feGaussianBlur stdDeviation="0.45" result="effect1_foregroundBlur_1924_2036"/>
</filter>
<filter id="filter11_f_1924_2036" x="155.6" y="96.6" width="4.8" height="2.55" filterUnits="userSpaceOnUse" color-interpolation-filters="sRGB">
<feFlood flood-opacity="0" result="BackgroundImageFix"/>
<feBlend mode="normal" in="SourceGraphic" in2="BackgroundImageFix" result="shape"/>
<feGaussianBlur stdDeviation="0.45" result="effect1_foregroundBlur_1924_2036"/>
</filter>
<filter id="filter12_f_1924_2036" x="143.6" y="92.6" width="4.8" height="2.55" filterUnits="userSpaceOnUse" color-interpolation-filters="sRGB">
<feFlood flood-opacity="0" result="BackgroundImageFix"/>
<feBlend mode="normal" in="SourceGraphic" in2="BackgroundImageFix" result="shape"/>
<feGaussianBlur stdDeviation="0.45" result="effect1_foregroundBlur_1924_2036"/>
</filter>
<filter id="filter13_f_1924_2036" x="161.6" y="92.6" width="4.8" height="2.55" filterUnits="userSpaceOnUse" color-interpolation-filters="sRGB">
<feFlood flood-opacity="0" result="BackgroundImageFix"/>
<feBlend mode="normal" in="SourceGraphic" in2="BackgroundImageFix" result="shape"/>
<feGaussianBlur stdDeviation="0.45" result="effect1_foregroundBlur_1924_2036"/>
</filter>
<filter id="filter14_f_1924_2036" x="149.6" y="94.6" width="4.8" height="2.55" filterUnits="userSpaceOnUse" color-interpolation-filters="sRGB">
<feFlood flood-opacity="0" result="BackgroundImageFix"/>
<feBlend mode="normal" in="SourceGraphic" in2="BackgroundImageFix" result="shape"/>
<feGaussianBlur stdDeviation="0.45" result="effect1_foregroundBlur_1924_2036"/>
</filter>
<filter id="filter15_f_1924_2036" x="167.6" y="94.6" width="4.8" height="2.55" filterUnits="userSpaceOnUse" color-interpolation-filters="sRGB">
<feFlood flood-opacity="0" result="BackgroundImageFix"/>
<feBlend mode="normal" in="SourceGraphic" in2="BackgroundImageFix" result="shape"/>
<feGaussianBlur stdDeviation="0.45" result="effect1_foregroundBlur_1924_2036"/>
</filter>
<radialGradient id="paint0_radial_1924_2036" cx="0" cy="0" r="1" gradientUnits="userSpaceOnUse" gradientTransform="translate(228.118 49.5294) rotate(-144.782) scale(12.2404)">
<stop stop-color="#9798F6"/>
<stop offset="0.936282" stop-color="white"/>
</radialGradient>
<radialGradient id="paint1_radial_1924_2036" cx="0" cy="0" r="1" gradientUnits="userSpaceOnUse" gradientTransform="translate(228.118 49.5294) rotate(-144.782) scale(12.2404)">
<stop stop-color="#CDD8F2"/>
<stop offset="0.936282" stop-color="white"/>
</radialGradient>
<radialGradient id="paint2_radial_1924_2036" cx="0" cy="0" r="1" gradientUnits="userSpaceOnUse" gradientTransform="translate(255.471 25.1176) rotate(-144.782) scale(7.34423)">
<stop stop-color="#9798F6"/>
<stop offset="0.936282" stop-color="white"/>
</radialGradient>
<radialGradient id="paint3_radial_1924_2036" cx="0" cy="0" r="1" gradientUnits="userSpaceOnUse" gradientTransform="translate(255.471 25.1176) rotate(-144.782) scale(7.34423)">
<stop stop-color="#CDD8F2"/>
<stop offset="0.936282" stop-color="white"/>
</radialGradient>
<radialGradient id="paint4_radial_1924_2036" cx="0" cy="0" r="1" gradientUnits="userSpaceOnUse" gradientTransform="translate(40.2353 120.059) rotate(-144.782) scale(24.4808)">
<stop stop-color="#9798F6"/>
<stop offset="0.936282" stop-color="white"/>
</radialGradient>
<radialGradient id="paint5_radial_1924_2036" cx="0" cy="0" r="1" gradientUnits="userSpaceOnUse" gradientTransform="translate(40.2353 120.059) rotate(-144.782) scale(24.4808)">
<stop stop-color="#CDD8F2"/>
<stop offset="0.936282" stop-color="white"/>
</radialGradient>
<radialGradient id="paint6_radial_1924_2036" cx="0" cy="0" r="1" gradientUnits="userSpaceOnUse" gradientTransform="translate(67.8529 24.0882) rotate(-144.782) scale(15.9125)">
<stop stop-color="#9798F6"/>
<stop offset="0.936282" stop-color="white"/>
</radialGradient>
<radialGradient id="paint7_radial_1924_2036" cx="0" cy="0" r="1" gradientUnits="userSpaceOnUse" gradientTransform="translate(67.8529 24.0882) rotate(-144.782) scale(15.9125)">
<stop stop-color="#CDD8F2"/>
<stop offset="0.936282" stop-color="white"/>
</radialGradient>
<radialGradient id="paint8_radial_1924_2036" cx="0" cy="0" r="1" gradientUnits="userSpaceOnUse" gradientTransform="translate(25.3824 11.9706) rotate(-144.782) scale(8.56827)">
<stop stop-color="#9798F6"/>
<stop offset="0.936282" stop-color="white"/>
</radialGradient>
<radialGradient id="paint9_radial_1924_2036" cx="0" cy="0" r="1" gradientUnits="userSpaceOnUse" gradientTransform="translate(25.3824 11.9706) rotate(-144.782) scale(8.56827)">
<stop stop-color="#CDD8F2"/>
<stop offset="0.936282" stop-color="white"/>
</radialGradient>
<radialGradient id="paint10_radial_1924_2036" cx="0" cy="0" r="1" gradientUnits="userSpaceOnUse" gradientTransform="translate(209.088 132.147) rotate(-144.782) scale(40.3933)">
<stop stop-color="#CDD8F2"/>
<stop offset="0.936282" stop-color="white"/>
</radialGradient>
<linearGradient id="paint11_linear_1924_2036" x1="122" y1="87" x2="122" y2="105" gradientUnits="userSpaceOnUse">
<stop stop-color="#E07344"/>
<stop offset="1" stop-color="#EC734D"/>
</linearGradient>
<linearGradient id="paint12_linear_1924_2036" x1="128" y1="93" x2="128" y2="105" gradientUnits="userSpaceOnUse">
<stop stop-color="#E07344"/>
<stop offset="1" stop-color="#EC734D"/>
</linearGradient>
<linearGradient id="paint13_linear_1924_2036" x1="176" y1="93" x2="176" y2="105" gradientUnits="userSpaceOnUse">
<stop stop-color="#E07344"/>
<stop offset="1" stop-color="#EC734D"/>
</linearGradient>
<linearGradient id="paint14_linear_1924_2036" x1="134" y1="90" x2="134" y2="105" gradientUnits="userSpaceOnUse">
<stop stop-color="#E07344"/>
<stop offset="1" stop-color="#EC734D"/>
</linearGradient>
<linearGradient id="paint15_linear_1924_2036" x1="182" y1="90" x2="182" y2="105" gradientUnits="userSpaceOnUse">
<stop stop-color="#E07344"/>
<stop offset="1" stop-color="#EC734D"/>
</linearGradient>
<linearGradient id="paint16_linear_1924_2036" x1="146" y1="93" x2="146" y2="105" gradientUnits="userSpaceOnUse">
<stop stop-color="#E07344"/>
<stop offset="1" stop-color="#EC734D"/>
</linearGradient>
<linearGradient id="paint17_linear_1924_2036" x1="164" y1="93" x2="164" y2="105" gradientUnits="userSpaceOnUse">
<stop stop-color="#E07344"/>
<stop offset="1" stop-color="#EC734D"/>
</linearGradient>
<linearGradient id="paint18_linear_1924_2036" x1="140" y1="97" x2="140" y2="105" gradientUnits="userSpaceOnUse">
<stop stop-color="#E07344"/>
<stop offset="1" stop-color="#EC734D"/>
</linearGradient>
<linearGradient id="paint19_linear_1924_2036" x1="158" y1="97" x2="158" y2="105" gradientUnits="userSpaceOnUse">
<stop stop-color="#E07344"/>
<stop offset="1" stop-color="#EC734D"/>
</linearGradient>
<linearGradient id="paint20_linear_1924_2036" x1="152" y1="95" x2="152" y2="105" gradientUnits="userSpaceOnUse">
<stop stop-color="#E07344"/>
<stop offset="1" stop-color="#EC734D"/>
</linearGradient>
<linearGradient id="paint21_linear_1924_2036" x1="170" y1="95" x2="170" y2="105" gradientUnits="userSpaceOnUse">
<stop stop-color="#E07344"/>
<stop offset="1" stop-color="#EC734D"/>
</linearGradient>
<clipPath id="clip0_1924_2036">
<rect width="272" height="173" rx="16" fill="white"/>
</clipPath>
</defs>
</svg>
