<svg width="340" height="200" viewBox="0 0 340 200" fill="none" xmlns="http://www.w3.org/2000/svg">
<path d="M0 64C0 33.8301 0 18.7452 9.37258 9.37258C18.7452 0 33.8301 0 64 0H276C306.17 0 321.255 0 330.627 9.37258C340 18.7452 340 33.8301 340 64V136C340 166.17 340 181.255 330.627 190.627C321.255 200 306.17 200 276 200H64C33.8301 200 18.7452 200 9.37258 190.627C0 181.255 0 166.17 0 136V64Z" fill="#232529"/>
<path d="M309.391 86.9046V122.128L269.984 144.747L230.561 122.128V76.8882L270 54.2369L300.285 71.6355L304.862 69.017L270 49L226 74.254V124.746L270 150L314 124.746V84.2861L309.391 86.9046Z" fill="url(#paint0_linear_0_2647)"/>
<path d="M258.963 122.159H252.377V100.17H274.353C276.426 100.155 278.42 99.3186 279.887 97.8358C281.354 96.3688 282.167 94.3813 282.183 92.315C282.199 91.2897 281.992 90.2801 281.593 89.3337C281.195 88.3873 280.605 87.5355 279.871 86.8257C279.153 86.1001 278.292 85.5164 277.351 85.1221C276.41 84.7277 275.39 84.5227 274.353 84.5385H252.377V77.8503H274.369C278.212 77.8661 281.912 79.412 284.623 82.1093C287.35 84.8224 288.881 88.4819 288.913 92.315C288.929 95.2489 288.036 98.104 286.346 100.502C284.783 102.789 282.582 104.587 280.015 105.66C277.463 106.464 274.816 106.858 272.152 106.843H258.963V122.159Z" fill="url(#paint1_linear_0_2647)"/>
<path d="M288.755 121.607H281.068L275.136 111.322C277.48 111.181 279.793 110.707 282.009 109.919L288.755 121.607Z" fill="url(#paint2_linear_0_2647)"/>
<path d="M304.798 79.5854L309.343 82.0935L313.888 79.5854V74.2697L309.343 71.6512L304.798 74.2697V79.5854Z" fill="url(#paint3_linear_0_2647)"/>
<path d="M27.8065 81.9258C27.7369 81.2745 27.4435 80.7674 26.9265 80.4045C26.4144 80.0415 25.7482 79.8601 24.9279 79.8601C24.3512 79.8601 23.8565 79.9471 23.4439 80.1211C23.0313 80.2951 22.7156 80.5312 22.4968 80.8295C22.2781 81.1278 22.1662 81.4684 22.1612 81.8512C22.1612 82.1694 22.2333 82.4453 22.3775 82.679C22.5266 82.9126 22.728 83.1115 22.9815 83.2756C23.2351 83.4347 23.516 83.5689 23.8242 83.6783C24.1325 83.7876 24.4432 83.8796 24.7564 83.9542L26.1882 84.3121C26.7649 84.4464 27.3192 84.6278 27.8512 84.8565C28.3881 85.0852 28.8679 85.3736 29.2905 85.7216C29.718 86.0696 30.0561 86.4897 30.3047 86.9819C30.5533 87.4741 30.6776 88.0508 30.6776 88.712C30.6776 89.6069 30.4489 90.3949 29.9915 91.076C29.5341 91.7521 28.8729 92.2816 28.0078 92.6644C27.1477 93.0423 26.1062 93.2312 24.8832 93.2312C23.695 93.2312 22.6634 93.0472 21.7884 92.6793C20.9183 92.3114 20.2372 91.7745 19.745 91.0685C19.2578 90.3626 18.9943 89.5025 18.9545 88.4883H21.6765C21.7163 89.0202 21.8803 89.4627 22.1687 89.8157C22.457 90.1687 22.8324 90.4322 23.2947 90.6062C23.7621 90.7802 24.2841 90.8672 24.8608 90.8672C25.4624 90.8672 25.9893 90.7777 26.4418 90.5987C26.8991 90.4148 27.2571 90.1612 27.5156 89.8381C27.7741 89.5099 27.9059 89.1271 27.9109 88.6896C27.9059 88.2919 27.7891 87.9638 27.5604 87.7053C27.3317 87.4418 27.011 87.223 26.5984 87.049C26.1907 86.87 25.7134 86.7109 25.1665 86.5717L23.429 86.1243C22.1712 85.8011 21.1768 85.3114 20.446 84.6552C19.7202 83.994 19.3572 83.1165 19.3572 82.0227C19.3572 81.1229 19.6009 80.3349 20.0881 79.6587C20.5803 78.9826 21.2489 78.4581 22.0941 78.0852C22.9393 77.7074 23.8963 77.5185 24.9652 77.5185C26.049 77.5185 26.9986 77.7074 27.8139 78.0852C28.6342 78.4581 29.2781 78.9776 29.7454 79.6438C30.2127 80.305 30.4538 81.0657 30.4688 81.9258H27.8065ZM38.7446 81.5455V83.6335H32.1597V81.5455H38.7446ZM33.7854 78.8011H36.485V89.5547C36.485 89.9176 36.5397 90.196 36.6491 90.3899C36.7634 90.5788 36.9126 90.7081 37.0965 90.7777C37.2805 90.8473 37.4843 90.8821 37.708 90.8821C37.877 90.8821 38.0312 90.8697 38.1704 90.8448C38.3145 90.82 38.4239 90.7976 38.4985 90.7777L38.9534 92.8881C38.8092 92.9379 38.6029 92.9925 38.3344 93.0522C38.0709 93.1119 37.7478 93.1467 37.365 93.1566C36.6888 93.1765 36.0798 93.0746 35.5379 92.8509C34.996 92.6222 34.566 92.2692 34.2478 91.7919C33.9346 91.3146 33.7805 90.718 33.7854 90.0021V78.8011ZM44.2985 93.2312C43.5726 93.2312 42.9189 93.1019 42.3372 92.8434C41.7605 92.5799 41.3031 92.1921 40.965 91.68C40.6319 91.168 40.4654 90.5366 40.4654 89.7859C40.4654 89.1396 40.5847 88.6051 40.8233 88.1825C41.062 87.7599 41.3876 87.4219 41.8002 87.1683C42.2129 86.9148 42.6777 86.7234 43.1948 86.5941C43.7168 86.4599 44.2562 86.3629 44.813 86.3033C45.4842 86.2337 46.0286 86.1715 46.4462 86.1168C46.8638 86.0572 47.1671 85.9677 47.356 85.8484C47.5499 85.7241 47.6468 85.5327 47.6468 85.2741V85.2294C47.6468 84.6676 47.4803 84.2326 47.1472 83.9244C46.8141 83.6161 46.3343 83.462 45.7079 83.462C45.0467 83.462 44.5222 83.6062 44.1344 83.8945C43.7516 84.1829 43.4931 84.5234 43.3588 84.9162L40.8382 84.5582C41.0371 83.8622 41.3652 83.2805 41.8226 82.8132C42.28 82.3409 42.8393 81.9879 43.5005 81.7543C44.1618 81.5156 44.8926 81.3963 45.693 81.3963C46.2449 81.3963 46.7942 81.4609 47.3411 81.5902C47.888 81.7195 48.3876 81.9332 48.84 82.2315C49.2924 82.5249 49.6554 82.9251 49.9288 83.4322C50.2072 83.9393 50.3464 84.5732 50.3464 85.3338V93H47.7512V91.4265H47.6618C47.4977 91.7447 47.2665 92.043 46.9682 92.3214C46.6749 92.5948 46.3045 92.8161 45.8571 92.9851C45.4146 93.1491 44.8951 93.2312 44.2985 93.2312ZM44.9995 91.2475C45.5414 91.2475 46.0112 91.1406 46.4089 90.9268C46.8066 90.7081 47.1124 90.4197 47.3262 90.0618C47.5449 89.7038 47.6543 89.3136 47.6543 88.891V87.5412C47.5698 87.6108 47.4256 87.6754 47.2218 87.7351C47.0229 87.7947 46.7992 87.8469 46.5506 87.8917C46.302 87.9364 46.0559 87.9762 45.8123 88.011C45.5687 88.0458 45.3574 88.0756 45.1784 88.1005C44.7757 88.1552 44.4153 88.2447 44.0971 88.369C43.7789 88.4933 43.5279 88.6673 43.3439 88.891C43.16 89.1097 43.068 89.3931 43.068 89.7411C43.068 90.2383 43.2495 90.6136 43.6124 90.8672C43.9753 91.1207 44.4377 91.2475 44.9995 91.2475ZM58.7807 81.5455V83.6335H52.1958V81.5455H58.7807ZM53.8216 78.8011H56.5211V89.5547C56.5211 89.9176 56.5758 90.196 56.6852 90.3899C56.7995 90.5788 56.9487 90.7081 57.1326 90.7777C57.3166 90.8473 57.5204 90.8821 57.7441 90.8821C57.9132 90.8821 58.0673 90.8697 58.2065 90.8448C58.3507 90.82 58.46 90.7976 58.5346 90.7777L58.9895 92.8881C58.8453 92.9379 58.639 92.9925 58.3706 93.0522C58.1071 93.1119 57.7839 93.1467 57.4011 93.1566C56.725 93.1765 56.1159 93.0746 55.574 92.8509C55.0321 92.6222 54.6021 92.2692 54.2839 91.7919C53.9707 91.3146 53.8166 90.718 53.8216 90.0021V78.8011ZM65.9864 93.2237C64.838 93.2237 63.8461 92.9851 63.0109 92.5078C62.1807 92.0256 61.5418 91.3445 61.0944 90.4645C60.6469 89.5795 60.4232 88.538 60.4232 87.3398C60.4232 86.1616 60.6469 85.1275 61.0944 84.2376C61.5468 83.3427 62.1782 82.6467 62.9885 82.1495C63.7989 81.6474 64.751 81.3963 65.8447 81.3963C66.5507 81.3963 67.2169 81.5107 67.8433 81.7393C68.4747 81.9631 69.0315 82.3111 69.5138 82.7834C70.001 83.2557 70.3838 83.8572 70.6622 84.5881C70.9406 85.3139 71.0798 86.179 71.0798 87.1832V88.011H61.691V86.1914H68.4921C68.4871 85.6744 68.3753 85.2145 68.1565 84.8118C67.9378 84.4041 67.632 84.0835 67.2393 83.8498C66.8515 83.6161 66.3991 83.4993 65.882 83.4993C65.3302 83.4993 64.8454 83.6335 64.4278 83.902C64.0102 84.1655 63.6846 84.5135 63.4509 84.946C63.2222 85.3736 63.1054 85.8434 63.1004 86.3555V87.9439C63.1004 88.6101 63.2222 89.1818 63.4658 89.6591C63.7094 90.1314 64.05 90.4943 64.4875 90.7479C64.925 90.9964 65.4371 91.1207 66.0237 91.1207C66.4165 91.1207 66.7719 91.0661 67.0901 90.9567C67.4083 90.8423 67.6842 90.6758 67.9179 90.457C68.1515 90.2383 68.328 89.9673 68.4474 89.6442L70.968 89.9276C70.8089 90.5937 70.5056 91.1754 70.0582 91.6726C69.6157 92.1648 69.0489 92.5476 68.3579 92.821C67.6668 93.0895 66.8763 93.2237 65.9864 93.2237ZM83.5691 93.2237C82.4505 93.2237 81.481 92.9776 80.6607 92.4854C79.8404 91.9933 79.204 91.3047 78.7516 90.4197C78.3042 89.5348 78.0804 88.5007 78.0804 87.3175C78.0804 86.1342 78.3042 85.0977 78.7516 84.2077C79.204 83.3178 79.8404 82.6268 80.6607 82.1346C81.481 81.6424 82.4505 81.3963 83.5691 81.3963C84.6877 81.3963 85.6571 81.6424 86.4775 82.1346C87.2978 82.6268 87.9316 83.3178 88.3791 84.2077C88.8315 85.0977 89.0577 86.1342 89.0577 87.3175C89.0577 88.5007 88.8315 89.5348 88.3791 90.4197C87.9316 91.3047 87.2978 91.9933 86.4775 92.4854C85.6571 92.9776 84.6877 93.2237 83.5691 93.2237ZM83.584 91.0611C84.1905 91.0611 84.6976 90.8945 85.1053 90.5614C85.513 90.2234 85.8162 89.771 86.0151 89.2042C86.2189 88.6374 86.3208 88.006 86.3208 87.31C86.3208 86.609 86.2189 85.9751 86.0151 85.4084C85.8162 84.8366 85.513 84.3817 85.1053 84.0437C84.6976 83.7056 84.1905 83.5366 83.584 83.5366C82.9625 83.5366 82.4455 83.7056 82.0328 84.0437C81.6252 84.3817 81.3194 84.8366 81.1156 85.4084C80.9167 85.9751 80.8173 86.609 80.8173 87.31C80.8173 88.006 80.9167 88.6374 81.1156 89.2042C81.3194 89.771 81.6252 90.2234 82.0328 90.5614C82.4455 90.8945 82.9625 91.0611 83.584 91.0611ZM97.1508 81.5455V83.6335H90.3795V81.5455H97.1508ZM92.0724 93V80.4641C92.0724 79.6935 92.2314 79.0522 92.5496 78.5401C92.8728 78.0281 93.3053 77.6452 93.8472 77.3917C94.3891 77.1381 94.9907 77.0114 95.6519 77.0114C96.1192 77.0114 96.5344 77.0486 96.8973 77.1232C97.2602 77.1978 97.5287 77.2649 97.7027 77.3246L97.1657 79.4126C97.0514 79.3778 96.9072 79.343 96.7332 79.3082C96.5592 79.2685 96.3653 79.2486 96.1515 79.2486C95.6494 79.2486 95.2939 79.3704 95.0851 79.614C94.8813 79.8526 94.7794 80.1957 94.7794 80.6431V93H92.0724ZM104.593 93V77.7273H110.321C111.494 77.7273 112.478 77.9311 113.274 78.3388C114.074 78.7464 114.678 79.3182 115.086 80.054C115.498 80.7848 115.705 81.6374 115.705 82.6119C115.705 83.5913 115.496 84.4414 115.078 85.1623C114.666 85.8782 114.057 86.4325 113.251 86.8253C112.446 87.2131 111.457 87.407 110.283 87.407H106.204V85.1101H109.91C110.597 85.1101 111.158 85.0156 111.596 84.8267C112.033 84.6328 112.356 84.3519 112.565 83.984C112.779 83.6112 112.886 83.1538 112.886 82.6119C112.886 82.07 112.779 81.6076 112.565 81.2248C112.351 80.837 112.026 80.5437 111.588 80.3448C111.151 80.141 110.587 80.0391 109.896 80.0391H107.36V93H104.593ZM112.483 86.0795L116.264 93H113.177L109.463 86.0795H112.483ZM121.428 93.2312C120.703 93.2312 120.049 93.1019 119.467 92.8434C118.89 92.5799 118.433 92.1921 118.095 91.68C117.762 91.168 117.595 90.5366 117.595 89.7859C117.595 89.1396 117.715 88.6051 117.953 88.1825C118.192 87.7599 118.517 87.4219 118.93 87.1683C119.343 86.9148 119.808 86.7234 120.325 86.5941C120.847 86.4599 121.386 86.3629 121.943 86.3033C122.614 86.2337 123.158 86.1715 123.576 86.1168C123.994 86.0572 124.297 85.9677 124.486 85.8484C124.68 85.7241 124.777 85.5327 124.777 85.2741V85.2294C124.777 84.6676 124.61 84.2326 124.277 83.9244C123.944 83.6161 123.464 83.462 122.838 83.462C122.177 83.462 121.652 83.6062 121.264 83.8945C120.881 84.1829 120.623 84.5234 120.489 84.9162L117.968 84.5582C118.167 83.8622 118.495 83.2805 118.953 82.8132C119.41 82.3409 119.969 81.9879 120.63 81.7543C121.292 81.5156 122.022 81.3963 122.823 81.3963C123.375 81.3963 123.924 81.4609 124.471 81.5902C125.018 81.7195 125.517 81.9332 125.97 82.2315C126.422 82.5249 126.785 82.9251 127.059 83.4322C127.337 83.9393 127.476 84.5732 127.476 85.3338V93H124.881V91.4265H124.792C124.628 91.7447 124.396 92.043 124.098 92.3214C123.805 92.5948 123.434 92.8161 122.987 92.9851C122.544 93.1491 122.025 93.2312 121.428 93.2312ZM122.129 91.2475C122.671 91.2475 123.141 91.1406 123.539 90.9268C123.937 90.7081 124.242 90.4197 124.456 90.0618C124.675 89.7038 124.784 89.3136 124.784 88.891V87.5412C124.7 87.6108 124.555 87.6754 124.352 87.7351C124.153 87.7947 123.929 87.8469 123.68 87.8917C123.432 87.9364 123.186 87.9762 122.942 88.011C122.699 88.0458 122.487 88.0756 122.308 88.1005C121.906 88.1552 121.545 88.2447 121.227 88.369C120.909 88.4933 120.658 88.6673 120.474 88.891C120.29 89.1097 120.198 89.3931 120.198 89.7411C120.198 90.2383 120.379 90.6136 120.742 90.8672C121.105 91.1207 121.568 91.2475 122.129 91.2475ZM131.459 97.2955C131.091 97.2955 130.75 97.2656 130.437 97.206C130.129 97.1513 129.883 97.0866 129.699 97.0121L130.325 94.9091C130.718 95.0234 131.068 95.0781 131.377 95.0732C131.685 95.0682 131.956 94.9712 132.189 94.7823C132.428 94.5984 132.629 94.2901 132.793 93.8576L133.025 93.2386L128.871 81.5455H131.734L134.374 90.196H134.494L137.141 81.5455H140.012L135.426 94.3871C135.212 94.9936 134.929 95.5131 134.576 95.9457C134.223 96.3832 133.79 96.7163 133.278 96.945C132.771 97.1786 132.165 97.2955 131.459 97.2955ZM145.741 93.2013C144.841 93.2013 144.036 92.9702 143.325 92.5078C142.614 92.0455 142.052 91.3743 141.64 90.4943C141.227 89.6143 141.021 88.5455 141.021 87.2876C141.021 86.0149 141.23 84.9411 141.647 84.0661C142.07 83.1861 142.639 82.5224 143.355 82.0749C144.071 81.6225 144.869 81.3963 145.749 81.3963C146.42 81.3963 146.972 81.5107 147.404 81.7393C147.837 81.9631 148.18 82.234 148.433 82.5522C148.687 82.8654 148.883 83.1612 149.023 83.4396H149.134V77.7273H151.841V93H149.187V91.1953H149.023C148.883 91.4737 148.682 91.7695 148.419 92.0827C148.155 92.391 147.807 92.6545 147.374 92.8732C146.942 93.092 146.398 93.2013 145.741 93.2013ZM146.494 90.9865C147.066 90.9865 147.553 90.8324 147.956 90.5241C148.359 90.2109 148.665 89.7759 148.873 89.2191C149.082 88.6623 149.187 88.0135 149.187 87.2727C149.187 86.532 149.082 85.8881 148.873 85.3413C148.67 84.7944 148.366 84.3693 147.964 84.0661C147.566 83.7628 147.076 83.6112 146.494 83.6112C145.893 83.6112 145.391 83.7678 144.988 84.081C144.585 84.3942 144.282 84.8267 144.078 85.3786C143.874 85.9304 143.773 86.5618 143.773 87.2727C143.773 87.9886 143.874 88.6275 144.078 89.1893C144.287 89.7461 144.593 90.1861 144.996 90.5092C145.403 90.8274 145.903 90.9865 146.494 90.9865ZM154.718 93V81.5455H157.418V93H154.718ZM156.075 79.9197C155.648 79.9197 155.28 79.7781 154.972 79.4947C154.663 79.2063 154.509 78.8608 154.509 78.4581C154.509 78.0504 154.663 77.7049 154.972 77.4215C155.28 77.1332 155.648 76.989 156.075 76.989C156.508 76.989 156.876 77.1332 157.179 77.4215C157.487 77.7049 157.641 78.0504 157.641 78.4581C157.641 78.8608 157.487 79.2063 157.179 79.4947C156.876 79.7781 156.508 79.9197 156.075 79.9197ZM167.494 88.1825V81.5455H170.194V93H167.577V90.9641H167.457C167.199 91.6055 166.774 92.13 166.182 92.5376C165.595 92.9453 164.872 93.1491 164.012 93.1491C163.261 93.1491 162.597 92.9826 162.021 92.6495C161.449 92.3114 161.002 91.8217 160.678 91.1804C160.355 90.5341 160.194 89.7536 160.194 88.8388V81.5455H162.893V88.4212C162.893 89.147 163.092 89.7237 163.49 90.1513C163.888 90.5788 164.41 90.7926 165.056 90.7926C165.454 90.7926 165.839 90.6957 166.212 90.5018C166.585 90.3079 166.89 90.0195 167.129 89.6367C167.373 89.2489 167.494 88.7642 167.494 88.1825ZM172.97 93V81.5455H175.55V83.4918H175.685C175.923 82.8356 176.318 82.3235 176.87 81.9556C177.422 81.5827 178.081 81.3963 178.847 81.3963C179.622 81.3963 180.276 81.5852 180.808 81.9631C181.345 82.3359 181.723 82.8455 181.941 83.4918H182.061C182.314 82.8555 182.742 82.3484 183.343 81.9705C183.95 81.5877 184.668 81.3963 185.498 81.3963C186.552 81.3963 187.413 81.7294 188.079 82.3956C188.745 83.0618 189.078 84.0337 189.078 85.3114V93H186.371V85.729C186.371 85.0181 186.182 84.4986 185.804 84.1705C185.426 83.8374 184.964 83.6708 184.417 83.6708C183.766 83.6708 183.256 83.8746 182.888 84.2823C182.525 84.685 182.344 85.2095 182.344 85.8558V93H179.697V85.6172C179.697 85.0256 179.518 84.5533 179.16 84.2003C178.807 83.8473 178.344 83.6708 177.773 83.6708C177.385 83.6708 177.032 83.7702 176.714 83.9691C176.396 84.163 176.142 84.4389 175.953 84.7969C175.764 85.1499 175.67 85.5625 175.67 86.0348V93H172.97ZM25.1964 116.869H27.7021L29.1861 118.793L30.245 120.046L32.788 123.312H30.1033L28.3732 121.12L27.6349 120.076L25.1964 116.869ZM33.1534 114.364C33.1534 116.009 32.8452 117.419 32.2287 118.592C31.6172 119.76 30.782 120.655 29.723 121.277C28.669 121.898 27.4734 122.209 26.136 122.209C24.7987 122.209 23.6005 121.898 22.5415 121.277C21.4876 120.65 20.6523 119.753 20.0359 118.585C19.4244 117.411 19.1186 116.004 19.1186 114.364C19.1186 112.718 19.4244 111.311 20.0359 110.143C20.6523 108.969 21.4876 108.072 22.5415 107.451C23.6005 106.829 24.7987 106.518 26.136 106.518C27.4734 106.518 28.669 106.829 29.723 107.451C30.782 108.072 31.6172 108.969 32.2287 110.143C32.8452 111.311 33.1534 112.718 33.1534 114.364ZM30.3718 114.364C30.3718 113.205 30.1903 112.228 29.8274 111.433C29.4695 110.632 28.9723 110.028 28.3359 109.621C27.6996 109.208 26.9663 109.002 26.136 109.002C25.3058 109.002 24.5724 109.208 23.9361 109.621C23.2997 110.028 22.8001 110.632 22.4371 111.433C22.0792 112.228 21.9002 113.205 21.9002 114.364C21.9002 115.522 22.0792 116.501 22.4371 117.302C22.8001 118.097 23.2997 118.701 23.9361 119.114C24.5724 119.522 25.3058 119.725 26.136 119.725C26.9663 119.725 27.6996 119.522 28.3359 119.114C28.9723 118.701 29.4695 118.097 29.8274 117.302C30.1903 116.501 30.3718 115.522 30.3718 114.364ZM41.1216 122.209C40.0478 122.209 39.0932 122.025 38.258 121.657C37.4277 121.289 36.7715 120.777 36.2892 120.121C35.807 119.464 35.551 118.706 35.5211 117.846H38.3251C38.35 118.259 38.4867 118.619 38.7353 118.928C38.9838 119.231 39.3145 119.467 39.7271 119.636C40.1397 119.805 40.6021 119.89 41.1142 119.89C41.661 119.89 42.1458 119.795 42.5684 119.606C42.9909 119.412 43.3216 119.144 43.5602 118.801C43.7988 118.458 43.9157 118.062 43.9107 117.615C43.9157 117.153 43.7963 116.745 43.5527 116.392C43.3091 116.039 42.9561 115.763 42.4938 115.564C42.0364 115.365 41.4846 115.266 40.8382 115.266H39.4885V113.133H40.8382C41.3702 113.133 41.8351 113.041 42.2328 112.857C42.6355 112.673 42.9512 112.415 43.1799 112.082C43.4086 111.744 43.5204 111.353 43.5154 110.911C43.5204 110.478 43.4235 110.103 43.2246 109.785C43.0307 109.462 42.7548 109.211 42.3968 109.032C42.0439 108.853 41.6287 108.763 41.1515 108.763C40.6841 108.763 40.2516 108.848 39.8539 109.017C39.4561 109.186 39.1355 109.427 38.8919 109.74C38.6483 110.048 38.519 110.416 38.5041 110.844H35.8418C35.8617 109.989 36.1078 109.238 36.5801 108.592C37.0574 107.94 37.6937 107.433 38.4892 107.07C39.2846 106.702 40.177 106.518 41.1664 106.518C42.1855 106.518 43.0705 106.71 43.8212 107.093C44.5769 107.471 45.161 107.98 45.5737 108.621C45.9863 109.263 46.1926 109.971 46.1926 110.747C46.1976 111.607 45.9441 112.328 45.432 112.909C44.9249 113.491 44.2587 113.871 43.4334 114.05V114.17C44.5073 114.319 45.3301 114.717 45.9018 115.363C46.4785 116.004 46.7644 116.802 46.7594 117.757C46.7594 118.612 46.5158 119.377 46.0286 120.054C45.5463 120.725 44.8801 121.252 44.03 121.635C43.1848 122.017 42.2154 122.209 41.1216 122.209ZM54.5281 122V120.001L59.8303 114.804C60.3374 114.292 60.76 113.837 61.0981 113.439C61.4362 113.041 61.6897 112.656 61.8588 112.283C62.0278 111.91 62.1123 111.512 62.1123 111.09C62.1123 110.608 62.0029 110.195 61.7842 109.852C61.5654 109.504 61.2646 109.235 60.8818 109.047C60.499 108.858 60.064 108.763 59.5768 108.763C59.0747 108.763 58.6347 108.868 58.2568 109.076C57.879 109.28 57.5857 109.571 57.3769 109.949C57.173 110.327 57.0711 110.777 57.0711 111.299H54.4387C54.4387 110.329 54.6599 109.487 55.1024 108.771C55.5448 108.055 56.1539 107.5 56.9294 107.108C57.71 106.715 58.6048 106.518 59.6141 106.518C60.6382 106.518 61.5381 106.71 62.3137 107.093C63.0892 107.475 63.6908 108 64.1183 108.666C64.5509 109.332 64.7671 110.093 64.7671 110.948C64.7671 111.52 64.6578 112.082 64.439 112.634C64.2203 113.185 63.835 113.797 63.2831 114.468C62.7362 115.139 61.9681 115.952 60.9788 116.907L58.3463 119.584V119.688H64.9983V122H54.5281ZM73.2164 122.291C71.9884 122.291 70.9344 121.98 70.0544 121.359C69.1794 120.732 68.5058 119.83 68.0335 118.652C67.5661 117.468 67.3325 116.044 67.3325 114.379C67.3374 112.713 67.5736 111.296 68.0409 110.128C68.5132 108.955 69.1869 108.06 70.0619 107.443C70.9419 106.827 71.9933 106.518 73.2164 106.518C74.4394 106.518 75.4909 106.827 76.3708 107.443C77.2508 108.06 77.9244 108.955 78.3918 110.128C78.8641 111.301 79.1002 112.718 79.1002 114.379C79.1002 116.049 78.8641 117.476 78.3918 118.659C77.9244 119.837 77.2508 120.737 76.3708 121.359C75.4958 121.98 74.4443 122.291 73.2164 122.291ZM73.2164 119.957C74.1709 119.957 74.9241 119.487 75.4759 118.547C76.0328 117.603 76.3112 116.213 76.3112 114.379C76.3112 113.165 76.1844 112.146 75.9308 111.321C75.6773 110.496 75.3193 109.874 74.857 109.457C74.3946 109.034 73.8477 108.823 73.2164 108.823C72.2668 108.823 71.5161 109.295 70.9642 110.24C70.4124 111.179 70.134 112.559 70.129 114.379C70.124 115.597 70.2458 116.621 70.4944 117.451C70.748 118.281 71.1059 118.908 71.5683 119.33C72.0306 119.748 72.58 119.957 73.2164 119.957ZM81.5779 122V120.001L86.8801 114.804C87.3873 114.292 87.8098 113.837 88.1479 113.439C88.486 113.041 88.7395 112.656 88.9086 112.283C89.0776 111.91 89.1621 111.512 89.1621 111.09C89.1621 110.608 89.0527 110.195 88.834 109.852C88.6152 109.504 88.3145 109.235 87.9316 109.047C87.5488 108.858 87.1138 108.763 86.6266 108.763C86.1245 108.763 85.6845 108.868 85.3066 109.076C84.9288 109.28 84.6355 109.571 84.4267 109.949C84.2228 110.327 84.1209 110.777 84.1209 111.299H81.4885C81.4885 110.329 81.7097 109.487 82.1522 108.771C82.5946 108.055 83.2037 107.5 83.9792 107.108C84.7598 106.715 85.6547 106.518 86.6639 106.518C87.688 106.518 88.5879 106.71 89.3635 107.093C90.139 107.475 90.7406 108 91.1681 108.666C91.6007 109.332 91.8169 110.093 91.8169 110.948C91.8169 111.52 91.7076 112.082 91.4888 112.634C91.2701 113.185 90.8848 113.797 90.3329 114.468C89.786 115.139 89.0179 115.952 88.0286 116.907L85.3961 119.584V119.688H92.0481V122H81.5779ZM94.0169 119.166V116.966L100.497 106.727H102.332V109.859H101.213L96.8507 116.772V116.892H105.896V119.166H94.0169ZM101.303 122V118.495L101.333 117.511V106.727H103.943V122H101.303Z" fill="#E4E4E4"/>
<defs>
<linearGradient id="paint0_linear_0_2647" x1="316.668" y1="81.1448" x2="223.522" y2="118.604" gradientUnits="userSpaceOnUse">
<stop stop-color="#C200FB"/>
<stop offset="0.4897" stop-color="#3772FF"/>
<stop offset="0.4898" stop-color="#3773FE"/>
<stop offset="1" stop-color="#5AC4BE"/>
</linearGradient>
<linearGradient id="paint1_linear_0_2647" x1="314.884" y1="76.7116" x2="221.739" y2="114.171" gradientUnits="userSpaceOnUse">
<stop stop-color="#C200FB"/>
<stop offset="0.4897" stop-color="#3772FF"/>
<stop offset="0.4898" stop-color="#3773FE"/>
<stop offset="1" stop-color="#5AC4BE"/>
</linearGradient>
<linearGradient id="paint2_linear_0_2647" x1="324.189" y1="99.846" x2="231.044" y2="137.305" gradientUnits="userSpaceOnUse">
<stop stop-color="#C200FB"/>
<stop offset="0.4897" stop-color="#3772FF"/>
<stop offset="0.4898" stop-color="#3773FE"/>
<stop offset="1" stop-color="#5AC4BE"/>
</linearGradient>
<linearGradient id="paint3_linear_0_2647" x1="314.181" y1="74.9802" x2="221.036" y2="112.439" gradientUnits="userSpaceOnUse">
<stop stop-color="#C200FB"/>
<stop offset="0.4897" stop-color="#3772FF"/>
<stop offset="0.4898" stop-color="#3773FE"/>
<stop offset="1" stop-color="#5AC4BE"/>
</linearGradient>
</defs>
</svg>
