<svg width="340" height="200" viewBox="0 0 340 200" fill="none" xmlns="http://www.w3.org/2000/svg">
<path d="M0 64C0 33.8301 0 18.7452 9.37258 9.37258C18.7452 0 33.8301 0 64 0H276C306.17 0 321.255 0 330.627 9.37258C340 18.7452 340 33.8301 340 64V136C340 166.17 340 181.255 330.627 190.627C321.255 200 306.17 200 276 200H64C33.8301 200 18.7452 200 9.37258 190.627C0 181.255 0 166.17 0 136V64Z" fill="#232529"/>
<path d="M27.8065 81.9258C27.7369 81.2745 27.4435 80.7674 26.9265 80.4045C26.4144 80.0415 25.7482 79.8601 24.9279 79.8601C24.3512 79.8601 23.8565 79.9471 23.4439 80.1211C23.0313 80.2951 22.7156 80.5312 22.4968 80.8295C22.2781 81.1278 22.1662 81.4684 22.1612 81.8512C22.1612 82.1694 22.2333 82.4453 22.3775 82.679C22.5266 82.9126 22.728 83.1115 22.9815 83.2756C23.2351 83.4347 23.516 83.5689 23.8242 83.6783C24.1325 83.7876 24.4432 83.8796 24.7564 83.9542L26.1882 84.3121C26.7649 84.4464 27.3192 84.6278 27.8512 84.8565C28.3881 85.0852 28.8679 85.3736 29.2905 85.7216C29.718 86.0696 30.0561 86.4897 30.3047 86.9819C30.5533 87.4741 30.6776 88.0508 30.6776 88.712C30.6776 89.6069 30.4489 90.3949 29.9915 91.076C29.5341 91.7521 28.8729 92.2816 28.0078 92.6644C27.1477 93.0423 26.1062 93.2312 24.8832 93.2312C23.695 93.2312 22.6634 93.0472 21.7884 92.6793C20.9183 92.3114 20.2372 91.7745 19.745 91.0685C19.2578 90.3626 18.9943 89.5025 18.9545 88.4883H21.6765C21.7163 89.0202 21.8803 89.4627 22.1687 89.8157C22.457 90.1687 22.8324 90.4322 23.2947 90.6062C23.7621 90.7802 24.2841 90.8672 24.8608 90.8672C25.4624 90.8672 25.9893 90.7777 26.4418 90.5987C26.8991 90.4148 27.2571 90.1612 27.5156 89.8381C27.7741 89.5099 27.9059 89.1271 27.9109 88.6896C27.9059 88.2919 27.7891 87.9638 27.5604 87.7053C27.3317 87.4418 27.011 87.223 26.5984 87.049C26.1907 86.87 25.7134 86.7109 25.1665 86.5717L23.429 86.1243C22.1712 85.8011 21.1768 85.3114 20.446 84.6552C19.7202 83.994 19.3572 83.1165 19.3572 82.0227C19.3572 81.1229 19.6009 80.3349 20.0881 79.6587C20.5803 78.9826 21.2489 78.4581 22.0941 78.0852C22.9393 77.7074 23.8963 77.5185 24.9652 77.5185C26.049 77.5185 26.9986 77.7074 27.8139 78.0852C28.6342 78.4581 29.2781 78.9776 29.7454 79.6438C30.2127 80.305 30.4538 81.0657 30.4688 81.9258H27.8065ZM38.7446 81.5455V83.6335H32.1597V81.5455H38.7446ZM33.7854 78.8011H36.485V89.5547C36.485 89.9176 36.5397 90.196 36.6491 90.3899C36.7634 90.5788 36.9126 90.7081 37.0965 90.7777C37.2805 90.8473 37.4843 90.8821 37.708 90.8821C37.877 90.8821 38.0312 90.8697 38.1704 90.8448C38.3145 90.82 38.4239 90.7976 38.4985 90.7777L38.9534 92.8881C38.8092 92.9379 38.6029 92.9925 38.3344 93.0522C38.0709 93.1119 37.7478 93.1467 37.365 93.1566C36.6888 93.1765 36.0798 93.0746 35.5379 92.8509C34.996 92.6222 34.566 92.2692 34.2478 91.7919C33.9346 91.3146 33.7805 90.718 33.7854 90.0021V78.8011ZM44.2985 93.2312C43.5726 93.2312 42.9189 93.1019 42.3372 92.8434C41.7605 92.5799 41.3031 92.1921 40.965 91.68C40.6319 91.168 40.4654 90.5366 40.4654 89.7859C40.4654 89.1396 40.5847 88.6051 40.8233 88.1825C41.062 87.7599 41.3876 87.4219 41.8002 87.1683C42.2129 86.9148 42.6777 86.7234 43.1948 86.5941C43.7168 86.4599 44.2562 86.3629 44.813 86.3033C45.4842 86.2337 46.0286 86.1715 46.4462 86.1168C46.8638 86.0572 47.1671 85.9677 47.356 85.8484C47.5499 85.7241 47.6468 85.5327 47.6468 85.2741V85.2294C47.6468 84.6676 47.4803 84.2326 47.1472 83.9244C46.8141 83.6161 46.3343 83.462 45.7079 83.462C45.0467 83.462 44.5222 83.6062 44.1344 83.8945C43.7516 84.1829 43.4931 84.5234 43.3588 84.9162L40.8382 84.5582C41.0371 83.8622 41.3652 83.2805 41.8226 82.8132C42.28 82.3409 42.8393 81.9879 43.5005 81.7543C44.1618 81.5156 44.8926 81.3963 45.693 81.3963C46.2449 81.3963 46.7942 81.4609 47.3411 81.5902C47.888 81.7195 48.3876 81.9332 48.84 82.2315C49.2924 82.5249 49.6554 82.9251 49.9288 83.4322C50.2072 83.9393 50.3464 84.5732 50.3464 85.3338V93H47.7512V91.4265H47.6618C47.4977 91.7447 47.2665 92.043 46.9682 92.3214C46.6749 92.5948 46.3045 92.8161 45.8571 92.9851C45.4146 93.1491 44.8951 93.2312 44.2985 93.2312ZM44.9995 91.2475C45.5414 91.2475 46.0112 91.1406 46.4089 90.9268C46.8066 90.7081 47.1124 90.4197 47.3262 90.0618C47.5449 89.7038 47.6543 89.3136 47.6543 88.891V87.5412C47.5698 87.6108 47.4256 87.6754 47.2218 87.7351C47.0229 87.7947 46.7992 87.8469 46.5506 87.8917C46.302 87.9364 46.0559 87.9762 45.8123 88.011C45.5687 88.0458 45.3574 88.0756 45.1784 88.1005C44.7757 88.1552 44.4153 88.2447 44.0971 88.369C43.7789 88.4933 43.5279 88.6673 43.3439 88.891C43.16 89.1097 43.068 89.3931 43.068 89.7411C43.068 90.2383 43.2495 90.6136 43.6124 90.8672C43.9753 91.1207 44.4377 91.2475 44.9995 91.2475ZM58.7807 81.5455V83.6335H52.1958V81.5455H58.7807ZM53.8216 78.8011H56.5211V89.5547C56.5211 89.9176 56.5758 90.196 56.6852 90.3899C56.7995 90.5788 56.9487 90.7081 57.1326 90.7777C57.3166 90.8473 57.5204 90.8821 57.7441 90.8821C57.9132 90.8821 58.0673 90.8697 58.2065 90.8448C58.3507 90.82 58.46 90.7976 58.5346 90.7777L58.9895 92.8881C58.8453 92.9379 58.639 92.9925 58.3706 93.0522C58.1071 93.1119 57.7839 93.1467 57.4011 93.1566C56.725 93.1765 56.1159 93.0746 55.574 92.8509C55.0321 92.6222 54.6021 92.2692 54.2839 91.7919C53.9707 91.3146 53.8166 90.718 53.8216 90.0021V78.8011ZM65.9864 93.2237C64.838 93.2237 63.8461 92.9851 63.0109 92.5078C62.1807 92.0256 61.5418 91.3445 61.0944 90.4645C60.6469 89.5795 60.4232 88.538 60.4232 87.3398C60.4232 86.1616 60.6469 85.1275 61.0944 84.2376C61.5468 83.3427 62.1782 82.6467 62.9885 82.1495C63.7989 81.6474 64.751 81.3963 65.8447 81.3963C66.5507 81.3963 67.2169 81.5107 67.8433 81.7393C68.4747 81.9631 69.0315 82.3111 69.5138 82.7834C70.001 83.2557 70.3838 83.8572 70.6622 84.5881C70.9406 85.3139 71.0798 86.179 71.0798 87.1832V88.011H61.691V86.1914H68.4921C68.4871 85.6744 68.3753 85.2145 68.1565 84.8118C67.9378 84.4041 67.632 84.0835 67.2393 83.8498C66.8515 83.6161 66.3991 83.4993 65.882 83.4993C65.3302 83.4993 64.8454 83.6335 64.4278 83.902C64.0102 84.1655 63.6846 84.5135 63.4509 84.946C63.2222 85.3736 63.1054 85.8434 63.1004 86.3555V87.9439C63.1004 88.6101 63.2222 89.1818 63.4658 89.6591C63.7094 90.1314 64.05 90.4943 64.4875 90.7479C64.925 90.9964 65.4371 91.1207 66.0237 91.1207C66.4165 91.1207 66.7719 91.0661 67.0901 90.9567C67.4083 90.8423 67.6842 90.6758 67.9179 90.457C68.1515 90.2383 68.328 89.9673 68.4474 89.6442L70.968 89.9276C70.8089 90.5937 70.5056 91.1754 70.0582 91.6726C69.6157 92.1648 69.0489 92.5476 68.3579 92.821C67.6668 93.0895 66.8763 93.2237 65.9864 93.2237ZM83.5691 93.2237C82.4505 93.2237 81.481 92.9776 80.6607 92.4854C79.8404 91.9933 79.204 91.3047 78.7516 90.4197C78.3042 89.5348 78.0804 88.5007 78.0804 87.3175C78.0804 86.1342 78.3042 85.0977 78.7516 84.2077C79.204 83.3178 79.8404 82.6268 80.6607 82.1346C81.481 81.6424 82.4505 81.3963 83.5691 81.3963C84.6877 81.3963 85.6571 81.6424 86.4775 82.1346C87.2978 82.6268 87.9316 83.3178 88.3791 84.2077C88.8315 85.0977 89.0577 86.1342 89.0577 87.3175C89.0577 88.5007 88.8315 89.5348 88.3791 90.4197C87.9316 91.3047 87.2978 91.9933 86.4775 92.4854C85.6571 92.9776 84.6877 93.2237 83.5691 93.2237ZM83.584 91.0611C84.1905 91.0611 84.6976 90.8945 85.1053 90.5614C85.513 90.2234 85.8162 89.771 86.0151 89.2042C86.2189 88.6374 86.3208 88.006 86.3208 87.31C86.3208 86.609 86.2189 85.9751 86.0151 85.4084C85.8162 84.8366 85.513 84.3817 85.1053 84.0437C84.6976 83.7056 84.1905 83.5366 83.584 83.5366C82.9625 83.5366 82.4455 83.7056 82.0328 84.0437C81.6252 84.3817 81.3194 84.8366 81.1156 85.4084C80.9167 85.9751 80.8173 86.609 80.8173 87.31C80.8173 88.006 80.9167 88.6374 81.1156 89.2042C81.3194 89.771 81.6252 90.2234 82.0328 90.5614C82.4455 90.8945 82.9625 91.0611 83.584 91.0611ZM97.1508 81.5455V83.6335H90.3795V81.5455H97.1508ZM92.0724 93V80.4641C92.0724 79.6935 92.2314 79.0522 92.5496 78.5401C92.8728 78.0281 93.3053 77.6452 93.8472 77.3917C94.3891 77.1381 94.9907 77.0114 95.6519 77.0114C96.1192 77.0114 96.5344 77.0486 96.8973 77.1232C97.2602 77.1978 97.5287 77.2649 97.7027 77.3246L97.1657 79.4126C97.0514 79.3778 96.9072 79.343 96.7332 79.3082C96.5592 79.2685 96.3653 79.2486 96.1515 79.2486C95.6494 79.2486 95.2939 79.3704 95.0851 79.614C94.8813 79.8526 94.7794 80.1957 94.7794 80.6431V93H92.0724ZM104.593 77.7273H107.979L112.513 88.794H112.692L117.226 77.7273H120.612V93H117.957V82.5075H117.815L113.594 92.9553H111.611L107.39 82.4851H107.248V93H104.593V77.7273ZM128.576 93.2237C127.428 93.2237 126.436 92.9851 125.601 92.5078C124.771 92.0256 124.132 91.3445 123.684 90.4645C123.237 89.5795 123.013 88.538 123.013 87.3398C123.013 86.1616 123.237 85.1275 123.684 84.2376C124.137 83.3427 124.768 82.6467 125.578 82.1495C126.389 81.6474 127.341 81.3963 128.435 81.3963C129.141 81.3963 129.807 81.5107 130.433 81.7393C131.065 81.9631 131.621 82.3111 132.104 82.7834C132.591 83.2557 132.974 83.8572 133.252 84.5881C133.53 85.3139 133.67 86.179 133.67 87.1832V88.011H124.281V86.1914H131.082C131.077 85.6744 130.965 85.2145 130.746 84.8118C130.528 84.4041 130.222 84.0835 129.829 83.8498C129.441 83.6161 128.989 83.4993 128.472 83.4993C127.92 83.4993 127.435 83.6335 127.018 83.902C126.6 84.1655 126.274 84.5135 126.041 84.946C125.812 85.3736 125.695 85.8434 125.69 86.3555V87.9439C125.69 88.6101 125.812 89.1818 126.056 89.6591C126.299 90.1314 126.64 90.4943 127.077 90.7479C127.515 90.9964 128.027 91.1207 128.614 91.1207C129.006 91.1207 129.362 91.0661 129.68 90.9567C129.998 90.8423 130.274 90.6758 130.508 90.457C130.741 90.2383 130.918 89.9673 131.037 89.6442L133.558 89.9276C133.399 90.5937 133.095 91.1754 132.648 91.6726C132.206 92.1648 131.639 92.5476 130.948 92.821C130.257 93.0895 129.466 93.2237 128.576 93.2237ZM141.673 81.5455V83.6335H135.088V81.5455H141.673ZM136.714 78.8011H139.414V89.5547C139.414 89.9176 139.468 90.196 139.578 90.3899C139.692 90.5788 139.841 90.7081 140.025 90.7777C140.209 90.8473 140.413 90.8821 140.637 90.8821C140.806 90.8821 140.96 90.8697 141.099 90.8448C141.243 90.82 141.353 90.7976 141.427 90.7777L141.882 92.8881C141.738 92.9379 141.532 92.9925 141.263 93.0522C141 93.1119 140.676 93.1467 140.294 93.1566C139.618 93.1765 139.009 93.0746 138.467 92.8509C137.925 92.6222 137.495 92.2692 137.176 91.7919C136.863 91.3146 136.709 90.718 136.714 90.0021V78.8011ZM147.227 93.2312C146.501 93.2312 145.848 93.1019 145.266 92.8434C144.689 92.5799 144.232 92.1921 143.894 91.68C143.561 91.168 143.394 90.5366 143.394 89.7859C143.394 89.1396 143.513 88.6051 143.752 88.1825C143.991 87.7599 144.316 87.4219 144.729 87.1683C145.142 86.9148 145.606 86.7234 146.123 86.5941C146.646 86.4599 147.185 86.3629 147.742 86.3033C148.413 86.2337 148.957 86.1715 149.375 86.1168C149.793 86.0572 150.096 85.9677 150.285 85.8484C150.479 85.7241 150.576 85.5327 150.576 85.2741V85.2294C150.576 84.6676 150.409 84.2326 150.076 83.9244C149.743 83.6161 149.263 83.462 148.637 83.462C147.975 83.462 147.451 83.6062 147.063 83.8945C146.68 84.1829 146.422 84.5234 146.288 84.9162L143.767 84.5582C143.966 83.8622 144.294 83.2805 144.751 82.8132C145.209 82.3409 145.768 81.9879 146.429 81.7543C147.09 81.5156 147.821 81.3963 148.622 81.3963C149.174 81.3963 149.723 81.4609 150.27 81.5902C150.817 81.7195 151.316 81.9332 151.769 82.2315C152.221 82.5249 152.584 82.9251 152.858 83.4322C153.136 83.9393 153.275 84.5732 153.275 85.3338V93H150.68V91.4265H150.59C150.426 91.7447 150.195 92.043 149.897 92.3214C149.604 92.5948 149.233 92.8161 148.786 92.9851C148.343 93.1491 147.824 93.2312 147.227 93.2312ZM147.928 91.2475C148.47 91.2475 148.94 91.1406 149.338 90.9268C149.735 90.7081 150.041 90.4197 150.255 90.0618C150.474 89.7038 150.583 89.3136 150.583 88.891V87.5412C150.498 87.6108 150.354 87.6754 150.15 87.7351C149.952 87.7947 149.728 87.8469 149.479 87.8917C149.231 87.9364 148.985 87.9762 148.741 88.011C148.497 88.0458 148.286 88.0756 148.107 88.1005C147.704 88.1552 147.344 88.2447 147.026 88.369C146.708 88.4933 146.457 88.6673 146.273 88.891C146.089 89.1097 145.997 89.3931 145.997 89.7411C145.997 90.2383 146.178 90.6136 146.541 90.8672C146.904 91.1207 147.366 91.2475 147.928 91.2475ZM155.99 97.2955V81.5455H158.644V83.4396H158.801C158.94 83.1612 159.137 82.8654 159.39 82.5522C159.644 82.234 159.987 81.9631 160.419 81.7393C160.852 81.5107 161.404 81.3963 162.075 81.3963C162.96 81.3963 163.758 81.6225 164.469 82.0749C165.185 82.5224 165.751 83.1861 166.169 84.0661C166.592 84.9411 166.803 86.0149 166.803 87.2876C166.803 88.5455 166.597 89.6143 166.184 90.4943C165.771 91.3743 165.209 92.0455 164.498 92.5078C163.788 92.9702 162.982 93.2013 162.082 93.2013C161.426 93.2013 160.882 93.092 160.449 92.8732C160.017 92.6545 159.669 92.391 159.405 92.0827C159.147 91.7695 158.945 91.4737 158.801 91.1953H158.689V97.2955H155.99ZM158.637 87.2727C158.637 88.0135 158.741 88.6623 158.95 89.2191C159.164 89.7759 159.47 90.2109 159.867 90.5241C160.27 90.8324 160.757 90.9865 161.329 90.9865C161.926 90.9865 162.425 90.8274 162.828 90.5092C163.231 90.1861 163.534 89.7461 163.738 89.1893C163.947 88.6275 164.051 87.9886 164.051 87.2727C164.051 86.5618 163.949 85.9304 163.745 85.3786C163.541 84.8267 163.238 84.3942 162.835 84.081C162.433 83.7678 161.931 83.6112 161.329 83.6112C160.752 83.6112 160.263 83.7628 159.86 84.0661C159.457 84.3693 159.152 84.7944 158.943 85.3413C158.739 85.8881 158.637 86.532 158.637 87.2727ZM171.814 77.7273V93H169.115V77.7273H171.814ZM179.661 93.2237C178.513 93.2237 177.521 92.9851 176.686 92.5078C175.855 92.0256 175.217 91.3445 174.769 90.4645C174.322 89.5795 174.098 88.538 174.098 87.3398C174.098 86.1616 174.322 85.1275 174.769 84.2376C175.222 83.3427 175.853 82.6467 176.663 82.1495C177.474 81.6474 178.426 81.3963 179.52 81.3963C180.225 81.3963 180.892 81.5107 181.518 81.7393C182.15 81.9631 182.706 82.3111 183.189 82.7834C183.676 83.2557 184.059 83.8572 184.337 84.5881C184.615 85.3139 184.755 86.179 184.755 87.1832V88.011H175.366V86.1914H182.167C182.162 85.6744 182.05 85.2145 181.831 84.8118C181.613 84.4041 181.307 84.0835 180.914 83.8498C180.526 83.6161 180.074 83.4993 179.557 83.4993C179.005 83.4993 178.52 83.6335 178.103 83.902C177.685 84.1655 177.359 84.5135 177.126 84.946C176.897 85.3736 176.78 85.8434 176.775 86.3555V87.9439C176.775 88.6101 176.897 89.1818 177.141 89.6591C177.384 90.1314 177.725 90.4943 178.162 90.7479C178.6 90.9964 179.112 91.1207 179.699 91.1207C180.091 91.1207 180.447 91.0661 180.765 90.9567C181.083 90.8423 181.359 90.6758 181.593 90.457C181.826 90.2383 182.003 89.9673 182.122 89.6442L184.643 89.9276C184.484 90.5937 184.18 91.1754 183.733 91.6726C183.29 92.1648 182.724 92.5476 182.033 92.821C181.342 93.0895 180.551 93.2237 179.661 93.2237ZM189 81.5455L191.312 85.7738L193.661 81.5455H196.517L193.064 87.2727L196.576 93H193.735L191.312 88.8761L188.91 93H186.047L189.537 87.2727L186.136 81.5455H189ZM25.1964 116.869H27.7021L29.1861 118.793L30.245 120.046L32.788 123.312H30.1033L28.3732 121.12L27.6349 120.076L25.1964 116.869ZM33.1534 114.364C33.1534 116.009 32.8452 117.419 32.2287 118.592C31.6172 119.76 30.782 120.655 29.723 121.277C28.669 121.898 27.4734 122.209 26.136 122.209C24.7987 122.209 23.6005 121.898 22.5415 121.277C21.4876 120.65 20.6523 119.753 20.0359 118.585C19.4244 117.411 19.1186 116.004 19.1186 114.364C19.1186 112.718 19.4244 111.311 20.0359 110.143C20.6523 108.969 21.4876 108.072 22.5415 107.451C23.6005 106.829 24.7987 106.518 26.136 106.518C27.4734 106.518 28.669 106.829 29.723 107.451C30.782 108.072 31.6172 108.969 32.2287 110.143C32.8452 111.311 33.1534 112.718 33.1534 114.364ZM30.3718 114.364C30.3718 113.205 30.1903 112.228 29.8274 111.433C29.4695 110.632 28.9723 110.028 28.3359 109.621C27.6996 109.208 26.9663 109.002 26.136 109.002C25.3058 109.002 24.5724 109.208 23.9361 109.621C23.2997 110.028 22.8001 110.632 22.4371 111.433C22.0792 112.228 21.9002 113.205 21.9002 114.364C21.9002 115.522 22.0792 116.501 22.4371 117.302C22.8001 118.097 23.2997 118.701 23.9361 119.114C24.5724 119.522 25.3058 119.725 26.136 119.725C26.9663 119.725 27.6996 119.522 28.3359 119.114C28.9723 118.701 29.4695 118.097 29.8274 117.302C30.1903 116.501 30.3718 115.522 30.3718 114.364ZM41.8525 106.727V122H39.0858V109.419H38.9963L35.4242 111.701V109.166L39.22 106.727H41.8525ZM50.9393 122V120.001L56.2415 114.804C56.7486 114.292 57.1712 113.837 57.5092 113.439C57.8473 113.041 58.1009 112.656 58.2699 112.283C58.4389 111.91 58.5234 111.512 58.5234 111.09C58.5234 110.608 58.4141 110.195 58.1953 109.852C57.9766 109.504 57.6758 109.235 57.293 109.047C56.9102 108.858 56.4751 108.763 55.9879 108.763C55.4858 108.763 55.0458 108.868 54.668 109.076C54.2901 109.28 53.9968 109.571 53.788 109.949C53.5842 110.327 53.4822 110.777 53.4822 111.299H50.8498C50.8498 110.329 51.071 109.487 51.5135 108.771C51.956 108.055 52.565 107.5 53.3406 107.108C54.1211 106.715 55.016 106.518 56.0252 106.518C57.0494 106.518 57.9492 106.71 58.7248 107.093C59.5004 107.475 60.1019 108 60.5295 108.666C60.962 109.332 61.1783 110.093 61.1783 110.948C61.1783 111.52 61.0689 112.082 60.8501 112.634C60.6314 113.185 60.2461 113.797 59.6942 114.468C59.1474 115.139 58.3793 115.952 57.3899 116.907L54.7575 119.584V119.688H61.4094V122H50.9393ZM69.6275 122.291C68.3995 122.291 67.3455 121.98 66.4656 121.359C65.5906 120.732 64.9169 119.83 64.4446 118.652C63.9773 117.468 63.7436 116.044 63.7436 114.379C63.7486 112.713 63.9847 111.296 64.4521 110.128C64.9244 108.955 65.598 108.06 66.473 107.443C67.353 106.827 68.4045 106.518 69.6275 106.518C70.8505 106.518 71.902 106.827 72.782 107.443C73.6619 108.06 74.3356 108.955 74.8029 110.128C75.2752 111.301 75.5114 112.718 75.5114 114.379C75.5114 116.049 75.2752 117.476 74.8029 118.659C74.3356 119.837 73.6619 120.737 72.782 121.359C71.907 121.98 70.8555 122.291 69.6275 122.291ZM69.6275 119.957C70.582 119.957 71.3352 119.487 71.8871 118.547C72.4439 117.603 72.7223 116.213 72.7223 114.379C72.7223 113.165 72.5955 112.146 72.342 111.321C72.0884 110.496 71.7305 109.874 71.2681 109.457C70.8058 109.034 70.2589 108.823 69.6275 108.823C68.6779 108.823 67.9272 109.295 67.3754 110.24C66.8235 111.179 66.5451 112.559 66.5401 114.379C66.5352 115.597 66.657 116.621 66.9055 117.451C67.1591 118.281 67.517 118.908 67.9794 119.33C68.4418 119.748 68.9911 119.957 69.6275 119.957ZM77.9891 122V120.001L83.2913 114.804C83.7984 114.292 84.221 113.837 84.559 113.439C84.8971 113.041 85.1507 112.656 85.3197 112.283C85.4887 111.91 85.5732 111.512 85.5732 111.09C85.5732 110.608 85.4639 110.195 85.2451 109.852C85.0264 109.504 84.7256 109.235 84.3428 109.047C83.96 108.858 83.5249 108.763 83.0377 108.763C82.5356 108.763 82.0956 108.868 81.7178 109.076C81.3399 109.28 81.0466 109.571 80.8378 109.949C80.634 110.327 80.532 110.777 80.532 111.299H77.8996C77.8996 110.329 78.1208 109.487 78.5633 108.771C79.0058 108.055 79.6148 107.5 80.3904 107.108C81.1709 106.715 82.0658 106.518 83.075 106.518C84.0992 106.518 84.999 106.71 85.7746 107.093C86.5502 107.475 87.1517 108 87.5793 108.666C88.0118 109.332 88.2281 110.093 88.2281 110.948C88.2281 111.52 88.1187 112.082 87.8999 112.634C87.6812 113.185 87.2959 113.797 86.7441 114.468C86.1972 115.139 85.4291 115.952 84.4397 116.907L81.8073 119.584V119.688H88.4593V122H77.9891ZM96.5132 122.209C95.4394 122.209 94.4848 122.025 93.6496 121.657C92.8193 121.289 92.1631 120.777 91.6808 120.121C91.1986 119.464 90.9426 118.706 90.9127 117.846H93.7167C93.7416 118.259 93.8783 118.619 94.1269 118.928C94.3754 119.231 94.7061 119.467 95.1187 119.636C95.5313 119.805 95.9937 119.89 96.5058 119.89C97.0526 119.89 97.5374 119.795 97.96 119.606C98.3825 119.412 98.7132 119.144 98.9518 118.801C99.1904 118.458 99.3073 118.062 99.3023 117.615C99.3073 117.153 99.1879 116.745 98.9443 116.392C98.7007 116.039 98.3477 115.763 97.8854 115.564C97.428 115.365 96.8762 115.266 96.2298 115.266H94.8801V113.133H96.2298C96.7618 113.133 97.2267 113.041 97.6244 112.857C98.0271 112.673 98.3428 112.415 98.5715 112.082C98.8002 111.744 98.912 111.353 98.907 110.911C98.912 110.478 98.8151 110.103 98.6162 109.785C98.4223 109.462 98.1464 109.211 97.7884 109.032C97.4355 108.853 97.0203 108.763 96.5431 108.763C96.0757 108.763 95.6432 108.848 95.2455 109.017C94.8477 109.186 94.5271 109.427 94.2835 109.74C94.0399 110.048 93.9106 110.416 93.8957 110.844H91.2334C91.2533 109.989 91.4994 109.238 91.9717 108.592C92.449 107.94 93.0853 107.433 93.8808 107.07C94.6762 106.702 95.5686 106.518 96.558 106.518C97.5771 106.518 98.4621 106.71 99.2128 107.093C99.9685 107.471 100.553 107.98 100.965 108.621C101.378 109.263 101.584 109.971 101.584 110.747C101.589 111.607 101.336 112.328 100.824 112.909C100.316 113.491 99.6503 113.871 98.825 114.05V114.17C99.8989 114.319 100.722 114.717 101.293 115.363C101.87 116.004 102.156 116.802 102.151 117.757C102.151 118.612 101.907 119.377 101.42 120.054C100.938 120.725 100.272 121.252 99.4216 121.635C98.5764 122.017 97.607 122.209 96.5132 122.209Z" fill="#E4E4E4"/>
<g clip-path="url(#clip0_0_2662)">
<path d="M313.701 130.508C314.544 131.951 313.504 133.764 311.832 133.764H293.026C292.258 133.764 291.547 133.357 291.159 132.694L254.666 70.4135C253.821 68.9705 254.861 67.1546 256.534 67.1546H275.445C276.214 67.1546 276.926 67.563 277.314 68.2273L313.701 130.508Z" fill="white"/>
<path d="M263.059 113.578C263.492 114.308 263.459 115.223 262.975 115.919L252.511 130.982C251.609 132.28 249.665 132.206 248.866 130.842L213.459 70.4135C212.613 68.9705 213.654 67.1546 215.326 67.1546H234.248C235.011 67.1546 235.719 67.5571 236.109 68.2137L263.059 113.578Z" fill="white"/>
<path d="M230.25 129.906C231.105 131.349 230.066 133.175 228.388 133.175H215.413C214.218 133.175 213.249 132.206 213.249 131.01V109.139C213.249 106.937 216.152 106.141 217.275 108.034L230.25 129.906Z" fill="white"/>
</g>
<defs>
<clipPath id="clip0_0_2662">
<rect width="101" height="66.8784" fill="white" transform="translate(213 67)"/>
</clipPath>
</defs>
</svg>
