<svg width="340" height="200" viewBox="0 0 340 200" fill="none" xmlns="http://www.w3.org/2000/svg">
<path d="M0 64C0 33.8301 0 18.7452 9.37258 9.37258C18.7452 0 33.8301 0 64 0H276C306.17 0 321.255 0 330.627 9.37258C340 18.7452 340 33.8301 340 64V136C340 166.17 340 181.255 330.627 190.627C321.255 200 306.17 200 276 200H64C33.8301 200 18.7452 200 9.37258 190.627C0 181.255 0 166.17 0 136V64Z" fill="#232529"/>
<path d="M19.5064 93V77.7273H25.2337C26.407 77.7273 27.3913 77.9311 28.1868 78.3388C28.9872 78.7464 29.5913 79.3182 29.9989 80.054C30.4116 80.7848 30.6179 81.6374 30.6179 82.6119C30.6179 83.5913 30.4091 84.4414 29.9915 85.1623C29.5788 85.8782 28.9698 86.4325 28.1644 86.8253C27.359 87.2131 26.3697 87.407 25.1964 87.407H21.1172V85.1101H24.8235C25.5096 85.1101 26.0714 85.0156 26.5089 84.8267C26.9464 84.6328 27.2695 84.3519 27.4783 83.984C27.6921 83.6112 27.799 83.1538 27.799 82.6119C27.799 82.07 27.6921 81.6076 27.4783 81.2248C27.2646 80.837 26.9389 80.5437 26.5014 80.3448C26.0639 80.141 25.4996 80.0391 24.8086 80.0391H22.2731V93H19.5064ZM27.3963 86.0795L31.1772 93H28.0898L24.3761 86.0795H27.3963ZM36.3414 93.2312C35.6156 93.2312 34.9618 93.1019 34.3801 92.8434C33.8034 92.5799 33.3461 92.1921 33.008 91.68C32.6749 91.168 32.5083 90.5366 32.5083 89.7859C32.5083 89.1396 32.6277 88.6051 32.8663 88.1825C33.1049 87.7599 33.4306 87.4219 33.8432 87.1683C34.2559 86.9148 34.7207 86.7234 35.2377 86.5941C35.7598 86.4599 36.2992 86.3629 36.856 86.3033C37.5272 86.2337 38.0716 86.1715 38.4892 86.1168C38.9068 86.0572 39.2101 85.9677 39.399 85.8484C39.5929 85.7241 39.6898 85.5327 39.6898 85.2741V85.2294C39.6898 84.6676 39.5233 84.2326 39.1902 83.9244C38.8571 83.6161 38.3773 83.462 37.7509 83.462C37.0897 83.462 36.5652 83.6062 36.1774 83.8945C35.7946 84.1829 35.536 84.5234 35.4018 84.9162L32.8812 84.5582C33.0801 83.8622 33.4082 83.2805 33.8656 82.8132C34.323 82.3409 34.8823 81.9879 35.5435 81.7543C36.2047 81.5156 36.9355 81.3963 37.736 81.3963C38.2878 81.3963 38.8372 81.4609 39.3841 81.5902C39.9309 81.7195 40.4306 81.9332 40.883 82.2315C41.3354 82.5249 41.6983 82.9251 41.9718 83.4322C42.2502 83.9393 42.3894 84.5732 42.3894 85.3338V93H39.7942V91.4265H39.7047C39.5407 91.7447 39.3095 92.043 39.0112 92.3214C38.7179 92.5948 38.3475 92.8161 37.9 92.9851C37.4576 93.1491 36.938 93.2312 36.3414 93.2312ZM37.0424 91.2475C37.5843 91.2475 38.0542 91.1406 38.4519 90.9268C38.8496 90.7081 39.1554 90.4197 39.3691 90.0618C39.5879 89.7038 39.6973 89.3136 39.6973 88.891V87.5412C39.6127 87.6108 39.4686 87.6754 39.2647 87.7351C39.0659 87.7947 38.8422 87.8469 38.5936 87.8917C38.345 87.9364 38.0989 87.9762 37.8553 88.011C37.6117 88.0458 37.4004 88.0756 37.2214 88.1005C36.8187 88.1552 36.4583 88.2447 36.1401 88.369C35.8219 88.4933 35.5708 88.6673 35.3869 88.891C35.2029 89.1097 35.111 89.3931 35.111 89.7411C35.111 90.2383 35.2924 90.6136 35.6554 90.8672C36.0183 91.1207 36.4806 91.2475 37.0424 91.2475ZM46.3716 97.2955C46.0037 97.2955 45.6632 97.2656 45.35 97.206C45.0417 97.1513 44.7956 97.0866 44.6117 97.0121L45.2381 94.9091C45.6309 95.0234 45.9814 95.0781 46.2896 95.0732C46.5978 95.0682 46.8688 94.9712 47.1025 94.7823C47.3411 94.5984 47.5424 94.2901 47.7065 93.8576L47.9377 93.2386L43.7839 81.5455H46.6475L49.2875 90.196H49.4068L52.0542 81.5455H54.9252L50.339 94.3871C50.1252 94.9936 49.8418 95.5131 49.4888 95.9457C49.1358 96.3832 48.7033 96.7163 48.1912 96.945C47.6841 97.1786 47.0776 97.2955 46.3716 97.2955ZM60.6544 93.2013C59.7545 93.2013 58.9491 92.9702 58.2382 92.5078C57.5273 92.0455 56.9655 91.3743 56.5528 90.4943C56.1402 89.6143 55.9339 88.5455 55.9339 87.2876C55.9339 86.0149 56.1427 84.9411 56.5603 84.0661C56.9829 83.1861 57.5521 82.5224 58.268 82.0749C58.9839 81.6225 59.7819 81.3963 60.6618 81.3963C61.333 81.3963 61.8849 81.5107 62.3174 81.7393C62.7499 81.9631 63.093 82.234 63.3465 82.5522C63.6001 82.8654 63.7964 83.1612 63.9356 83.4396H64.0475V77.7273H66.7545V93H64.0997V91.1953H63.9356C63.7964 91.4737 63.5951 91.7695 63.3316 92.0827C63.0681 92.391 62.7201 92.6545 62.2876 92.8732C61.855 93.092 61.3106 93.2013 60.6544 93.2013ZM61.4076 90.9865C61.9793 90.9865 62.4665 90.8324 62.8692 90.5241C63.2719 90.2109 63.5777 89.7759 63.7865 89.2191C63.9953 88.6623 64.0997 88.0135 64.0997 87.2727C64.0997 86.532 63.9953 85.8881 63.7865 85.3413C63.5827 84.7944 63.2794 84.3693 62.8767 84.0661C62.479 83.7628 61.9893 83.6112 61.4076 83.6112C60.806 83.6112 60.3039 83.7678 59.9012 84.081C59.4985 84.3942 59.1952 84.8267 58.9914 85.3786C58.7876 85.9304 58.6856 86.5618 58.6856 87.2727C58.6856 87.9886 58.7876 88.6275 58.9914 89.1893C59.2002 89.7461 59.5059 90.1861 59.9086 90.5092C60.3163 90.8274 60.816 90.9865 61.4076 90.9865ZM69.6312 93V81.5455H72.3308V93H69.6312ZM70.9885 79.9197C70.5609 79.9197 70.193 79.7781 69.8848 79.4947C69.5765 79.2063 69.4224 78.8608 69.4224 78.4581C69.4224 78.0504 69.5765 77.7049 69.8848 77.4215C70.193 77.1332 70.5609 76.989 70.9885 76.989C71.421 76.989 71.7889 77.1332 72.0922 77.4215C72.4004 77.7049 72.5545 78.0504 72.5545 78.4581C72.5545 78.8608 72.4004 79.2063 72.0922 79.4947C71.7889 79.7781 71.421 79.9197 70.9885 79.9197ZM82.4076 88.1825V81.5455H85.1072V93H82.4896V90.9641H82.3703C82.1118 91.6055 81.6867 92.13 81.0951 92.5376C80.5084 92.9453 79.7851 93.1491 78.925 93.1491C78.1743 93.1491 77.5106 92.9826 76.9339 92.6495C76.3621 92.3114 75.9147 91.8217 75.5915 91.1804C75.2684 90.5341 75.1068 89.7536 75.1068 88.8388V81.5455H77.8064V88.4212C77.8064 89.147 78.0052 89.7237 78.403 90.1513C78.8007 90.5788 79.3227 90.7926 79.969 90.7926C80.3667 90.7926 80.752 90.6957 81.1249 90.5018C81.4978 90.3079 81.8035 90.0195 82.0422 89.6367C82.2858 89.2489 82.4076 88.7642 82.4076 88.1825ZM87.8832 93V81.5455H90.4634V83.4918H90.5977C90.8363 82.8356 91.2315 82.3235 91.7834 81.9556C92.3352 81.5827 92.994 81.3963 93.7596 81.3963C94.5352 81.3963 95.1889 81.5852 95.7209 81.9631C96.2578 82.3359 96.6357 82.8455 96.8544 83.4918H96.9737C97.2273 82.8555 97.6548 82.3484 98.2564 81.9705C98.8629 81.5877 99.5813 81.3963 100.412 81.3963C101.466 81.3963 102.326 81.7294 102.992 82.3956C103.658 83.0618 103.991 84.0337 103.991 85.3114V93H101.284V85.729C101.284 85.0181 101.095 84.4986 100.717 84.1705C100.339 83.8374 99.8771 83.6708 99.3303 83.6708C98.679 83.6708 98.1694 83.8746 97.8015 84.2823C97.4386 84.685 97.2571 85.2095 97.2571 85.8558V93H94.6097V85.6172C94.6097 85.0256 94.4308 84.5533 94.0728 84.2003C93.7198 83.8473 93.2575 83.6708 92.6857 83.6708C92.2979 83.6708 91.945 83.7702 91.6268 83.9691C91.3086 84.163 91.055 84.4389 90.8661 84.7969C90.6772 85.1499 90.5827 85.5625 90.5827 86.0348V93H87.8832ZM108.393 93.1641C107.94 93.1641 107.553 93.005 107.229 92.6868C106.906 92.3686 106.747 91.9808 106.752 91.5234C106.747 91.076 106.906 90.6932 107.229 90.375C107.553 90.0568 107.94 89.8977 108.393 89.8977C108.83 89.8977 109.211 90.0568 109.534 90.375C109.862 90.6932 110.028 91.076 110.033 91.5234C110.028 91.8267 109.949 92.1026 109.795 92.3512C109.646 92.5998 109.447 92.7987 109.198 92.9478C108.955 93.092 108.686 93.1641 108.393 93.1641ZM108.393 84.9908C107.94 84.9908 107.553 84.8317 107.229 84.5135C106.906 84.1903 106.747 83.8026 106.752 83.3501C106.747 82.9027 106.906 82.5199 107.229 82.2017C107.553 81.8786 107.94 81.717 108.393 81.717C108.83 81.717 109.211 81.8786 109.534 82.2017C109.862 82.5199 110.028 82.9027 110.033 83.3501C110.028 83.6484 109.949 83.9219 109.795 84.1705C109.646 84.419 109.447 84.6179 109.198 84.767C108.955 84.9162 108.686 84.9908 108.393 84.9908ZM118.149 93V77.7273H120.916V84.7447H121.102L127.061 77.7273H130.439L124.532 84.5806L130.491 93H127.165L122.608 86.4524L120.916 88.451V93H118.149ZM132.959 93V81.5455H135.659V93H132.959ZM134.317 79.9197C133.889 79.9197 133.521 79.7781 133.213 79.4947C132.905 79.2063 132.751 78.8608 132.751 78.4581C132.751 78.0504 132.905 77.7049 133.213 77.4215C133.521 77.1332 133.889 76.989 134.317 76.989C134.749 76.989 135.117 77.1332 135.42 77.4215C135.729 77.7049 135.883 78.0504 135.883 78.4581C135.883 78.8608 135.729 79.2063 135.42 79.4947C135.117 79.7781 134.749 79.9197 134.317 79.9197ZM141.134 86.2884V93H138.435V81.5455H141.015V83.4918H141.149C141.413 82.8505 141.833 82.3409 142.41 81.9631C142.991 81.5852 143.71 81.3963 144.565 81.3963C145.355 81.3963 146.044 81.5653 146.631 81.9034C147.222 82.2415 147.68 82.7312 148.003 83.3725C148.331 84.0138 148.492 84.7919 148.487 85.7067V93H145.788V86.1243C145.788 85.3587 145.589 84.7596 145.191 84.3271C144.799 83.8945 144.254 83.6783 143.558 83.6783C143.086 83.6783 142.666 83.7827 142.298 83.9915C141.935 84.1953 141.649 84.4911 141.44 84.8789C141.236 85.2667 141.134 85.7365 141.134 86.2884ZM156.213 97.5341C155.244 97.5341 154.411 97.4023 153.715 97.1388C153.019 96.8803 152.46 96.5323 152.037 96.0948C151.615 95.6573 151.321 95.1726 151.157 94.6406L153.588 94.0515C153.698 94.2752 153.857 94.4964 154.066 94.7152C154.274 94.9389 154.555 95.1229 154.908 95.267C155.266 95.4162 155.716 95.4908 156.258 95.4908C157.024 95.4908 157.658 95.3043 158.16 94.9315C158.662 94.5636 158.913 93.957 158.913 93.1119V90.9418H158.779C158.639 91.2202 158.436 91.506 158.167 91.7994C157.904 92.0927 157.553 92.3388 157.116 92.5376C156.683 92.7365 156.139 92.8359 155.483 92.8359C154.603 92.8359 153.805 92.6296 153.089 92.217C152.378 91.7994 151.811 91.1779 151.388 90.3526C150.971 89.5224 150.762 88.4833 150.762 87.2354C150.762 85.9776 150.971 84.9162 151.388 84.0511C151.811 83.1811 152.38 82.5224 153.096 82.0749C153.812 81.6225 154.61 81.3963 155.49 81.3963C156.161 81.3963 156.713 81.5107 157.146 81.7393C157.583 81.9631 157.931 82.234 158.19 82.5522C158.448 82.8654 158.644 83.1612 158.779 83.4396H158.928V81.5455H161.59V93.1864C161.59 94.1658 161.356 94.9762 160.889 95.6175C160.422 96.2589 159.783 96.7386 158.973 97.0568C158.162 97.375 157.242 97.5341 156.213 97.5341ZM156.236 90.718C156.807 90.718 157.295 90.5788 157.697 90.3004C158.1 90.022 158.406 89.6218 158.615 89.0998C158.823 88.5778 158.928 87.9513 158.928 87.2205C158.928 86.4996 158.823 85.8683 158.615 85.3263C158.411 84.7844 158.108 84.3643 157.705 84.0661C157.307 83.7628 156.817 83.6112 156.236 83.6112C155.634 83.6112 155.132 83.7678 154.729 84.081C154.327 84.3942 154.023 84.8242 153.82 85.3711C153.616 85.913 153.514 86.5295 153.514 87.2205C153.514 87.9215 153.616 88.5355 153.82 89.0625C154.028 89.5845 154.334 89.9922 154.737 90.2855C155.144 90.5739 155.644 90.718 156.236 90.718ZM174.562 93.2237C173.444 93.2237 172.474 92.9776 171.654 92.4854C170.834 91.9933 170.197 91.3047 169.745 90.4197C169.297 89.5348 169.074 88.5007 169.074 87.3175C169.074 86.1342 169.297 85.0977 169.745 84.2077C170.197 83.3178 170.834 82.6268 171.654 82.1346C172.474 81.6424 173.444 81.3963 174.562 81.3963C175.681 81.3963 176.65 81.6424 177.471 82.1346C178.291 82.6268 178.925 83.3178 179.372 84.2077C179.825 85.0977 180.051 86.1342 180.051 87.3175C180.051 88.5007 179.825 89.5348 179.372 90.4197C178.925 91.3047 178.291 91.9933 177.471 92.4854C176.65 92.9776 175.681 93.2237 174.562 93.2237ZM174.577 91.0611C175.184 91.0611 175.691 90.8945 176.098 90.5614C176.506 90.2234 176.809 89.771 177.008 89.2042C177.212 88.6374 177.314 88.006 177.314 87.31C177.314 86.609 177.212 85.9751 177.008 85.4084C176.809 84.8366 176.506 84.3817 176.098 84.0437C175.691 83.7056 175.184 83.5366 174.577 83.5366C173.956 83.5366 173.439 83.7056 173.026 84.0437C172.618 84.3817 172.313 84.8366 172.109 85.4084C171.91 85.9751 171.81 86.609 171.81 87.31C171.81 88.006 171.91 88.6374 172.109 89.2042C172.313 89.771 172.618 90.2234 173.026 90.5614C173.439 90.8945 173.956 91.0611 174.577 91.0611ZM188.144 81.5455V83.6335H181.373V81.5455H188.144ZM183.066 93V80.4641C183.066 79.6935 183.225 79.0522 183.543 78.5401C183.866 78.0281 184.298 77.6452 184.84 77.3917C185.382 77.1381 185.984 77.0114 186.645 77.0114C187.112 77.0114 187.528 77.0486 187.89 77.1232C188.253 77.1978 188.522 77.2649 188.696 77.3246L188.159 79.4126C188.045 79.3778 187.9 79.343 187.726 79.3082C187.552 79.2685 187.358 79.2486 187.145 79.2486C186.643 79.2486 186.287 79.3704 186.078 79.614C185.874 79.8526 185.773 80.1957 185.773 80.6431V93H183.066ZM27.8065 110.926C27.7369 110.275 27.4435 109.767 26.9265 109.404C26.4144 109.042 25.7482 108.86 24.9279 108.86C24.3512 108.86 23.8565 108.947 23.4439 109.121C23.0313 109.295 22.7156 109.531 22.4968 109.83C22.2781 110.128 22.1662 110.468 22.1612 110.851C22.1612 111.169 22.2333 111.445 22.3775 111.679C22.5266 111.913 22.728 112.112 22.9815 112.276C23.2351 112.435 23.516 112.569 23.8242 112.678C24.1325 112.788 24.4432 112.88 24.7564 112.954L26.1882 113.312C26.7649 113.446 27.3192 113.628 27.8512 113.857C28.3881 114.085 28.8679 114.374 29.2905 114.722C29.718 115.07 30.0561 115.49 30.3047 115.982C30.5533 116.474 30.6776 117.051 30.6776 117.712C30.6776 118.607 30.4489 119.395 29.9915 120.076C29.5341 120.752 28.8729 121.282 28.0078 121.664C27.1477 122.042 26.1062 122.231 24.8832 122.231C23.695 122.231 22.6634 122.047 21.7884 121.679C20.9183 121.311 20.2372 120.775 19.745 120.069C19.2578 119.363 18.9943 118.502 18.9545 117.488H21.6765C21.7163 118.02 21.8803 118.463 22.1687 118.816C22.457 119.169 22.8324 119.432 23.2947 119.606C23.7621 119.78 24.2841 119.867 24.8608 119.867C25.4624 119.867 25.9893 119.778 26.4418 119.599C26.8991 119.415 27.2571 119.161 27.5156 118.838C27.7741 118.51 27.9059 118.127 27.9109 117.69C27.9059 117.292 27.7891 116.964 27.5604 116.705C27.3317 116.442 27.011 116.223 26.5984 116.049C26.1907 115.87 25.7134 115.711 25.1665 115.572L23.429 115.124C22.1712 114.801 21.1768 114.311 20.446 113.655C19.7202 112.994 19.3572 112.116 19.3572 111.023C19.3572 110.123 19.6009 109.335 20.0881 108.659C20.5803 107.983 21.2489 107.458 22.0941 107.085C22.9393 106.707 23.8963 106.518 24.9652 106.518C26.049 106.518 26.9986 106.707 27.8139 107.085C28.6342 107.458 29.2781 107.978 29.7454 108.644C30.2127 109.305 30.4538 110.066 30.4688 110.926H27.8065ZM38.0212 122.224C36.9026 122.224 35.9332 121.978 35.1128 121.485C34.2925 120.993 33.6562 120.305 33.2037 119.42C32.7563 118.535 32.5326 117.501 32.5326 116.317C32.5326 115.134 32.7563 114.098 33.2037 113.208C33.6562 112.318 34.2925 111.627 35.1128 111.135C35.9332 110.642 36.9026 110.396 38.0212 110.396C39.1398 110.396 40.1093 110.642 40.9296 111.135C41.7499 111.627 42.3838 112.318 42.8312 113.208C43.2836 114.098 43.5099 115.134 43.5099 116.317C43.5099 117.501 43.2836 118.535 42.8312 119.42C42.3838 120.305 41.7499 120.993 40.9296 121.485C40.1093 121.978 39.1398 122.224 38.0212 122.224ZM38.0361 120.061C38.6427 120.061 39.1498 119.895 39.5574 119.561C39.9651 119.223 40.2684 118.771 40.4672 118.204C40.6711 117.637 40.773 117.006 40.773 116.31C40.773 115.609 40.6711 114.975 40.4672 114.408C40.2684 113.837 39.9651 113.382 39.5574 113.044C39.1498 112.706 38.6427 112.537 38.0361 112.537C37.4147 112.537 36.8976 112.706 36.485 113.044C36.0773 113.382 35.7716 113.837 35.5677 114.408C35.3689 114.975 35.2694 115.609 35.2694 116.31C35.2694 117.006 35.3689 117.637 35.5677 118.204C35.7716 118.771 36.0773 119.223 36.485 119.561C36.8976 119.895 37.4147 120.061 38.0361 120.061ZM48.5007 106.727V122H45.8011V106.727H48.5007ZM54.5729 122.231C53.847 122.231 53.1933 122.102 52.6116 121.843C52.0349 121.58 51.5775 121.192 51.2394 120.68C50.9063 120.168 50.7398 119.537 50.7398 118.786C50.7398 118.14 50.8591 117.605 51.0977 117.183C51.3364 116.76 51.662 116.422 52.0747 116.168C52.4873 115.915 52.9521 115.723 53.4692 115.594C53.9912 115.46 54.5306 115.363 55.0874 115.303C55.7586 115.234 56.303 115.172 56.7206 115.117C57.1382 115.057 57.4415 114.968 57.6304 114.848C57.8243 114.724 57.9213 114.533 57.9213 114.274V114.229C57.9213 113.668 57.7547 113.233 57.4216 112.924C57.0885 112.616 56.6088 112.462 55.9823 112.462C55.3211 112.462 54.7966 112.606 54.4088 112.895C54.026 113.183 53.7675 113.523 53.6333 113.916L51.1127 113.558C51.3115 112.862 51.6396 112.281 52.097 111.813C52.5544 111.341 53.1137 110.988 53.7749 110.754C54.4362 110.516 55.167 110.396 55.9674 110.396C56.5193 110.396 57.0686 110.461 57.6155 110.59C58.1624 110.719 58.662 110.933 59.1144 111.232C59.5669 111.525 59.9298 111.925 60.2032 112.432C60.4816 112.939 60.6208 113.573 60.6208 114.334V122H58.0257V120.426H57.9362C57.7721 120.745 57.5409 121.043 57.2426 121.321C56.9493 121.595 56.5789 121.816 56.1315 121.985C55.689 122.149 55.1695 122.231 54.5729 122.231ZM55.2739 120.248C55.8158 120.248 56.2856 120.141 56.6833 119.927C57.0811 119.708 57.3868 119.42 57.6006 119.062C57.8193 118.704 57.9287 118.314 57.9287 117.891V116.541C57.8442 116.611 57.7 116.675 57.4962 116.735C57.2973 116.795 57.0736 116.847 56.825 116.892C56.5764 116.936 56.3303 116.976 56.0867 117.011C55.8431 117.046 55.6318 117.076 55.4529 117.1C55.0502 117.155 54.6897 117.245 54.3715 117.369C54.0534 117.493 53.8023 117.667 53.6183 117.891C53.4344 118.11 53.3424 118.393 53.3424 118.741C53.3424 119.238 53.5239 119.614 53.8868 119.867C54.2497 120.121 54.7121 120.248 55.2739 120.248ZM66.0349 115.288V122H63.3353V110.545H65.9156V112.492H66.0498C66.3133 111.85 66.7334 111.341 67.3101 110.963C67.8918 110.585 68.6102 110.396 69.4653 110.396C70.2558 110.396 70.9443 110.565 71.531 110.903C72.1226 111.241 72.58 111.731 72.9031 112.373C73.2313 113.014 73.3928 113.792 73.3879 114.707V122H70.6883V115.124C70.6883 114.359 70.4894 113.76 70.0917 113.327C69.699 112.895 69.1546 112.678 68.4585 112.678C67.9862 112.678 67.5661 112.783 67.1982 112.991C66.8353 113.195 66.5494 113.491 66.3406 113.879C66.1368 114.267 66.0349 114.737 66.0349 115.288ZM79.4284 122.231C78.7025 122.231 78.0487 122.102 77.4671 121.843C76.8904 121.58 76.433 121.192 76.0949 120.68C75.7618 120.168 75.5953 119.537 75.5953 118.786C75.5953 118.14 75.7146 117.605 75.9532 117.183C76.1919 116.76 76.5175 116.422 76.9301 116.168C77.3428 115.915 77.8076 115.723 78.3247 115.594C78.8467 115.46 79.3861 115.363 79.9429 115.303C80.6141 115.234 81.1585 115.172 81.5761 115.117C81.9937 115.057 82.297 114.968 82.4859 114.848C82.6798 114.724 82.7767 114.533 82.7767 114.274V114.229C82.7767 113.668 82.6102 113.233 82.2771 112.924C81.944 112.616 81.4642 112.462 80.8378 112.462C80.1766 112.462 79.6521 112.606 79.2643 112.895C78.8815 113.183 78.623 113.523 78.4887 113.916L75.9681 113.558C76.167 112.862 76.4951 112.281 76.9525 111.813C77.4099 111.341 77.9692 110.988 78.6304 110.754C79.2916 110.516 80.0225 110.396 80.8229 110.396C81.3747 110.396 81.9241 110.461 82.471 110.59C83.0178 110.719 83.5175 110.933 83.9699 111.232C84.4223 111.525 84.7852 111.925 85.0587 112.432C85.3371 112.939 85.4763 113.573 85.4763 114.334V122H82.8811V120.426H82.7916C82.6276 120.745 82.3964 121.043 82.0981 121.321C81.8048 121.595 81.4344 121.816 80.9869 121.985C80.5445 122.149 80.0249 122.231 79.4284 122.231ZM80.1294 120.248C80.6713 120.248 81.1411 120.141 81.5388 119.927C81.9365 119.708 82.2423 119.42 82.4561 119.062C82.6748 118.704 82.7842 118.314 82.7842 117.891V116.541C82.6997 116.611 82.5555 116.675 82.3517 116.735C82.1528 116.795 81.9291 116.847 81.6805 116.892C81.4319 116.936 81.1858 116.976 80.9422 117.011C80.6986 117.046 80.4873 117.076 80.3083 117.1C79.9056 117.155 79.5452 117.245 79.227 117.369C78.9088 117.493 78.6578 117.667 78.4738 117.891C78.2899 118.11 78.1979 118.393 78.1979 118.741C78.1979 119.238 78.3794 119.614 78.7423 119.867C79.1052 120.121 79.5676 120.248 80.1294 120.248ZM98.6945 122H93.5191V106.727H98.7989C100.315 106.727 101.618 107.033 102.707 107.645C103.8 108.251 104.641 109.124 105.227 110.262C105.814 111.401 106.107 112.763 106.107 114.349C106.107 115.94 105.811 117.307 105.22 118.45C104.633 119.594 103.785 120.471 102.677 121.083C101.573 121.694 100.246 122 98.6945 122ZM96.2858 119.606H98.5603C99.6242 119.606 100.512 119.412 101.223 119.025C101.934 118.632 102.468 118.048 102.826 117.272C103.184 116.491 103.363 115.517 103.363 114.349C103.363 113.18 103.184 112.211 102.826 111.44C102.468 110.665 101.938 110.086 101.237 109.703C100.541 109.315 99.6764 109.121 98.6423 109.121H96.2858V119.606ZM113.688 122.224C112.539 122.224 111.547 121.985 110.712 121.508C109.882 121.026 109.243 120.344 108.796 119.464C108.348 118.58 108.124 117.538 108.124 116.34C108.124 115.162 108.348 114.127 108.796 113.238C109.248 112.343 109.879 111.647 110.69 111.15C111.5 110.647 112.452 110.396 113.546 110.396C114.252 110.396 114.918 110.511 115.544 110.739C116.176 110.963 116.733 111.311 117.215 111.783C117.702 112.256 118.085 112.857 118.363 113.588C118.642 114.314 118.781 115.179 118.781 116.183V117.011H109.392V115.191H116.193C116.188 114.674 116.076 114.214 115.858 113.812C115.639 113.404 115.333 113.083 114.94 112.85C114.553 112.616 114.1 112.499 113.583 112.499C113.031 112.499 112.547 112.634 112.129 112.902C111.711 113.165 111.386 113.513 111.152 113.946C110.923 114.374 110.807 114.843 110.802 115.355V116.944C110.802 117.61 110.923 118.182 111.167 118.659C111.411 119.131 111.751 119.494 112.189 119.748C112.626 119.996 113.138 120.121 113.725 120.121C114.118 120.121 114.473 120.066 114.791 119.957C115.109 119.842 115.385 119.676 115.619 119.457C115.853 119.238 116.029 118.967 116.149 118.644L118.669 118.928C118.51 119.594 118.207 120.175 117.759 120.673C117.317 121.165 116.75 121.548 116.059 121.821C115.368 122.089 114.578 122.224 113.688 122.224ZM121.184 122V106.727H130.968V109.047H123.951V113.193H130.297V115.512H123.951V122H121.184ZM133.369 122V110.545H136.069V122H133.369ZM134.727 108.92C134.299 108.92 133.931 108.778 133.623 108.495C133.315 108.206 133.161 107.861 133.161 107.458C133.161 107.05 133.315 106.705 133.623 106.422C133.931 106.133 134.299 105.989 134.727 105.989C135.159 105.989 135.527 106.133 135.83 106.422C136.139 106.705 136.293 107.05 136.293 107.458C136.293 107.861 136.139 108.206 135.83 108.495C135.527 108.778 135.159 108.92 134.727 108.92Z" fill="#E4E4E4"/>
<path d="M309.391 86.9046V122.128L269.984 144.747L230.561 122.128V76.8882L270 54.2369L300.285 71.6355L304.862 69.017L270 49L226 74.254V124.746L270 150L314 124.746V84.2861L309.391 86.9046Z" fill="url(#paint0_linear_0_2630)"/>
<path d="M258.963 122.159H252.377V100.17H274.353C276.426 100.155 278.42 99.3186 279.887 97.8358C281.354 96.3688 282.167 94.3813 282.183 92.315C282.199 91.2897 281.992 90.2801 281.593 89.3337C281.195 88.3873 280.605 87.5355 279.871 86.8257C279.153 86.1001 278.292 85.5164 277.351 85.1221C276.41 84.7277 275.39 84.5227 274.353 84.5385H252.377V77.8503H274.369C278.212 77.8661 281.912 79.412 284.623 82.1093C287.35 84.8224 288.881 88.4819 288.913 92.315C288.929 95.2489 288.036 98.104 286.346 100.502C284.783 102.789 282.582 104.587 280.015 105.66C277.463 106.464 274.816 106.858 272.152 106.843H258.963V122.159Z" fill="url(#paint1_linear_0_2630)"/>
<path d="M288.755 121.607H281.068L275.136 111.322C277.48 111.18 279.793 110.707 282.009 109.919L288.755 121.607Z" fill="url(#paint2_linear_0_2630)"/>
<path d="M304.798 79.5855L309.343 82.0935L313.888 79.5855V74.2697L309.343 71.6512L304.798 74.2697V79.5855Z" fill="url(#paint3_linear_0_2630)"/>
<defs>
<linearGradient id="paint0_linear_0_2630" x1="316.668" y1="81.1448" x2="223.522" y2="118.604" gradientUnits="userSpaceOnUse">
<stop stop-color="#C200FB"/>
<stop offset="0.4897" stop-color="#3772FF"/>
<stop offset="0.4898" stop-color="#3773FE"/>
<stop offset="1" stop-color="#5AC4BE"/>
</linearGradient>
<linearGradient id="paint1_linear_0_2630" x1="314.884" y1="76.7116" x2="221.739" y2="114.171" gradientUnits="userSpaceOnUse">
<stop stop-color="#C200FB"/>
<stop offset="0.4897" stop-color="#3772FF"/>
<stop offset="0.4898" stop-color="#3773FE"/>
<stop offset="1" stop-color="#5AC4BE"/>
</linearGradient>
<linearGradient id="paint2_linear_0_2630" x1="324.189" y1="99.8459" x2="231.044" y2="137.305" gradientUnits="userSpaceOnUse">
<stop stop-color="#C200FB"/>
<stop offset="0.4897" stop-color="#3772FF"/>
<stop offset="0.4898" stop-color="#3773FE"/>
<stop offset="1" stop-color="#5AC4BE"/>
</linearGradient>
<linearGradient id="paint3_linear_0_2630" x1="314.181" y1="74.9802" x2="221.036" y2="112.439" gradientUnits="userSpaceOnUse">
<stop stop-color="#C200FB"/>
<stop offset="0.4897" stop-color="#3772FF"/>
<stop offset="0.4898" stop-color="#3773FE"/>
<stop offset="1" stop-color="#5AC4BE"/>
</linearGradient>
</defs>
</svg>
